<?xml version="1.0" encoding="UTF-8" standalone="no"?>
<!-- Created with Inkscape (http://www.inkscape.org/) -->

<svg
   version="1.1"
   id="svg2"
   width="198.66667"
   height="45.333332"
   viewBox="0 0 198.66667 45.333332"
   sodipodi:docname="soglasie (1).eps"
   xmlns:inkscape="http://www.inkscape.org/namespaces/inkscape"
   xmlns:sodipodi="http://sodipodi.sourceforge.net/DTD/sodipodi-0.dtd"
   xmlns="http://www.w3.org/2000/svg"
   xmlns:svg="http://www.w3.org/2000/svg">
  <defs
     id="defs6" />
  <sodipodi:namedview
     id="namedview4"
     pagecolor="#ffffff"
     bordercolor="#000000"
     borderopacity="0.25"
     inkscape:showpageshadow="2"
     inkscape:pageopacity="0.0"
     inkscape:pagecheckerboard="0"
     inkscape:deskcolor="#d1d1d1" />
  <g
     id="g8"
     inkscape:groupmode="layer"
     inkscape:label="ink_ext_XXXXXX"
     transform="matrix(1.3333333,0,0,-1.3333333,0,45.333333)">
    <g
       id="g10"
       transform="scale(0.1)">
      <path
         d="m 881.262,129.352 h 34.246 v 143.82 H 815.09 v -17.356 c 0,-62.613 -7.547,-86.171 -30.766,-94.847 v -30.996 c 8.711,1.238 62.11,10.539 62.692,103.523 v 9.301 h 35.406 V 129.352 h -1.16"
         style="fill:#eb5f0a;fill-opacity:1;fill-rule:evenodd;stroke:none"
         id="path12" />
      <path
         d="m 689.715,129.352 h 34.242 v 112.207 h 62.109 v 31.613 h -96.351 v -143.82"
         style="fill:#eb5f0a;fill-opacity:1;fill-rule:evenodd;stroke:none"
         id="path14" />
      <path
         d="m 1019.41,274.41 h -33.668 l -56.304,-145.062 35.988,0.004 10.449,26.656 h 52.825 l 10.44,-26.656 h 36.57 z m -33.668,-90.508 16.828,45.254 16.84,-45.254 z"
         style="fill:#eb5f0a;fill-opacity:1;fill-rule:evenodd;stroke:none"
         id="path16" />
      <path
         d="m 1253.91,273.172 h -34.25 v -143.82 h 32.51 l 59.79,83.687 v -83.687 h 33.66 v 143.82 h -32.5 l -59.21,-85.551 v 85.551"
         style="fill:#eb5f0a;fill-opacity:1;fill-rule:evenodd;stroke:none"
         id="path18" />
      <path
         d="m 1480.87,187.004 v 27.894 h -70.24 v 24.18 h 76.62 v 34.094 h -110.28 v -143.82 h 111.44 v 30.996 h -77.78 v 26.656 h 70.24"
         style="fill:#eb5f0a;fill-opacity:1;fill-rule:evenodd;stroke:none"
         id="path20" />
      <path
         d="m 600.902,275.652 c -23.797,0 -44.691,-12.398 -58.043,-31.613 v 0 c -15.093,-21.699 -34.828,-81.211 -75.457,-81.211 -25.543,0 -39.472,20.457 -37.73,41.535 1.742,21.696 19.152,37.813 38.891,35.953 11.031,-0.621 20.316,-6.82 26.699,-16.117 l 20.316,29.758 c -11.609,12.398 -26.699,20.457 -44.117,21.695 -38.891,3.098 -71.977,-27.894 -74.875,-69.433 -2.902,-41.535 26.121,-76.867 65.008,-79.969 2.324,0 5.226,0 7.547,0 l 0.582,0.004 c 16.254,0 34.824,7.437 47.015,17.355 9.285,7.438 16.254,15.496 22.055,23.555 11.609,-24.176 35.988,-40.914 63.27,-40.914 38.89,0 70.234,33.477 70.234,75.008 -1.16,40.918 -32.504,74.39 -71.395,74.39 z m 10.45,-111.586 c -3.485,-1.238 -6.965,-1.859 -11.032,-1.859 -15.093,0 -27.863,9.918 -33.668,23.555 -1.738,4.961 -2.902,9.918 -2.902,14.879 0,5.578 1.164,10.539 2.902,14.879 5.805,14.257 18.575,23.558 33.668,23.558 3.485,0 7.547,-0.621 11.032,-1.859 15.089,-4.961 25.539,-19.223 25.539,-37.199 0.582,-16.739 -10.45,-30.997 -25.539,-35.954"
         style="fill:#eb5f0a;fill-opacity:1;fill-rule:evenodd;stroke:none"
         id="path22" />
      <path
         d="m 1175.55,173.984 -2.91,-3.097 v 0 c -6.96,-6.821 -15.67,-9.918 -24.95,-9.918 -20.9,0 -37.73,17.976 -37.73,40.293 0,22.316 16.83,40.297 37.73,40.297 10.45,0 20.9,-4.961 27.86,-13.641 l 1.16,1.238 16.83,24.801 c -12.77,13.637 -30.18,21.078 -47.59,21.078 -38.31,0 -69.08,-33.476 -69.08,-73.773 0,-40.914 31.35,-73.77 69.08,-73.77 19.15,0 37.73,8.68 51.08,24.797 l -21.48,21.695"
         style="fill:#eb5f0a;fill-opacity:1;fill-rule:evenodd;stroke:none"
         id="path24" />
      <path
         d="m 903.898,24.5859 c -10.449,0 -17.992,9.2969 -17.992,20.4571 0,11.1601 7.543,20.457 17.41,20.457 6.387,0 11.032,-3.0977 15.094,-7.4375 l 4.645,5.5781 c -4.645,4.961 -10.45,9.2969 -19.739,9.2969 -14.507,0 -24.957,-12.3984 -24.957,-27.2773 0,-14.8789 11.032,-27.2774 24.957,-27.2774 9.289,0 15.094,4.3399 20.317,9.918 l -4.641,4.9609 C 914.93,28.3008 910.281,24.582 903.898,24.582 Z m 0,0 v 0 0"
         style="fill:#eb5f0a;fill-opacity:1;fill-rule:evenodd;stroke:none"
         id="path26" />
      <path
         d="M 972.395,71.6953 H 930.02 v -7.4375 h 17.414 V 19.0039 h 7.546 v 45.2539 h 17.415 v 7.4375"
         style="fill:#eb5f0a;fill-opacity:1;fill-rule:evenodd;stroke:none"
         id="path28" />
      <path
         d="m 1009.54,72.3164 c -9.29,0 -15.091,-5.5781 -18.575,-11.7773 v 10.539 h -7.547 V 2.26563 h 7.547 V 28.3047 c 4.062,-5.5781 9.865,-11.1602 18.575,-11.1602 11.61,0 23.22,9.918 23.22,27.2774 0,17.9765 -11.61,27.8945 -23.22,27.8945 z m -1.74,-47.1133 c -9.284,0 -17.995,8.0586 -17.995,20.4571 0,12.3984 8.711,20.457 17.995,20.457 9.29,0 17.41,-8.0586 17.41,-20.457 0,-13.0196 -7.54,-20.4571 -17.41,-20.4571"
         style="fill:#eb5f0a;fill-opacity:1;fill-rule:evenodd;stroke:none"
         id="path30" />
      <path
         d="m 1066.42,72.3164 c -6.96,0 -12.19,-1.8594 -17.99,-4.3398 l 2.32,-6.1993 c 4.64,2.4805 9.29,3.7188 15.09,3.7188 9.29,0 14.51,-4.9609 14.51,-14.2578 v -1.8594 c -4.64,1.2383 -8.71,2.4805 -15.09,2.4805 -12.19,0 -20.9,-5.5781 -20.9,-17.3555 0,-11.1601 9.29,-16.7383 18.58,-16.7383 8.71,0 14.51,4.3399 17.41,8.6797 v -8.0586 h 6.97 v 32.8516 c 0,6.8203 -1.74,11.7773 -5.22,15.4961 -3.49,3.7187 -8.71,5.5781 -15.68,5.5781 z m 13.94,-34.0937 c 0,-8.0586 -7.55,-14.2579 -16.26,-14.2579 -6.38,0 -12.19,3.7188 -12.19,10.5391 0,6.1992 5.23,10.5391 14.51,10.5391 5.81,0 10.45,-1.2383 14.51,-2.4805 v -4.3398 h -0.57"
         style="fill:#eb5f0a;fill-opacity:1;fill-rule:evenodd;stroke:none"
         id="path32" />
      <path
         d="m 1122.15,51.2383 -14.51,20.457 h -8.13 l 18.58,-26.0351 -19.74,-26.6563 h 8.7 l 15.1,21.6992 15.09,-21.6992 h 8.71 l -19.74,26.6563 18.58,26.0351 h -8.13 l -14.51,-20.457"
         style="fill:#eb5f0a;fill-opacity:1;fill-rule:evenodd;stroke:none"
         id="path34" />
      <path
         d="m 1176.71,72.3164 c -15.09,0 -25.54,-12.3984 -25.54,-27.2773 0,-14.8789 10.45,-27.2774 25.54,-27.2774 15.09,0 25.54,12.3985 25.54,27.2774 0,14.8789 -11.03,27.2773 -25.54,27.2773 z m 0,-47.7305 c -10.45,0 -17.99,9.2969 -17.99,20.4571 0,11.1601 7.54,20.457 17.99,20.457 10.45,0 18,-9.2969 18,-20.457 0,-11.1602 -7.55,-20.4571 -18,-20.4571"
         style="fill:#eb5f0a;fill-opacity:1;fill-rule:evenodd;stroke:none"
         id="path36" />
      <path
         d="m 1246.95,46.2813 c 4.06,1.8593 8.12,4.9609 8.12,11.7773 0,8.0586 -6.38,13.0195 -16.25,13.0195 h -23.8 V 18.3867 h 24.38 c 11.03,0 17.99,5.5781 17.99,14.2578 0,8.0586 -4.64,11.7774 -10.44,13.6368 z m -24.38,18.5976 h 15.09 c 6.38,0 9.87,-3.0976 9.87,-7.4375 0,-5.5781 -4.07,-8.6797 -9.87,-8.6797 h -15.09 z m 16.25,-39.0547 h -16.25 v 16.7383 h 15.67 c 8.13,0 12.19,-3.0977 12.19,-8.0586 -0.58,-5.5781 -4.64,-8.6797 -11.61,-8.6797 z m 0,0 v 0 0"
         style="fill:#eb5f0a;fill-opacity:1;fill-rule:evenodd;stroke:none"
         id="path38" />
      <path
         d="m 1289.32,72.3164 c -6.97,0 -12.19,-1.8594 -18,-4.3398 l 2.32,-6.1993 c 4.65,2.4805 9.29,3.7188 15.1,3.7188 9.28,0 14.51,-4.9609 14.51,-14.2578 v -1.8594 c -4.64,1.2383 -8.71,2.4805 -15.09,2.4805 -12.2,0 -20.9,-5.5781 -20.9,-17.3555 0,-11.1601 9.28,-16.7383 18.57,-16.7383 8.71,0 14.51,4.3399 17.42,8.6797 v -8.0586 h 6.96 v 32.8516 c 0,6.8203 -1.74,11.7773 -5.22,15.4961 -3.48,3.7187 -8.71,5.5781 -15.67,5.5781 z m 13.93,-34.0937 c 0,-8.0586 -7.55,-14.2579 -16.25,-14.2579 -6.39,0 -12.19,3.7188 -12.19,10.5391 0,6.1992 5.22,10.5391 14.51,10.5391 5.8,0 10.45,-1.2383 14.51,-2.4805 v -4.3398 h -0.58"
         style="fill:#eb5f0a;fill-opacity:1;fill-rule:evenodd;stroke:none"
         id="path40" />
      <path
         d="m 1332.85,71.6953 h -6.96 V 19.0039 h 6.96 v 22.9375 h 28.45 V 19.0039 h 7.54 v 52.6914 h -7.54 V 48.7617 h -28.45 v 22.9336"
         style="fill:#eb5f0a;fill-opacity:1;fill-rule:evenodd;stroke:none"
         id="path42" />
      <path
         d="m 1392.06,19.0039 29.02,41.5352 V 19.0039 h 7.55 v 52.6914 h -6.97 l -29.6,-41.5312 v 41.5312 h -6.97 V 19.0039 h 6.97"
         style="fill:#eb5f0a;fill-opacity:1;fill-rule:evenodd;stroke:none"
         id="path44" />
      <path
         d="m 1465.2,72.3164 c -13.36,0 -23.81,-12.3984 -23.81,-27.2773 0,-16.1172 11.04,-27.2774 24.38,-27.2774 9.29,0 15.1,3.7188 20.32,9.918 l -4.64,4.3398 c -4.06,-4.3398 -8.71,-7.4375 -15.68,-7.4375 -8.7,0 -16.25,6.1993 -17.41,17.3555 l 38.89,0.0039 c 0,1.2383 0,1.8594 0,2.4805 1.16,15.4961 -7.54,27.8945 -22.05,27.8945 z m -15.68,-24.1758 c 1.17,9.918 7.55,17.3555 15.68,17.3555 9.86,0 15.09,-8.0586 15.67,-17.3555 h -31.35"
         style="fill:#eb5f0a;fill-opacity:1;fill-rule:evenodd;stroke:none"
         id="path46" />
      <path
         d="m 242.762,330.203 c -20.895,0 -41.789,-5.578 -59.785,-16.738 -17.993,11.16 -38.891,17.359 -59.786,17.359 C 57.0195,330.824 3.03906,273.168 3.03906,202.5 3.03906,131.828 57.0234,74.1758 123.191,74.1758 c 20.899,0 41.793,6.1992 59.786,17.3555 17.996,-11.1602 38.894,-16.7383 59.785,-16.7383 66.172,0 120.152,57.652 120.152,128.324 0,70.047 -53.98,127.082 -120.152,127.082 z M 85.4648,202.5 v 0 c -1.7421,-5.578 -2.3242,-11.16 -2.3242,-16.738 0,-30.375 23.2184,-55.172 51.6644,-55.172 18.574,0 35.406,10.539 44.691,27.277 v 0 l 0.582,0.621 c 0.582,1.239 1.164,2.481 1.742,3.719 l 31.344,65.09 0.582,1.242 v 0 0 c 3.484,6.816 9.867,11.156 17.414,11.156 10.445,0 19.153,-9.297 19.153,-20.457 v -0.621 -0.621 0 c 0,-8.676 -4.063,-27.277 -30.184,-55.172 -33.086,-35.953 -63.852,-47.113 -63.852,-47.73 v 0 c -10.449,-4.961 -22.054,-6.821 -33.664,-6.821 -48.7614,0 -88.2302,42.153 -88.2302,94.227 0,52.074 39.4688,94.23 88.2302,94.23 9.285,0 17.992,-1.238 26.7,-4.339 C 116.227,263.875 94.75,233.496 85.4609,202.5 Z m 194.4492,-0.621 v 0 c 1.742,5.578 2.32,11.16 2.32,17.359 0,30.375 -23.218,55.172 -51.66,55.172 -17.992,0 -35.406,-10.539 -44.695,-27.277 v 0 l -0.578,-1.86 c -0.582,-0.621 -1.164,-1.859 -1.164,-2.48 l -32.504,-67.574 c -3.485,-6.821 -9.867,-10.539 -16.832,-10.539 -10.449,0 -19.153,9.3 -19.153,20.461 v 0 0.617 c 0,8.68 4.641,27.281 30.18,55.797 33.086,35.953 63.27,46.492 63.852,46.492 11.031,4.961 22.058,7.437 34.246,7.437 48.758,0 88.226,-42.152 88.226,-94.226 0,-52.074 -39.468,-94.231 -88.226,-94.231 -9.285,0 -18.574,1.239 -27.281,4.34 33.085,29.137 54.562,58.891 63.269,90.508 z m 0,0 v 0 0"
         style="fill:#eb5f0a;fill-opacity:1;fill-rule:evenodd;stroke:none"
         id="path48" />
    </g>
  </g>
</svg>
