<?xml version="1.0" encoding="UTF-8" standalone="no"?>
<!-- Created with Inkscape (http://www.inkscape.org/) -->

<svg
   version="1.1"
   id="svg2"
   width="934.66669"
   height="252"
   viewBox="0 0 934.66669 252"
   sodipodi:docname="vsk.eps"
   xmlns:inkscape="http://www.inkscape.org/namespaces/inkscape"
   xmlns:sodipodi="http://sodipodi.sourceforge.net/DTD/sodipodi-0.dtd"
   xmlns="http://www.w3.org/2000/svg"
   xmlns:svg="http://www.w3.org/2000/svg">
  <defs
     id="defs6" />
  <sodipodi:namedview
     id="namedview4"
     pagecolor="#ffffff"
     bordercolor="#000000"
     borderopacity="0.25"
     inkscape:showpageshadow="2"
     inkscape:pageopacity="0.0"
     inkscape:pagecheckerboard="0"
     inkscape:deskcolor="#d1d1d1" />
  <g
     id="g8"
     inkscape:groupmode="layer"
     inkscape:label="ink_ext_XXXXXX"
     transform="matrix(1.3333333,0,0,-1.3333333,0,252)">
    <g
       id="g10"
       transform="scale(0.1)">
      <path
         d="m 2696.08,1884.45 h 73.6 c 82.5,-8 166.1,-8.5 246.9,-28.7 121.8,-18.9 234.4,-70.8 349.7,-111.5 80.7,-34.4 157.7,-77 236,-116.4 89.3,-38.9 176.9,-81.6 265,-123.1 103.3,-47.7 199.5,-109.2 303.2,-156.1 38.1,-16.2 70.2,-42.4 104,-65.7 33.5,-23.7 76.2,-27.3 111,-48.4 34.9,-24.4 60.6,-59.8 96.3,-83.1 26.1,-15.1 54.2,-26.3 81.4,-39.3 -0.4,-7.6 -1.4,-22.9 -1.8,-30.6 14.2,-4.3 28.4,-8.5 42.8,-12.6 3.6,-3 10.7,-8.9 14.3,-11.9 13.1,-0.9 26.3,-1.9 39.5,-2.8 0.7,-5.9 2.3,-17.8 3,-23.7 54.8,-9.6 95.4,-50.202 146.5,-69.101 -100,-8.301 -201.7,-23.898 -300.7,0.5 -40.7,2.102 -61.7,45.301 -100.6,51.001 -42.9,6 -86.4,7.2 -128.6,17.1 -35.1,50.5 -100.2,4.8 -146.4,31.6 -17,11.5 -29.8,28.3 -46.7,39.8 -16.6,0.3 -32.8,-2.8 -49.1,-4.5 -42.2,43.1 -105.1,30.7 -157.2,50.4 -96.9,32 -189.9,75.1 -288.2,103.1 -95,25.4 -178.4,79 -266.6,120.6 -131.7,75.1 -269.2,139.1 -406.6,202.8 -101.2,41.8 -194.6,99.8 -295,143.2 -66.2,23.7 -131.6,49.5 -197.9,72.8 45.4,24.4 90.2,51.9 140.7,64.6 43.5,11.6 87.7,20 131.5,30 z m 2045.8,-956.102 c 36.8,-0.7 74.1,3.5 110.6,-2.7 2.9,-4.3 8.9,-12.8 11.9,-17.097 33.2,-2.5 66.5,-4.903 99.8,-7.5 3,-8.5 6.2,-17.102 9.4,-25.703 44.6,-2.297 95.3,15.601 134.9,-11.899 -94,-15.601 -198.9,-33.601 -285.7,17.5 -20.9,2.199 -41.7,4.602 -62.5,6.602 -6.2,13.597 -12.3,27.297 -18.4,40.797"
         style="fill:#1b9ddb;fill-opacity:1;fill-rule:nonzero;stroke:none"
         id="path12" />
      <path
         d="m 1731.98,1730.75 c 85.2,25.5 174.6,47.2 264.1,36.3 143,-4.1 285.7,-30.3 419.4,-81.2 52.9,-17.7 103.6,-41 156.9,-57.3 101.7,-46 198,-103.3 301.1,-146.4 77.4,-36.4 154.6,-73.3 232,-109.8 94.7,-47.4 184.8,-103.6 281.9,-145.9 35.6,-16.3 63.8,-44.3 96.9,-64.5 30.9,-17.9 67.7,-21.7 98.9,-38.9 34.5,-25.5 61.1,-60.3 95.5,-85.8 29.1,-19.6 82,-19.9 85.5,-63.402 3,-17.7 28.6,-12.399 41.5,-18.899 3.5,-3.601 10.7,-10.801 14.3,-14.398 11.5,0 23.1,-0.203 34.7,-0.403 1.7,-34 39.8,-31 62.7,-42.597 18.5,-3.403 29,-19.203 39.4,-33.203 15.1,-2.098 30.2,-4.297 45.3,-6.598 -18.1,-25.102 -50.2,-14.902 -76.3,-16.102 -36.5,0.903 -72.2,-9.5 -108.6,-9.3 -40.9,4.3 -81.5,10.902 -122,17.5 -34.4,3.101 -49.3,43.601 -83.3,48.703 -45.7,5.898 -91.7,8.297 -137.2,15 -5.9,8.898 -11.7,17.699 -17.3,26.597 -36.8,2.102 -73.8,-5 -110.3,0.903 -27.9,3.898 -41.4,31.297 -60.8,48.097 -17.7,3.2 -34.7,-5.3 -51.6,-8.699 -25.4,26.001 -58.1,43.101 -95.3,37.901 -109.9,22.8 -210.6,76.1 -317.8,108.3 -116.3,34.1 -227,84.8 -343.5,118.4 -46.1,13.3 -86.1,42.6 -133.1,53.2 -31.8,7.5 -63,17.8 -91.9,33.4 -65,33.3 -140.7,34.4 -207.3,63.3 -19.1,8.2 -38.9,14 -58.8,19.5 -62.4,16.9 -117.9,53.8 -182.3,63.9 -58.3,7.9 -122.1,12.9 -174.6,-19.2 -245.5,-138.6 -495.3,-269.3 -744.9,-400.2 3.699,11.5 7.3,23 11,34.5 -6.7,2.4 -20.102,7.3 -26.903,9.8 34,35.2 59.403,81.3 105.903,101.8 46.3,21 56.6,87.6 114.1,89.9 1.6,11.4 3.1,22.8 4.5,34.2 50.1,27.4 84.7,74.8 134.6,102.7 154.2,120.7 326.4,216.5 503.6,298.9 z m -620.1,-801.199 c 170.3,118.499 411.1,137.799 591.4,30.5 1.2,-114.102 -0.6,-228.102 1,-342.203 -78.5,94 -223.7,134 -333.4,72.402 -78.5,-46.902 -105.9,-150.102 -85.1,-235.301 14.6,-63.5 68.7,-113.5 131.3,-128.898 101.1,-28.403 210.2,9.5 285.9,78.699 0.3,-113.102 2.5,-226.402 -0.7,-339.4023 -89.2,-50.3985 -194.8,-62.69926 -295.7,-57.69926 -157.3,4.90236 -317.8,75.99996 -409.002,207.69956 -84.801,117 -104.5,270.203 -81,410.101 21.5,122 93.002,234.199 195.302,304.102 z m 1815.8,82.499 c 64.7,15.6 133.6,-41.202 127.2,-108.3 2.7,-71.301 -80.7,-125.301 -145.2,-96.402 -55.9,19.601 -83.9,90.3 -58.9,143.5 13,31.902 43.6,54.502 76.9,61.202 z m -7.4,-22.101 c -59.5,-17.801 -79.7,-102.801 -33,-144.801 45.9,-50.699 140.3,-19.398 147.4,48.301 12.9,63.102 -54.6,118.501 -114.4,96.5 z M 6.37891,1008.15 c 179.69909,-0.1 359.39809,0.2 539.00009,-0.1 82.301,-1.3 171.398,-12.402 236,-68.402 C 848.68,883.051 869.18,785.348 847.68,702.551 824.98,632.148 761.578,585.348 695.277,559.25 746.48,544.551 798.48,523.848 835.078,483.449 932.48,384.051 920.879,204.648 815.777,115.051 750.379,58.5508 660.777,41.0508 576.578,40.4492 386.578,40.6484 196.48,40.5508 6.37891,40.5508 Z M 392.578,773.148 c 0.602,-43.898 0.402,-87.804 0.199,-131.699 30.801,1.102 64.203,-3.301 92,13.102 37.5,22.699 36.5,86.398 -2.199,107.398 -27.301,15.301 -60.098,10 -90,11.199 z m 0.301,-355.398 c 0,-47.199 0.301,-94.402 0,-141.602 34.101,1.602 70.394,-5.3 102.898,7.903 47,18.699 52.5,93.699 9,119.097 -33.597,20.2 -74.699,13 -111.898,14.602 z m 1406.201,582.9 c 129.6,-0.4 259.2,-0.3 388.8,-0.1 1.3,-113.202 -0.4,-226.402 0.9,-339.601 70.5,112.699 139.1,226.5 209.2,339.401 141.9,-0.1 283.9,0.5 425.8,-0.2 -109.8,-151.701 -218.3,-304.502 -327.7,-456.502 111.7,-169.5 224.7,-338.199 336.6,-507.4996 -148.7,0.6016 -297.3,0.3008 -445.9,0.1993 -65.8,119.9023 -132.9,239.1013 -197.8,359.5003 -1.1,-119.399 -1,-238.899 -0.2,-358.3988 -129.8,-2.1992 -259.7,-0.5 -389.6,-0.8984 0,321.3982 0.2,642.6992 -0.1,964.0992 z m 1101.7,-37.502 c 28.2,-4.199 71.3,12.602 87.5,-18.898 13,-18.902 -8.8,-34.699 -19.6,-47.5 9.8,-16.402 19.7,-32.602 29.9,-48.699 -5.9,0.297 -17.7,0.797 -23.6,1 -13.4,16.797 -26.2,59.199 -53.3,43.398 -1.2,-15.898 -1.9,-31.801 -2.1,-47.699 -4.4,2 -13.1,5.898 -17.4,7.801 -3.1,36.797 -0.5,73.797 -1.4,110.597 z m 20.1,-13.898 c 0.1,-9.699 0.3,-28.902 0.4,-38.5 16.2,2.598 32.4,5.5 48.5,8.801 0.4,5.297 1.1,15.797 1.5,21.097 -17.1,1.2 -33.9,4.602 -50.4,8.602 z m 1013.1,-130.5 c 37.6,0.301 75.2,0.301 112.8,-0.199 2.7,-4.5 8,-13.703 10.7,-18.203 33.9,-5.7 68.5,-7 102.8,-9.598 1.8,-6.102 5.4,-18.301 7.3,-24.406 38.9,-0.594 78.3,5.304 117,-0.496 3.9,-3.2 11.6,-9.598 15.4,-12.797 -94.7,-15 -201.1,-33.301 -286.7,22.097 -18.1,0.196 -36.1,0.102 -53.9,2.7 -9.2,13.203 -17.1,27.3 -25.4,40.902 z m 1681.1,-357.602 c 14.9,-5.5 29.8,-11 44.7,-16.699 -32.6,-66.601 -143.7,-68.699 -174.1,0.801 13.7,5.398 27.5,10.699 41.3,16.098 22,-30.098 67,-32.399 88.1,-0.2 z M 2964.88,335.25 c 50.6,45.301 126.7,45.398 187.6,22.598 0.2,-24.2 0.6,-48.5 1.3,-72.7 -31.2,26.2 -74.6,44.7 -114.2,25.2 -67.1,-25.7 -84.7,-125.5 -30,-172.098 40.7,-37.801 105.4,-32.5 144.3,5.098 -0.8,-24 -1.1,-48.0003 -1.2,-72.098 -62.6,-22.4023 -141.2,-22.1992 -190.7,27.8984 -68.1,59.4026 -65.1,177.9026 2.9,236.1016 z m 842.7,37.301 c 15.4,-0.403 30.9,-0.203 46.4,-2.102 46.5,-101.199 88.3,-204.801 131.3,-307.699 -21.5,-0.3008 -42.9,-0.4023 -64.3,-1 -10.7,21.6992 -21.1,43.598 -31.3,65.5 -40.5,-0.102 -81,-0.199 -121.5,-0.301 -9.2,-21.601 -18.6,-43.199 -28,-64.8006 -22.5,0.4024 -44.9,0.4024 -67.3,0.6016 44.8,103.301 90,206.398 134.7,309.801 z m -19.2,-195.301 c 28.1,0 56.3,0.199 84.5,0.598 -14.4,33.101 -27.7,66.703 -41.2,100.203 -15.4,-33.203 -29.8,-66.801 -43.3,-100.801 z m 673.4,189.5 c 57.7,14.301 125,5 169.4,-37.102 65,-60.398 63.1,-176.699 -4.8,-234.3003 -58.2,-47.8985 -148,-51 -211.7,-12.1993 -81.7,50.8006 -90.8,180.4026 -22.1,245.6016 19.1,18.699 43.5,31.098 69.2,38 z m 8.1,-57.5 c -79.2,-30.801 -78.5,-161.102 1.9,-189.801 64.3,-30.199 147,23.102 142.3,94.801 5.5,72.598 -79.6,127.801 -144.2,95 z m 680.4,59.5 c 57.8,11.398 124.6,0.301 166.2,-44.402 65.7,-67 53.1,-192.899 -27.9,-242.3988 -69.9,-40.8984 -171,-33.1992 -226,29.3988 -53.8,63.902 -46.7,172.601 19.3,225.8 19.7,16 43.7,26.102 68.4,31.602 z m 8.2,-56.301 c -61.1,-17.898 -86.1,-97.398 -54.8,-150.5 27.3,-51.398 101.3,-65.3006 148,-32.5 54.3,36 56.7,126.399 5.8,166.301 -27.5,21.301 -66,28.898 -99,16.699 z m 507.7,61.5 c 14.5,-0.101 29.2,-0.199 43.9,-0.301 -0.2,-103.8 0,-207.5 -0.1,-311.3003 -21,0.1015 -41.9,0.1015 -62.8,0 -1.2,66.9023 0.7,133.9023 -1.7,200.7033 -54.6,-68.801 -111.4,-135.903 -165.8,-204.9026 -15.4,0.1016 -30.7,0.4024 -46,0.4024 0.6,102.5972 0.4,205.1992 0.1,307.7972 21.3,0 42.7,0 64.1,0 0.1,-66.2 -0.3,-132.399 0.2,-198.7 56.1,68.801 112,137.602 168.1,206.301 z m 695.6,-7.898 c 59.5,15.398 130.7,6.699 174.9,-39.5 57.4,-56.403 59.8,-157.602 6.2,-217.301 -74.1,-83.3008 -237.8,-67.4023 -280.7,40.699 -37.9,83.199 7.9,194.801 99.6,216.102 z m 16.6,-54.602 c -82.3,-25.398 -86.8,-157.699 -7.7,-190.101 61.1,-31.2972 143.2,12.902 146.2,82.601 11.8,73.5 -70.1,138 -138.5,107.5 z m 321.8,60.5 c 14.2,0 28.4,0 42.8,-0.199 27.2,-65 55.2,-129.5 82.6,-194.402 29,64.902 58.1,129.601 86.5,194.703 14.7,-0.102 29.3,-0.403 44.2,-0.801 15.6,-98.402 32.6,-196.602 50.1,-294.6992 V 61.4492 c -21,1.1016 -41.8,2.1016 -62.6,3.1992 -8.4,60.6016 -17.1,121.1996 -26.8,181.6016 -29.9,-65.902 -55.8,-133.801 -91.2,-197.1016 -38,61.8006 -59.8,131.4996 -90.7,196.8006 -8.7,-61.601 -19.3,-122.898 -32.1,-183.699 -20.6,0.0977 -41,0.1992 -61.3,0.0977 19.2,103.3003 37.9,206.6013 58.5,309.6013 z m -3501.8,-5.801 c 66.9,0.301 133.9,0.403 200.8,0 0,-16.898 0.1,-33.898 0.2,-50.8 -23.3,-0.7 -46.5,-1.2 -69.7,-1.797 0.5,-83.703 0.3,-167.5 0,-251.2033 -20.6,0.2031 -41.1,0.2031 -61.6,0.2031 -0.6,83.5002 -0.6,167.0002 -0.1,250.5002 -23.1,0.797 -46.1,1.097 -69.1,1.797 -0.1,17.101 -0.4,34.3 -0.5,51.3 z m 260.1,0 c 48,-1.199 97.2,5.602 144.3,-6.699 65.1,-21.301 81.3,-118 29.8,-161.5 -30.4,-27.801 -74.5,-21.199 -112.1,-22.398 -0.8,-37.602 -0.6,-75.301 -0.8,-113.0002 -20.3,0 -40.5,-0.1016 -60.7,-0.1016 -0.6,101.3008 0.2,202.4998 -0.5,303.6988 z m 61.5,-50.3 c -0.3,-30.098 -0.4,-60.098 0.2,-90.098 15.2,1 30.5,1.5 45.6,4 26.2,4.199 42.9,39.398 27.5,61.5 -14.3,26.199 -48.5,20.301 -73.3,24.598 z m 507.2,50 c 24.4,0.5 48.8,0.703 73.3,1 19.1,-30.399 37,-61.7 55.2,-92.797 18.1,29.297 33.1,60.699 54.4,87.797 23.3,9.601 51.1,2.402 76.1,4.3 -31.5,-47.898 -63.1,-95.699 -95.5,-143.097 35.3,-53.403 71.5,-106.102 105.7,-160.2033 -24.3,-0.1993 -48.5,-0.5977 -72.8,-0.8985 -22.8,34.6992 -42.4,71.4998 -66.9,104.9998 -30.4,-29.601 -47.7,-69.9998 -72,-104.4998 -25.1,0 -50.2,0 -75.3,0.1992 36.3,53.9026 73.5,107.1016 110.3,160.6016 -30.8,47.5 -61.9,95 -92.5,142.598 z m 727.6,0.3 c 46.8,-1.398 96.3,7 141,-10.898 49.1,-23.402 54.8,-94.602 14.9,-129.699 29.6,-11 55.7,-36.403 53.7,-70.102 6,-41.699 -26.6,-80.6013 -66.7,-87.9998 -47.1,-9.3984 -95.4,-3.3008 -143,-5 0.4,101.1988 0.1,202.4998 0.1,303.6988 z m 60.4,-47.597 c -0.2,-26.5 -0.2,-53.102 -0.2,-79.703 18.8,4.101 37.8,7.703 57.1,9.902 1.3,17.398 14.6,36.898 0.2,52.199 -13.3,17.301 -38.2,13.199 -57.1,17.602 z m -0.2,-125.5 c 0,-27 0,-53.903 0.1,-80.903 31.7,1.7 85.7,-2.398 86.5,42.903 -2.2,43.597 -55.5,38 -86.6,38 z m 1145.1,173.297 c 70.2,0 140.3,0.101 210.5,-0.098 -0.1,-83.402 0.2,-166.906 -0.2,-250.301 8.3,0 24.8,0.199 33.1,0.199 0.8,-37.0972 0.6,-74.1988 0.4,-111.398 -19.7,-0.19922 -39.1,-0.30078 -58.6,0.09766 -0.1,19.20314 -0.1,38.40234 0,57.60154 -62.3,0 -124.7,0.1016 -187,0 0.1,-19.3008 0.2,-38.6015 0.3,-57.99998 -19.3,0.10156 -38.5,0 -57.7,0.10156 -0.1,35.69922 -0.3,71.50002 0.5,107.29722 34.8,10.203 54.1,43.5 56.8,78.101 4.7,58.602 0.9,117.602 1.9,176.399 z m 61.2,-52.7 c -2,-66.3 12,-141.699 -30.8,-198.597 39.5,1.398 79,1.097 118.6,0.797 0.2,65.902 -0.5,131.902 0.6,197.8 -29.5,1.102 -59,1.102 -88.4,0"
         style="fill:#0059a9;fill-opacity:1;fill-rule:nonzero;stroke:none"
         id="path14" />
    </g>
  </g>
</svg>
