<svg width="1703" height="1030" viewBox="0 0 1703 1030" fill="none" xmlns="http://www.w3.org/2000/svg">
<path d="M317.599 298.98C329.228 298.98 339.347 301.472 347.956 306.456C356.715 311.44 363.436 318.538 368.118 327.751C372.799 336.812 375.14 347.46 375.14 359.693C375.14 362.864 375.065 365.205 374.914 366.716H282.033C283.543 375.475 287.621 382.724 294.266 388.463C301.062 394.051 308.915 396.845 317.826 396.845C332.476 396.845 342.896 391.484 349.088 380.761H371.289C367.665 391.333 360.944 400.017 351.127 406.813C341.311 413.458 330.21 416.781 317.826 416.781C306.801 416.781 296.833 414.289 287.923 409.305C279.012 404.17 272.065 397.147 267.081 388.237C262.097 379.175 259.605 369.057 259.605 357.881C259.605 346.705 262.097 336.661 267.081 327.751C272.065 318.689 278.937 311.667 287.696 306.683C296.607 301.548 306.575 298.98 317.599 298.98ZM317.146 318.01C308.236 318.01 300.534 320.804 294.039 326.392C287.696 331.98 283.77 339.153 282.259 347.913H351.807C350.901 338.851 347.201 331.602 340.706 326.165C334.363 320.728 326.51 318.01 317.146 318.01Z" fill="#2C2A2A"/>
<path d="M531.298 356.748C542.474 362.336 548.062 370.944 548.062 382.573C548.062 391.937 544.664 399.639 537.868 405.68C531.072 411.57 521.708 414.515 509.777 414.515H452.916V301.246H509.777C521.104 301.246 530.015 304.191 536.509 310.081C543.154 315.82 546.476 323.145 546.476 332.055C546.476 337.341 545.193 342.174 542.625 346.554C540.209 350.782 536.433 354.18 531.298 356.748ZM507.285 348.366C512.873 348.366 517.102 347.082 519.971 344.515C522.841 341.947 524.276 338.172 524.276 333.188C524.276 323.975 518.612 319.369 507.285 319.369H473.984V348.366H507.285ZM507.512 396.392C513.553 396.392 518.084 395.109 521.104 392.541C524.276 389.823 525.861 385.971 525.861 380.988C525.861 376.306 524.276 372.757 521.104 370.34C518.084 367.773 513.553 366.489 507.512 366.489H473.984V396.392H507.512Z" fill="#2C2A2A"/>
<path d="M690.768 298.98C700.736 298.98 709.797 301.548 717.953 306.683C726.108 311.667 732.527 318.614 737.208 327.524C741.89 336.435 744.231 346.554 744.231 357.881C744.231 369.208 741.89 379.326 737.208 388.237C732.527 397.147 726.108 404.17 717.953 409.305C709.797 414.289 700.736 416.781 690.768 416.781C683.217 416.781 676.118 415.119 669.473 411.797C662.828 408.323 657.165 403.566 652.483 397.525V453.027H630.962V301.246H651.35V319.596C656.183 313.101 661.997 308.042 668.794 304.417C675.59 300.793 682.915 298.98 690.768 298.98ZM687.143 396.845C693.788 396.845 699.754 395.184 705.04 391.861C710.326 388.539 714.479 383.933 717.5 378.043C720.52 372.002 722.03 365.281 722.03 357.881C722.03 350.48 720.52 343.835 717.5 337.945C714.479 331.904 710.326 327.222 705.04 323.9C699.754 320.577 693.788 318.916 687.143 318.916C680.498 318.916 674.457 320.577 669.02 323.9C663.583 327.222 659.355 331.904 656.334 337.945C653.313 343.835 651.803 350.48 651.803 357.881C651.803 365.281 653.313 372.002 656.334 378.043C659.355 383.933 663.583 388.539 669.02 391.861C674.457 395.184 680.498 396.845 687.143 396.845Z" fill="#2C2A2A"/>
<path d="M927.091 394.127V414.515H916.217C910.629 414.515 906.249 413.156 903.078 410.438C899.906 407.568 898.018 403.49 897.414 398.205C892.581 403.793 886.314 408.323 878.611 411.797C871.06 415.119 863.056 416.781 854.598 416.781C842.365 416.781 832.85 413.76 826.054 407.719C819.409 401.678 816.087 393.598 816.087 383.479C816.087 374.267 819.711 366.414 826.961 359.919C834.21 353.274 844.404 349.272 857.543 347.913L870.229 346.554C877.328 345.799 882.614 344.892 886.087 343.835C889.561 342.627 891.751 341.343 892.657 339.984C893.714 338.625 894.243 336.812 894.243 334.547C894.243 329.412 891.751 325.41 886.767 322.541C881.934 319.52 875.213 318.01 866.605 318.01C861.017 318.01 855.655 319.52 850.521 322.541C845.386 325.41 841.837 329.563 839.873 335H816.993C819.107 324.428 824.846 315.82 834.21 309.175C843.573 302.379 854.749 298.98 867.737 298.98C882.085 298.98 893.865 302.907 903.078 310.76C912.29 318.614 916.896 329.865 916.896 344.515V388.01C916.896 389.974 917.425 391.484 918.482 392.541C919.539 393.598 920.974 394.127 922.786 394.127H927.091ZM856.864 398.205C863.962 398.205 870.607 396.77 876.799 393.9C882.991 390.88 887.899 386.953 891.524 382.12C895.3 377.136 897.188 371.85 897.188 366.263V356.068C892.053 359.995 883.897 362.562 872.721 363.771L860.035 365.13C851.578 366.036 845.688 368.075 842.365 371.246C839.043 374.418 837.381 378.42 837.381 383.253C837.381 387.784 839.043 391.408 842.365 394.127C845.839 396.845 850.672 398.205 856.864 398.205Z" fill="#2C2A2A"/>
<path d="M1011.79 378.722C1013.75 385.367 1017.37 390.276 1022.66 393.447C1028.1 396.619 1035.2 398.205 1043.95 398.205C1052.11 398.205 1058.68 396.77 1063.66 393.9C1068.65 390.88 1071.14 387.029 1071.14 382.347C1071.14 378.269 1069.33 374.796 1065.7 371.926C1062.08 368.905 1055.89 367.395 1047.13 367.395H1027.42V348.819H1046.22C1054.07 348.819 1059.66 347.384 1062.98 344.515C1066.46 341.645 1068.19 338.172 1068.19 334.094C1068.19 328.959 1065.85 324.881 1061.17 321.861C1056.64 318.84 1050.37 317.33 1042.37 317.33C1034.67 317.33 1028.25 318.765 1023.11 321.634C1018.13 324.504 1014.88 329.035 1013.37 335.227H992.077C994.041 323.9 999.704 315.065 1009.07 308.722C1018.43 302.228 1029.53 298.98 1042.37 298.98C1056.57 298.98 1068.04 302.077 1076.8 308.269C1085.56 314.31 1089.94 322.314 1089.94 332.282C1089.94 337.266 1088.58 341.947 1085.86 346.327C1083.15 350.556 1079.07 353.954 1073.63 356.521C1086.17 361.505 1092.43 370.038 1092.43 382.12C1092.43 392.541 1087.9 400.923 1078.84 407.266C1069.93 413.609 1057.77 416.781 1042.37 416.781C1028.47 416.781 1016.69 413.383 1007.03 406.586C997.363 399.79 991.775 390.502 990.265 378.722H1011.79Z" fill="#2C2A2A"/>
<path d="M1271.63 301.246V414.515H1250.11V344.741L1191.21 394.58V414.515H1169.69V301.246H1191.21V369.661L1250.11 319.822V301.246H1271.63Z" fill="#2C2A2A"/>
<path d="M1443.11 414.515H1421.59V371.926H1399.39L1364.5 414.515H1338.67L1374.92 370.567C1366.77 368.452 1360.42 364.375 1355.89 358.334C1351.36 352.142 1349.1 344.892 1349.1 336.586C1349.1 326.316 1352.42 317.859 1359.06 311.214C1365.86 304.568 1375.22 301.246 1387.15 301.246H1443.11V414.515ZM1421.59 353.123V320.502H1390.1C1383.91 320.502 1379.23 321.936 1376.05 324.806C1372.88 327.524 1371.3 331.527 1371.3 336.812C1371.3 342.098 1372.88 346.176 1376.05 349.046C1379.23 351.764 1383.91 353.123 1390.1 353.123H1421.59Z" fill="#2C2A2A"/>
<path d="M371.256 598.012V618.4H360.382C354.794 618.4 350.414 617.041 347.243 614.323C344.071 611.453 342.183 607.375 341.579 602.09C336.746 607.678 330.479 612.208 322.776 615.682C315.225 619.004 307.221 620.666 298.763 620.666C286.53 620.666 277.016 617.645 270.219 611.604C263.574 605.563 260.252 597.483 260.252 587.365C260.252 578.152 263.876 570.299 271.126 563.804C278.375 557.159 288.569 553.157 301.708 551.798L314.394 550.439C321.493 549.684 326.779 548.777 330.252 547.72C333.726 546.512 335.916 545.228 336.822 543.869C337.879 542.51 338.408 540.698 338.408 538.432C338.408 533.297 335.916 529.295 330.932 526.426C326.099 523.405 319.378 521.895 310.77 521.895C305.182 521.895 299.82 523.405 294.686 526.426C289.551 529.295 286.002 533.448 284.038 538.885H261.158C263.272 528.313 269.011 519.705 278.375 513.06C287.738 506.264 298.914 502.866 311.903 502.866C326.25 502.866 338.03 506.792 347.243 514.646C356.455 522.499 361.062 533.75 361.062 548.4V591.895C361.062 593.859 361.59 595.369 362.647 596.426C363.704 597.483 365.139 598.012 366.952 598.012H371.256ZM301.029 602.09C308.127 602.09 314.772 600.655 320.964 597.785C327.156 594.765 332.065 590.838 335.689 586.005C339.465 581.021 341.353 575.736 341.353 570.148V559.953C336.218 563.88 328.062 566.447 316.886 567.656L304.2 569.015C295.743 569.921 289.853 571.96 286.53 575.131C283.208 578.303 281.546 582.305 281.546 587.138C281.546 591.669 283.208 595.293 286.53 598.012C290.004 600.73 294.837 602.09 301.029 602.09Z" fill="#2C2A2A"/>
<path d="M393.786 561.766C393.786 550.892 396.429 541 401.715 532.089C407.001 523.027 414.25 515.929 423.462 510.794C432.675 505.508 442.869 502.866 454.045 502.866C466.58 502.866 477.832 506.566 487.799 513.966C497.918 521.215 504.563 530.73 507.735 542.51H484.175C481.607 536.469 477.454 531.711 471.715 528.238C466.127 524.613 459.86 522.801 452.912 522.801C445.814 522.801 439.471 524.538 433.883 528.011C428.295 531.334 423.915 536.016 420.744 542.057C417.572 547.947 415.987 554.516 415.987 561.766C415.987 569.015 417.572 575.66 420.744 581.701C423.915 587.591 428.295 592.273 433.883 595.746C439.471 599.069 445.814 600.73 452.912 600.73C459.86 600.73 466.127 598.994 471.715 595.52C477.454 591.895 481.607 587.062 484.175 581.021H507.735C504.563 592.801 497.918 602.392 487.799 609.792C477.832 617.041 466.58 620.666 454.045 620.666C442.869 620.666 432.675 618.098 423.462 612.963C414.25 607.678 407.001 600.579 401.715 591.669C396.429 582.607 393.786 572.64 393.786 561.766Z" fill="#2C2A2A"/>
<path d="M529.337 561.766C529.337 550.892 531.98 541 537.266 532.089C542.552 523.027 549.801 515.929 559.014 510.794C568.227 505.508 578.421 502.866 589.597 502.866C602.132 502.866 613.383 506.566 623.351 513.966C633.47 521.215 640.115 530.73 643.287 542.51H619.727C617.159 536.469 613.006 531.711 607.267 528.238C601.679 524.613 595.411 522.801 588.464 522.801C581.366 522.801 575.023 524.538 569.435 528.011C563.847 531.334 559.467 536.016 556.296 542.057C553.124 547.947 551.538 554.516 551.538 561.766C551.538 569.015 553.124 575.66 556.296 581.701C559.467 587.591 563.847 592.273 569.435 595.746C575.023 599.069 581.366 600.73 588.464 600.73C595.411 600.73 601.679 598.994 607.267 595.52C613.006 591.895 617.159 587.062 619.727 581.021H643.287C640.115 592.801 633.47 602.392 623.351 609.792C613.383 617.041 602.132 620.666 589.597 620.666C578.421 620.666 568.227 618.098 559.014 612.963C549.801 607.678 542.552 600.579 537.266 591.669C531.98 582.607 529.337 572.64 529.337 561.766Z" fill="#2C2A2A"/>
<path d="M775.92 505.131V618.4H754.399V548.626L695.498 598.465V618.4H673.977V505.131H695.498V573.546L754.399 523.707V505.131H775.92Z" fill="#2C2A2A"/>
<path d="M808.848 561.766C808.848 550.892 811.491 541 816.776 532.089C822.062 523.027 829.312 515.929 838.524 510.794C847.737 505.508 857.931 502.866 869.107 502.866C881.642 502.866 892.893 506.566 902.861 513.966C912.98 521.215 919.625 530.73 922.797 542.51H899.237C896.669 536.469 892.516 531.711 886.777 528.238C881.189 524.613 874.921 522.801 867.974 522.801C860.876 522.801 854.533 524.538 848.945 528.011C843.357 531.334 838.977 536.016 835.806 542.057C832.634 547.947 831.048 554.516 831.048 561.766C831.048 569.015 832.634 575.66 835.806 581.701C838.977 587.591 843.357 592.273 848.945 595.746C854.533 599.069 860.876 600.73 867.974 600.73C874.921 600.73 881.189 598.994 886.777 595.52C892.516 591.895 896.669 587.062 899.237 581.021H922.797C919.625 592.801 912.98 602.392 902.861 609.792C892.893 617.041 881.642 620.666 869.107 620.666C857.931 620.666 847.737 618.098 838.524 612.963C829.312 607.678 822.062 600.579 816.776 591.669C811.491 582.607 808.848 572.64 808.848 561.766Z" fill="#2C2A2A"/>
<path d="M1035.15 525.519H995.503V618.4H973.982V525.519H934.338V505.131H1035.15V525.519Z" fill="#2C2A2A"/>
<path d="M1160.89 598.012V618.4H1150.02C1144.43 618.4 1140.05 617.041 1136.88 614.323C1133.71 611.453 1131.82 607.375 1131.22 602.09C1126.38 607.678 1120.12 612.208 1112.42 615.682C1104.86 619.004 1096.86 620.666 1088.4 620.666C1076.17 620.666 1066.65 617.645 1059.86 611.604C1053.21 605.563 1049.89 597.483 1049.89 587.365C1049.89 578.152 1053.51 570.299 1060.76 563.804C1068.01 557.159 1078.21 553.157 1091.35 551.798L1104.03 550.439C1111.13 549.684 1116.42 548.777 1119.89 547.72C1123.36 546.512 1125.55 545.228 1126.46 543.869C1127.52 542.51 1128.05 540.698 1128.05 538.432C1128.05 533.297 1125.55 529.295 1120.57 526.426C1115.74 523.405 1109.02 521.895 1100.41 521.895C1094.82 521.895 1089.46 523.405 1084.32 526.426C1079.19 529.295 1075.64 533.448 1073.68 538.885H1050.8C1052.91 528.313 1058.65 519.705 1068.01 513.06C1077.38 506.264 1088.55 502.866 1101.54 502.866C1115.89 502.866 1127.67 506.792 1136.88 514.646C1146.09 522.499 1150.7 533.75 1150.7 548.4V591.895C1150.7 593.859 1151.23 595.369 1152.29 596.426C1153.34 597.483 1154.78 598.012 1156.59 598.012H1160.89ZM1090.67 602.09C1097.77 602.09 1104.41 600.655 1110.6 597.785C1116.79 594.765 1121.7 590.838 1125.33 586.005C1129.1 581.021 1130.99 575.736 1130.99 570.148V559.953C1125.86 563.88 1117.7 566.447 1106.53 567.656L1093.84 569.015C1085.38 569.921 1079.49 571.96 1076.17 575.131C1072.85 578.303 1071.18 582.305 1071.18 587.138C1071.18 591.669 1072.85 595.293 1076.17 598.012C1079.64 600.73 1084.48 602.09 1090.67 602.09Z" fill="#2C2A2A"/>
<path d="M1295.56 505.131V618.4H1274.04V571.96H1215.14V618.4H1193.62V505.131H1215.14V551.571H1274.04V505.131H1295.56Z" fill="#2C2A2A"/>
<path d="M1328.49 561.766C1328.49 550.892 1331.13 541 1336.42 532.089C1341.7 523.027 1348.95 515.929 1358.17 510.794C1367.38 505.508 1377.57 502.866 1388.75 502.866C1401.28 502.866 1412.53 506.566 1422.5 513.966C1432.62 521.215 1439.27 530.73 1442.44 542.51H1418.88C1416.31 536.469 1412.16 531.711 1406.42 528.238C1400.83 524.613 1394.56 522.801 1387.62 522.801C1380.52 522.801 1374.17 524.538 1368.59 528.011C1363 531.334 1358.62 536.016 1355.45 542.057C1352.28 547.947 1350.69 554.516 1350.69 561.766C1350.69 569.015 1352.28 575.66 1355.45 581.701C1358.62 587.591 1363 592.273 1368.59 595.746C1374.17 599.069 1380.52 600.73 1387.62 600.73C1394.56 600.73 1400.83 598.994 1406.42 595.52C1412.16 591.895 1416.31 587.062 1418.88 581.021H1442.44C1439.27 592.801 1432.62 602.392 1422.5 609.792C1412.53 617.041 1401.28 620.666 1388.75 620.666C1377.57 620.666 1367.38 618.098 1358.17 612.963C1348.95 607.678 1341.7 600.579 1336.42 591.669C1331.13 582.607 1328.49 572.64 1328.49 561.766Z" fill="#2C2A2A"/>
<path d="M400.207 789.436V830.213H394.513V795.131H370.023V830.213H364.328V789.436H400.207Z" fill="#2C2A2A"/>
<path d="M444.108 824.599C440.657 828.342 435.891 830.213 429.812 830.213C423.732 830.213 418.954 828.342 415.476 824.599C412.025 820.855 410.299 815.931 410.299 809.825C410.299 803.719 412.025 798.794 415.476 795.051C418.954 791.308 423.732 789.436 429.812 789.436C435.891 789.436 440.657 791.308 444.108 795.051C447.559 798.794 449.284 803.719 449.284 809.825C449.284 815.931 447.559 820.855 444.108 824.599ZM419.339 820.935C421.542 823.324 425.033 824.519 429.812 824.519C434.59 824.519 438.081 823.324 440.285 820.935C442.488 818.519 443.59 814.816 443.59 809.825C443.59 804.834 442.488 801.144 440.285 798.755C438.081 796.339 434.59 795.131 429.812 795.131C425.033 795.131 421.542 796.339 419.339 798.755C417.135 801.144 416.034 804.834 416.034 809.825C416.034 814.816 417.135 818.519 419.339 820.935Z" fill="#2C2A2A"/>
<path d="M501.03 789.436H506.724V830.213H501.03V803.533H499.716L487.411 824.837H480.044L467.739 803.533H466.425V830.213H460.731V789.436H466.425L483.07 818.864H484.385L501.03 789.436Z" fill="#2C2A2A"/>
<path d="M550.625 824.599C547.174 828.342 542.408 830.213 536.329 830.213C530.25 830.213 525.471 828.342 521.993 824.599C518.542 820.855 516.817 815.931 516.817 809.825C516.817 803.719 518.542 798.794 521.993 795.051C525.471 791.308 530.25 789.436 536.329 789.436C542.408 789.436 547.174 791.308 550.625 795.051C554.076 798.794 555.802 803.719 555.802 809.825C555.802 815.931 554.076 820.855 550.625 824.599ZM525.856 820.935C528.059 823.324 531.55 824.519 536.329 824.519C541.108 824.519 544.599 823.324 546.802 820.935C549.005 818.519 550.107 814.816 550.107 809.825C550.107 804.834 549.005 801.144 546.802 798.755C544.599 796.339 541.108 795.131 536.329 795.131C531.55 795.131 528.059 796.339 525.856 798.755C523.653 801.144 522.551 804.834 522.551 809.825C522.551 814.816 523.653 818.519 525.856 820.935Z" fill="#2C2A2A"/>
<path d="M629.21 824.519V843.275H623.515V830.213H567.248V789.436H572.942V824.519H590.902V789.436H596.596V824.519H614.556V789.436H620.25V824.519H629.21Z" fill="#2C2A2A"/>
<path d="M655.669 802.338C658.323 802.338 660.633 802.723 662.598 803.493C664.589 804.237 666.142 805.272 667.257 806.599C668.398 807.927 669.234 809.4 669.765 811.02C670.323 812.639 670.602 814.391 670.602 816.276C670.602 818.161 670.323 819.913 669.765 821.532C669.234 823.152 668.398 824.625 667.257 825.952C666.142 827.28 664.589 828.328 662.598 829.098C660.633 829.842 658.323 830.213 655.669 830.213H639.461V789.436H645.156V802.338H655.669ZM654.394 824.519C655.669 824.519 656.757 824.479 657.66 824.399C658.562 824.293 659.505 824.081 660.487 823.762C661.469 823.444 662.252 823.006 662.837 822.448C663.447 821.864 663.938 821.054 664.31 820.019C664.708 818.984 664.907 817.736 664.907 816.276C664.907 814.816 664.708 813.568 664.31 812.533C663.938 811.497 663.447 810.701 662.837 810.143C662.252 809.559 661.469 809.108 660.487 808.79C659.505 808.471 658.562 808.272 657.66 808.192C656.757 808.086 655.669 808.033 654.394 808.033H645.156V824.519H654.394Z" fill="#2C2A2A"/>
<path d="M737.019 809.188C742.992 809.825 745.979 813.196 745.979 819.302C745.979 822.674 744.903 825.342 742.753 827.306C740.603 829.244 737.244 830.213 732.678 830.213H714.679V789.436H732.678C740.749 789.436 744.784 792.861 744.784 799.71C744.784 801.781 744.107 803.586 742.753 805.126C741.426 806.666 739.514 807.582 737.019 807.874V809.188ZM720.374 795.131V805.843H731.962C736.687 805.843 739.05 803.931 739.05 800.108C739.05 799.206 738.917 798.436 738.652 797.799C738.386 797.162 738.054 796.671 737.656 796.325C737.258 795.98 736.714 795.715 736.023 795.529C735.36 795.343 734.736 795.237 734.152 795.21C733.568 795.157 732.838 795.131 731.962 795.131H720.374ZM731.484 824.519C734.351 824.519 736.528 824.107 738.014 823.284C739.528 822.461 740.284 820.855 740.284 818.466C740.284 813.847 737.351 811.537 731.484 811.537H720.374V824.519H731.484Z" fill="#2C2A2A"/>
<path d="M829.121 789.436V830.213H823.426V795.131H805.785C805.812 797.918 805.799 800.268 805.746 802.179C805.693 804.091 805.56 806.374 805.347 809.028C805.135 811.683 804.83 813.913 804.432 815.718C804.033 817.524 803.449 819.422 802.679 821.413C801.91 823.377 800.967 824.957 799.852 826.152C798.764 827.32 797.383 828.289 795.711 829.059C794.065 829.828 792.18 830.213 790.056 830.213V824.519C791.091 824.519 792.034 824.346 792.883 824.001C793.759 823.63 794.516 823.165 795.153 822.607C795.817 822.023 796.388 821.24 796.865 820.258C797.37 819.276 797.795 818.294 798.14 817.311C798.485 816.329 798.777 815.108 799.016 813.648C799.255 812.161 799.427 810.794 799.534 809.546C799.666 808.298 799.772 806.772 799.852 804.967C799.932 803.135 799.972 801.542 799.972 800.188C799.998 798.808 800.011 797.122 800.011 795.131V789.436H829.121Z" fill="#2C2A2A"/>
<path d="M876.884 789.436C878.875 789.436 880.694 789.649 882.34 790.073C884.012 790.472 885.446 791.029 886.64 791.746C887.861 792.463 888.937 793.339 889.866 794.374C890.821 795.41 891.591 796.511 892.175 797.679C892.786 798.847 893.277 800.122 893.649 801.502C894.047 802.883 894.326 804.25 894.485 805.604C894.644 806.958 894.724 808.365 894.724 809.825C894.724 811.285 894.644 812.692 894.485 814.046C894.326 815.4 894.047 816.767 893.649 818.148C893.277 819.528 892.786 820.802 892.175 821.97C891.591 823.138 890.821 824.24 889.866 825.276C888.937 826.311 887.861 827.187 886.64 827.904C885.446 828.621 884.012 829.191 882.34 829.616C880.694 830.014 878.875 830.213 876.884 830.213C873.778 830.213 871.07 829.736 868.76 828.78C866.451 827.798 864.632 826.457 863.305 824.758C861.978 823.032 860.969 821.187 860.279 819.223C859.615 817.258 859.19 815.081 859.004 812.692H847.018V830.213H841.324V789.436H847.018V806.958H859.004C859.19 804.568 859.615 802.392 860.279 800.427C860.969 798.463 861.978 796.631 863.305 794.932C864.632 793.206 866.451 791.865 868.76 790.91C871.07 789.927 873.778 789.436 876.884 789.436ZM876.884 824.519C881.105 824.519 884.185 823.417 886.123 821.214C888.061 819.01 889.029 815.214 889.029 809.825C889.029 804.436 888.061 800.639 886.123 798.436C884.185 796.233 881.105 795.131 876.884 795.131C872.61 795.131 869.504 796.233 867.566 798.436C865.628 800.613 864.659 804.409 864.659 809.825C864.659 815.241 865.628 819.05 867.566 821.254C869.504 823.43 872.61 824.519 876.884 824.519Z" fill="#2C2A2A"/>
<path d="M925.045 789.436C937.337 789.436 943.483 796.233 943.483 809.825C943.483 812.957 943.151 815.718 942.487 818.108C941.85 820.497 940.815 822.621 939.381 824.479C937.948 826.337 935.97 827.758 933.448 828.74C930.926 829.722 927.913 830.213 924.408 830.213C920.904 830.213 917.904 829.643 915.409 828.501C912.913 827.36 910.935 825.687 909.475 823.484C908.015 821.28 906.953 818.732 906.29 815.838C905.653 812.944 905.334 809.586 905.334 805.763V796.365C905.334 794.003 905.493 791.852 905.812 789.914C906.157 787.95 906.794 785.998 907.723 784.06C908.652 782.123 909.874 780.503 911.387 779.202C912.9 777.875 914.931 776.8 917.479 775.977C920.055 775.154 923.041 774.742 926.439 774.742C928.404 774.742 929.851 774.729 930.78 774.702C931.709 774.649 932.864 774.503 934.244 774.264C935.625 774.026 937.072 773.641 938.585 773.11V778.685C937.443 779.242 936.169 779.667 934.762 779.959C933.355 780.224 932.134 780.384 931.098 780.437C930.063 780.463 928.51 780.477 926.439 780.477C923.386 780.477 920.851 780.808 918.833 781.472C916.816 782.109 915.236 783.131 914.095 784.538C912.98 785.919 912.196 787.538 911.745 789.397C911.294 791.255 911.055 793.578 911.028 796.365C912.223 794.215 914.095 792.529 916.643 791.308C919.218 790.06 922.019 789.436 925.045 789.436ZM924.408 824.519C926.134 824.519 927.634 824.413 928.908 824.2C930.182 823.961 931.404 823.523 932.572 822.886C933.74 822.249 934.682 821.4 935.399 820.338C936.142 819.249 936.726 817.829 937.151 816.077C937.576 814.325 937.788 812.241 937.788 809.825C937.788 806.825 937.483 804.33 936.872 802.338C936.262 800.347 935.319 798.847 934.045 797.839C932.797 796.803 931.417 796.1 929.904 795.728C928.417 795.33 926.585 795.131 924.408 795.131C915.488 795.131 911.028 799.763 911.028 809.028C911.028 814.179 912.223 818.055 914.612 820.656C917.002 823.231 920.267 824.519 924.408 824.519Z" fill="#2C2A2A"/>
<path d="M987.025 824.599C983.574 828.342 978.808 830.213 972.729 830.213C966.65 830.213 961.871 828.342 958.393 824.599C954.942 820.855 953.217 815.931 953.217 809.825C953.217 803.719 954.942 798.794 958.393 795.051C961.871 791.308 966.65 789.436 972.729 789.436C978.808 789.436 983.574 791.308 987.025 795.051C990.476 798.794 992.202 803.719 992.202 809.825C992.202 815.931 990.476 820.855 987.025 824.599ZM962.256 820.935C964.46 823.324 967.951 824.519 972.729 824.519C977.508 824.519 980.999 823.324 983.202 820.935C985.406 818.519 986.507 814.816 986.507 809.825C986.507 804.834 985.406 801.144 983.202 798.755C980.999 796.339 977.508 795.131 972.729 795.131C967.951 795.131 964.46 796.339 962.256 798.755C960.053 801.144 958.951 804.834 958.951 809.825C958.951 814.816 960.053 818.519 962.256 820.935Z" fill="#2C2A2A"/>
<path d="M1019.93 781.273C1018.29 781.273 1016.82 781.087 1015.51 780.715C1014.24 780.344 1013.06 779.72 1011.97 778.844C1010.88 777.968 1010.03 776.707 1009.42 775.061C1008.84 773.415 1008.55 771.411 1008.55 769.048H1013.44C1013.44 770.614 1013.62 771.915 1013.96 772.95C1014.31 773.959 1014.81 774.702 1015.47 775.18C1016.14 775.658 1016.8 775.977 1017.47 776.136C1018.16 776.295 1018.98 776.375 1019.93 776.375C1020.92 776.375 1021.74 776.295 1022.4 776.136C1023.09 775.977 1023.77 775.658 1024.43 775.18C1025.12 774.702 1025.63 773.959 1025.95 772.95C1026.29 771.915 1026.47 770.614 1026.47 769.048H1031.36C1031.36 777.198 1027.55 781.273 1019.93 781.273ZM1031.36 789.436H1037.1V830.213H1031.36V801.024H1030.05L1009.34 830.213H1003.65V789.436H1009.34V818.546H1010.66L1031.36 789.436Z" fill="#2C2A2A"/>
<path d="M1085.12 824.678C1081.93 820.962 1080.34 816.01 1080.34 809.825C1080.34 803.639 1081.93 798.701 1085.12 795.011C1088.3 791.295 1092.86 789.436 1098.78 789.436C1103.77 789.436 1107.82 790.896 1110.92 793.817C1114.03 796.737 1115.58 800.44 1115.58 804.927H1109.89C1109.73 801.821 1108.68 799.418 1106.74 797.719C1104.8 795.994 1102.2 795.131 1098.94 795.131C1096.94 795.131 1095.21 795.356 1093.72 795.808C1092.26 796.259 1090.93 797.016 1089.74 798.078C1088.54 799.139 1087.63 800.653 1086.99 802.617C1086.38 804.582 1086.07 806.984 1086.07 809.825C1086.07 812.639 1086.38 815.028 1086.99 816.993C1087.63 818.957 1088.54 820.484 1089.74 821.572C1090.93 822.634 1092.26 823.391 1093.72 823.842C1095.21 824.293 1096.94 824.519 1098.94 824.519C1102.2 824.519 1104.8 823.669 1106.74 821.97C1108.68 820.245 1109.73 817.829 1109.89 814.723H1115.58C1115.58 819.209 1114.03 822.913 1110.92 825.833C1107.82 828.753 1103.77 830.213 1098.78 830.213C1092.86 830.213 1088.3 828.368 1085.12 824.678Z" fill="#2C2A2A"/>
<path d="M1154.74 789.436H1160.48V830.213H1154.74V801.024H1153.43L1132.72 830.213H1127.03V789.436H1132.72V818.546H1134.04L1154.74 789.436Z" fill="#2C2A2A"/>
<path d="M1204.34 789.436V795.131H1189.72V830.213H1184.03V795.131H1169.41V789.436H1204.34Z" fill="#2C2A2A"/>
<path d="M1244.14 789.436H1249.83V843.275H1219.25V837.54H1244.14V820.816C1242.94 822.727 1241.19 824.227 1238.88 825.315C1236.6 826.404 1234.1 826.948 1231.39 826.948C1219.87 826.948 1214.11 820.696 1214.11 808.192V789.436H1219.81V808.192C1219.81 812.785 1220.71 816.117 1222.51 818.187C1224.32 820.231 1227.46 821.254 1231.95 821.254C1236.36 821.254 1239.49 820.152 1241.35 817.948C1243.21 815.745 1244.14 812.493 1244.14 808.192V789.436Z" fill="#2C2A2A"/>
<path d="M1293.69 824.519H1299.39V830.213H1288V824.917C1286.91 826.483 1285.3 827.758 1283.18 828.74C1281.08 829.722 1278.57 830.213 1275.65 830.213C1272.31 830.213 1269.47 829.576 1267.13 828.302C1264.79 827.001 1263.08 825.315 1261.99 823.245C1260.93 821.147 1260.4 818.771 1260.4 816.117C1260.4 812.028 1261.7 808.67 1264.3 806.042C1266.93 803.387 1270.72 802.06 1275.65 802.06C1278.57 802.06 1281.08 802.551 1283.18 803.533C1285.3 804.515 1286.91 805.803 1288 807.396V795.131H1265.54V789.436H1293.69V824.519ZM1276.89 824.519C1284.29 824.519 1288 821.718 1288 816.117C1288 813.276 1287.03 811.179 1285.09 809.825C1283.15 808.471 1280.42 807.794 1276.89 807.794C1269.72 807.794 1266.14 810.568 1266.14 816.117C1266.14 821.718 1269.72 824.519 1276.89 824.519Z" fill="#2C2A2A"/>
<path d="M1354.8 824.519V843.275H1349.1V830.213H1309.96V789.436H1315.65V824.519H1340.14V789.436H1345.84V824.519H1354.8Z" fill="#2C2A2A"/>
<path d="M1391.89 789.436H1397.62V830.213H1391.89V801.024H1390.57L1369.87 830.213H1364.17V789.436H1369.87V818.546H1371.18L1391.89 789.436Z" fill="#2C2A2A"/>
<path d="M1437.58 789.436H1443.31V830.213H1437.58V801.024H1436.26L1415.56 830.213H1409.86V789.436H1415.56V818.546H1416.87L1437.58 789.436Z" fill="#2C2A2A"/>
<path d="M271.873 786.338L286.31 810.146L300.019 834.795L304.794 832.172L290.163 808.029L276.648 783.715L271.873 786.338Z" fill="#0000FF"/>
<path d="M304.556 786.919L290.461 810.261L277.104 834.468L272.29 831.688L286.576 808.018L299.742 784.14L304.556 786.919Z" fill="#0000FF"/>
<path d="M316.476 812.086L288.639 811.488L260.437 811.94L260.321 806.493L288.545 807.093L316.359 806.64L316.476 812.086Z" fill="#0000FF"/>
<path fill-rule="evenodd" clip-rule="evenodd" d="M1527.05 250.085L1507.12 261.592L1482.09 218.232L1457.05 261.592L1437.12 250.085L1462.17 206.705H1412V183.691L1462.15 183.691L1437.12 140.349L1457.05 128.842L1482.09 172.204L1507.12 128.842L1527.05 140.349L1502.03 183.691L1552 183.691V206.705H1502.01L1527.05 250.085Z" fill="#0000FF"/>
</svg>
