<?xml version="1.0" encoding="UTF-8"?> <!-- Generator: Adobe Illustrator 23.0.4, SVG Export Plug-In . SVG Version: 6.00 Build 0) --> <svg xmlns="http://www.w3.org/2000/svg" xmlns:xlink="http://www.w3.org/1999/xlink" id="Слой_1" x="0px" y="0px" viewBox="0 0 280.6 84.4" style="enable-background:new 0 0 280.6 84.4;" xml:space="preserve"> <style type="text/css"> .st0{fill:#FFFFFF;} .st1{clip-path:url(#SVGID_2_);fill:url(#SVGID_3_);} .st2{clip-path:url(#SVGID_5_);fill:url(#SVGID_6_);} </style> <polygon class="st0" points="184.1,64.1 176.6,64.1 176.6,45.3 156.3,45.3 156.3,64.1 148.8,64.1 148.8,21.5 156.3,21.5 156.3,39.1 176.6,39.1 176.6,21.5 184.1,21.5 "></polygon> <polygon class="st0" points="199.7,29.6 199.7,64.1 192.5,64.1 192.5,21.5 204,21.5 214.4,55.4 224.7,21.5 236.2,21.5 236.2,64.1 228.9,64.1 228.9,29.6 218.1,64.1 210.6,64.1 "></polygon> <g> <path class="st0" d="M262.2,64.8c-12.5,0-19.7-8.9-19.7-22.2c0-13.4,7.7-21.9,20-21.9c9.5,0,16.2,5.4,17.9,14.9h-7.2 c-1.3-5.8-5.5-8.8-11-8.8c-6.8,0-12.1,5.5-12.1,15.8c0,10.3,5.2,16.1,12,16.1c5.8,0,9.9-3,11.2-8.8h7.2 C278.8,59.4,272,64.8,262.2,64.8"></path> </g> <g> <defs> <path id="SVGID_1_" d="M3.2,37c0,0.1,0.1,0.2,0.1,0.4C6.4,47.9,37.1,30,51.2,21.1c-3.7-2.4-11.4-7.4-20.6-7.4 C15.7,13.7,0.9,27.4,3.2,37"></path> </defs> <clipPath id="SVGID_2_"> <use xlink:href="#SVGID_1_" style="overflow:visible;"></use> </clipPath> <linearGradient id="SVGID_3_" gradientUnits="userSpaceOnUse" x1="-288.0341" y1="347.1802" x2="-287.0341" y2="347.1802" gradientTransform="matrix(-106.988 2.966 2.966 106.988 -31774.3242 -36260.2305)"> <stop offset="0" style="stop-color:#F4DADC"></stop> <stop offset="0.1378" style="stop-color:#EAB4B7"></stop> <stop offset="0.211" style="stop-color:#E39590"></stop> <stop offset="0.339" style="stop-color:#DA6E66"></stop> <stop offset="0.4317" style="stop-color:#D55954"></stop> <stop offset="0.4789" style="stop-color:#D3504D"></stop> <stop offset="0.5097" style="stop-color:#D04F4A"></stop> <stop offset="0.5596" style="stop-color:#CD4D46"></stop> <stop offset="0.6158" style="stop-color:#CC4C44"></stop> <stop offset="0.6906" style="stop-color:#CB4C44"></stop> <stop offset="1" style="stop-color:#CB4C44"></stop> </linearGradient> <polygon class="st1" points="52.2,47.9 1,49.3 0,13.7 51.2,12.3 "></polygon> </g> <g> <defs> <path id="SVGID_4_" d="M57,17.5c-1.7,1-3.2,2-4.8,2.9c-0.3,0.2-0.7,0.4-1.1,0.7l0.1,0.1c0,0-0.1-0.1-0.1-0.1 C37.1,30,6.4,47.9,3.3,37.3c0.7,2.5,1.6,5,2.6,7.4C15,66.4,36.4,81.6,61.4,81.6c30.3,0,55.3-22.3,59.7-51.3 C122.2,17.9,115,4.9,100.5,3c-1.2-0.2-2.3-0.2-3.6-0.2C84.6,2.8,69.2,10.3,57,17.5"></path> </defs> <clipPath id="SVGID_5_"> <use xlink:href="#SVGID_4_" style="overflow:visible;"></use> </clipPath> <linearGradient id="SVGID_6_" gradientUnits="userSpaceOnUse" x1="-288.045" y1="347.0013" x2="-287.045" y2="347.0013" gradientTransform="matrix(125.091 -2.9318 -2.9318 -125.091 37034.0938 42606.2461)"> <stop offset="0" style="stop-color:#D6D6DB"></stop> <stop offset="0.3235" style="stop-color:#DCDCE0"></stop> <stop offset="0.7626" style="stop-color:#EEEEF0"></stop> <stop offset="1" style="stop-color:#FFFFFF"></stop> </linearGradient> <polygon class="st2" points="1.4,2.8 122.1,0 124,81.5 3.3,84.4 "></polygon> </g> </svg> 