<?xml version="1.0" encoding="UTF-8" standalone="no"?>
<!-- Created with Inkscape (http://www.inkscape.org/) -->

<svg
   version="1.1"
   id="svg2"
   width="994.66669"
   height="284"
   viewBox="0 0 994.66669 284"
   sodipodi:docname="reso_.eps"
   xmlns:inkscape="http://www.inkscape.org/namespaces/inkscape"
   xmlns:sodipodi="http://sodipodi.sourceforge.net/DTD/sodipodi-0.dtd"
   xmlns="http://www.w3.org/2000/svg"
   xmlns:svg="http://www.w3.org/2000/svg">
  <defs
     id="defs6" />
  <sodipodi:namedview
     id="namedview4"
     pagecolor="#ffffff"
     bordercolor="#000000"
     borderopacity="0.25"
     inkscape:showpageshadow="2"
     inkscape:pageopacity="0.0"
     inkscape:pagecheckerboard="0"
     inkscape:deskcolor="#d1d1d1" />
  <g
     id="g8"
     inkscape:groupmode="layer"
     inkscape:label="ink_ext_XXXXXX"
     transform="matrix(1.3333333,0,0,-1.3333333,0,284)">
    <g
       id="g10"
       transform="scale(0.1)">
      <path
         d="m 2704.11,1376.58 v 487.58 h 146.05 c 184.25,0 267.39,-105.61 267.39,-235.93 0,-119.09 -74.15,-251.65 -267.39,-251.65 z m -319.06,734.74 V 538.48 h 319.06 v 590.93 h 204.48 c 402.2,0 545.99,283.12 545.99,489.84 0,98.86 -33.7,492.07 -604.42,492.07 h -465.11"
         style="fill:#007a38;fill-opacity:1;fill-rule:evenodd;stroke:none"
         id="path12" />
      <path
         d="m 4519.61,2111.32 v -278.61 h -620.16 v -355.02 h 563.99 V 1219.3 H 3899.45 V 817.094 h 620.16 V 538.48 H 3580.4 v 1572.84 h 939.21"
         style="fill:#007a38;fill-opacity:1;fill-rule:evenodd;stroke:none"
         id="path14" />
      <path
         d="m 5836.29,587.914 c -139.31,-47.191 -280.87,-67.41 -406.7,-67.41 -390.96,0 -817.88,222.445 -817.88,795.406 0,541.51 381.98,813.39 876.31,813.39 123.57,0 229.18,-15.73 348.27,-53.93 l -13.49,-269.63 c -92.12,35.95 -193.23,58.42 -312.32,58.42 -352.77,0 -561.73,-222.45 -561.73,-543.75 0,-379.734 256.15,-534.773 539.27,-534.773 139.3,0 249.39,33.707 328.05,69.656 l 20.22,-267.379"
         style="fill:#007a38;fill-opacity:1;fill-rule:evenodd;stroke:none"
         id="path16" />
      <path
         d="m 6679.8,1904.61 c 119.08,0 433.65,-47.19 433.65,-579.72 0,-532.507 -314.57,-579.695 -433.65,-579.695 -119.09,0 -433.66,47.188 -433.66,579.695 0,532.53 314.57,579.72 433.66,579.72 z m 0,224.69 c -388.72,0 -770.69,-233.68 -770.69,-804.41 0,-570.706 381.97,-804.386 770.69,-804.386 388.71,0 770.7,233.68 770.7,804.386 0,570.73 -381.99,804.41 -770.7,804.41"
         style="fill:#007a38;fill-opacity:1;fill-rule:evenodd;stroke:none"
         id="path18" />
      <path
         d="M 2565.51,308.949 V 255.922 H 2443.06 V 9.60156 h -60.38 V 308.949 h 182.83"
         style="fill:#007a38;fill-opacity:1;fill-rule:evenodd;stroke:none"
         id="path20" />
      <path
         d="m 3081.68,126.348 41.24,122.308 h 0.85 l 43.8,-122.308 z m 9.77,182.601 L 2972.83,9.60156 h 64.62 l 25.09,67.14454 h 122.88 l 25.09,-67.14454 h 68.03 L 3160.33,308.949 h -68.88"
         style="fill:#007a38;fill-opacity:1;fill-rule:evenodd;stroke:none"
         id="path22" />
      <path
         d="m 3771.74,169.113 v 92.793 h 27.64 c 34.86,0 50.59,-20.097 50.59,-44.898 0,-22.668 -14.03,-47.895 -50.59,-47.895 z m -60.38,139.836 V 9.60156 h 60.38 V 122.074 h 38.69 c 76.11,0 103.33,53.879 103.33,93.223 0,18.82 -6.38,93.652 -114.38,93.652 h -88.02"
         style="fill:#007a38;fill-opacity:1;fill-rule:evenodd;stroke:none"
         id="path24" />
      <path
         d="m 4442.67,126.348 41.24,122.308 h 0.86 l 43.79,-122.308 z m 9.78,182.601 L 4333.82,9.60156 h 64.63 l 25.09,67.14454 h 122.87 L 4571.5,9.60156 h 68.04 L 4521.34,308.949 h -68.89"
         style="fill:#007a38;fill-opacity:1;fill-rule:evenodd;stroke:none"
         id="path26" />
      <path
         d="M 5132.73,308.949 V 188.355 h 120.76 v 120.594 h 60.37 V 9.60156 h -60.37 V 139.176 H 5132.73 V 9.60156 h -60.37 V 308.949 h 60.37"
         style="fill:#007a38;fill-opacity:1;fill-rule:evenodd;stroke:none"
         id="path28" />
      <path
         d="m 5978.85,308.949 v -53.027 h -85.89 V 9.60156 h -60.37 V 255.922 h -85.89 v 53.027 h 232.15"
         style="fill:#007a38;fill-opacity:1;fill-rule:evenodd;stroke:none"
         id="path30" />
      <path
         d="M 6472.05,308.949 V 155 l -1.27,-72.7031 h 1.27 l 21.26,43.6251 104.17,183.027 h 72.29 V 9.60156 h -60.38 V 163.977 l 1.27,72.273 h -1.27 L 6588.98,190.926 6483.96,9.60156 h -72.29 V 308.949 h 60.38"
         style="fill:#007a38;fill-opacity:1;fill-rule:evenodd;stroke:none"
         id="path32" />
      <path
         d="m 7277.35,167.832 h -34.03 c -7.65,0 -56.11,0.422 -56.11,47.035 0,16.254 6.37,47.039 55.69,47.039 h 34.45 z m 60.37,141.117 h -96.52 c -20.83,0 -117.78,1.285 -117.78,-92.367 0,-55.598 35.3,-76.551 58.69,-83.82 L 7111.1,9.60156 h 72.27 L 7241.2,120.785 h 36.15 V 9.60156 h 60.37 V 308.949"
         style="fill:#007a38;fill-opacity:1;fill-rule:evenodd;stroke:none"
         id="path34" />
      <path
         d="m 1162.21,1064.28 v 760.11 c -139.1,-30.91 -254.323,-83.67 -347.214,-156.82 -118.34,-93.2 -202.887,-221.44 -256.746,-381.36 l -214.02,71.64 c 68.176,202.44 177.141,366.29 331.036,487.49 152.543,120.13 346.874,196.51 586.894,225 l 126.47,15 V 1064.28 h -226.42"
         style="fill:#007a38;fill-opacity:1;fill-rule:nonzero;stroke:none"
         id="path36" />
      <path
         d="M 1014.14,1192.27 H 263.207 C 294.117,1053.14 346.875,937.953 420.035,845.051 513.254,726.703 641.469,642.164 801.402,588.301 L 729.762,374.277 C 527.313,442.465 363.473,551.43 242.266,705.324 122.133,857.867 45.75,1052.2 17.2656,1292.21 L 2.25781,1418.69 H 1014.14 v -226.42"
         style="fill:#007a38;fill-opacity:1;fill-rule:nonzero;stroke:none"
         id="path38" />
      <path
         d="M 895.34,1043.17 V 293.219 c 139.13,30.91 254.32,83.711 347.21,156.875 118.36,93.199 202.88,221.433 256.75,381.355 l 214.02,-71.64 C 1645.14,557.371 1536.19,393.523 1382.29,272.32 1229.74,152.188 1035.41,75.8047 795.398,47.3203 L 668.922,32.3047 V 1043.17 H 895.34"
         style="fill:#007a38;fill-opacity:1;fill-rule:nonzero;stroke:none"
         id="path40" />
      <path
         d="m 1050.66,925.391 h 743.72 c -30.91,139.099 -83.71,254.319 -156.86,347.219 -93.21,118.34 -221.45,202.88 -381.37,256.75 l 71.64,214.02 c 202.44,-68.18 366.29,-177.13 487.5,-331.04 120.13,-152.55 196.51,-346.89 225,-586.891 l 15.01,-126.48 H 1050.66 v 226.422"
         style="fill:#007a38;fill-opacity:1;fill-rule:nonzero;stroke:none"
         id="path42" />
    </g>
  </g>
</svg>
