<?xml version="1.0" encoding="UTF-8" standalone="no"?>
<!-- Created with Inkscape (http://www.inkscape.org/) -->

<svg
   version="1.1"
   id="svg2"
   width="238.66667"
   height="20"
   viewBox="0 0 238.66667 20"
   sodipodi:docname="renaissance_insurance.eps"
   xmlns:inkscape="http://www.inkscape.org/namespaces/inkscape"
   xmlns:sodipodi="http://sodipodi.sourceforge.net/DTD/sodipodi-0.dtd"
   xmlns="http://www.w3.org/2000/svg"
   xmlns:svg="http://www.w3.org/2000/svg">
  <defs
     id="defs6" />
  <sodipodi:namedview
     id="namedview4"
     pagecolor="#ffffff"
     bordercolor="#000000"
     borderopacity="0.25"
     inkscape:showpageshadow="2"
     inkscape:pageopacity="0.0"
     inkscape:pagecheckerboard="0"
     inkscape:deskcolor="#d1d1d1" />
  <g
     id="g8"
     inkscape:groupmode="layer"
     inkscape:label="ink_ext_XXXXXX"
     transform="matrix(1.3333333,0,0,-1.3333333,0,20)">
    <g
       id="g10"
       transform="scale(0.1)">
      <path
         d="m 979.898,2.76953 c -5.32,-0.03906 -10.55,0.94141 -15.507,2.85156 -4.813,1.83985 -9.145,4.60941 -12.852,8.16801 -15.98,15.8203 -16.184,41.6015 -0.359,57.6054 l 0.359,0.3946 c 3.707,3.5586 8.039,6.3711 12.852,8.25 5,1.9101 10.308,2.8906 15.66,2.8515 6.758,0.0391 13.398,-1.5351 19.418,-4.5312 2.541,-1.1797 4.881,-2.7813 6.991,-4.6485 1.76,-1.5625 3.28,-3.4023 4.49,-5.4726 l -3.16,-9.3789 c -1.37,1.8789 -2.97,3.5586 -4.77,5.039 -1.99,1.6407 -4.102,3.0508 -6.411,4.1797 -2.339,1.293 -4.879,2.2305 -7.5,2.8516 -2.691,0.7109 -5.5,1.0586 -8.32,1.0586 -4.289,0.0781 -8.59,-0.6289 -12.648,-2.0274 -3.672,-1.2109 -6.993,-3.2109 -9.852,-5.8203 -2.691,-2.582 -4.84,-5.7109 -6.281,-9.1797 -1.528,-3.832 -2.27,-7.9726 -2.188,-12.1523 -0.043,-4.1797 0.739,-8.3203 2.254,-12.2305 1.414,-3.4687 3.567,-6.5976 6.375,-9.1406 2.891,-2.5391 6.211,-4.4492 9.84,-5.6992 4.07,-1.4102 8.359,-2.0703 12.66,-2.0274 5.821,-0.1211 11.559,1.2071 16.719,3.8282 4.372,2.1093 8.162,5.2695 11.052,9.1797 l 2.97,-9.2579 C 1003.72,8.23828 992.117,2.89063 979.898,2.76953"
         style="fill:#50287d;fill-opacity:1;fill-rule:nonzero;stroke:none"
         id="path12" />
      <path
         d="M 1083.49,81.5195 V 70.8594 H 1057.4 V 4.48828 h -10.08 V 70.9297 h -26.41 v 10.5898 h 62.66 -0.08"
         style="fill:#50287d;fill-opacity:1;fill-rule:nonzero;stroke:none"
         id="path14" />
      <path
         d="m 1147.24,57.9688 c 0.04,-3.211 -0.59,-6.4102 -1.8,-9.379 -1.13,-2.7695 -2.77,-5.3515 -4.88,-7.5 -2.11,-2.1093 -4.69,-3.75 -7.5,-4.8007 -3.16,-1.1016 -6.48,-1.6797 -9.84,-1.6407 h -14.18 V 4.64844 H 1099 V 81.5195 h 24.22 c 13.24,0.3516 24.1,-10.3086 24.02,-23.5507 z m -10.51,0 c 0.04,1.6796 -0.31,3.3515 -0.97,4.8789 -0.59,1.4804 -1.49,2.8125 -2.54,3.9804 -1.1,1.1407 -2.43,2.0313 -3.83,2.6992 -1.53,0.7032 -3.21,1.0938 -4.88,1.1329 h -15.83 V 45.2305 h 15.83 c 7.1,-0.5157 13,5.4687 12.38,12.5781 l -0.16,0.1602"
         style="fill:#50287d;fill-opacity:1;fill-rule:nonzero;stroke:none"
         id="path16" />
      <path
         d="m 1168.1,22.418 -7.5,-18.00784 h -10.9 l 32.19,77.10934 h 11.17 l 31.72,-77.10934 h -10.86 l -7.5,18.00784 z m 33.75,10.6601 -15,35.5508 -15,-35.5508 z"
         style="fill:#50287d;fill-opacity:1;fill-rule:nonzero;stroke:none"
         id="path18" />
      <path
         d="m 1231.61,4.48828 27.39,39.92192 -25.9,37.5 h 12.69 l 19.34,-27.9297 19.57,27.6992 h 12.62 l -25.9,-37.5 27.69,-39.89064 h -12.22 L 1265.52,34.2891 1244.51,4.28906 h -12.82 l -0.08,0.19922"
         style="fill:#50287d;fill-opacity:1;fill-rule:nonzero;stroke:none"
         id="path20" />
      <path
         d="m 1347.63,3 c -5.39,-0.07031 -10.7,0.98047 -15.66,3.00781 -4.85,1.96094 -9.26,4.76949 -13.05,8.32029 -3.87,3.5625 -6.91,7.8516 -9.02,12.6602 -4.34,10.2656 -4.34,21.9101 0,32.1914 2.11,4.8008 5.15,9.0976 9.02,12.6484 3.79,3.4805 8.2,6.25 12.97,8.211 10.15,3.9804 21.4,3.9804 31.56,0 4.96,-1.918 9.49,-4.7305 13.44,-8.25 3.83,-3.5899 6.87,-7.8907 8.98,-12.6914 2.19,-5.0782 3.28,-10.5469 3.24,-16.0586 C 1388.53,20.6211 1370.05,2.76953 1347.63,3 Z m 30.74,39.7305 c 0.04,3.9492 -0.82,7.8476 -2.46,11.4101 -3.16,7.1094 -9.06,12.6485 -16.37,15.3867 -7.89,3.0118 -16.6,3.0118 -24.53,0 -7.26,-2.7773 -13.12,-8.3593 -16.25,-15.5468 -3.16,-7.1524 -3.16,-15.3125 0,-22.5 3.17,-7.1094 9.07,-12.6602 16.33,-15.3516 7.93,-3.0078 16.64,-3.0078 24.53,0 7.27,2.7305 13.13,8.2813 16.29,15.3516 1.64,3.5898 2.5,7.5 2.46,11.4101 v -0.1601"
         style="fill:#50287d;fill-opacity:1;fill-rule:nonzero;stroke:none"
         id="path22" />
      <path
         d="m 1446.5,45.5781 c 3.04,-1.5976 5.66,-4.0195 7.5,-6.9492 2.15,-3.3984 3.24,-7.3789 3.12,-11.4101 0.08,-3.3594 -0.58,-6.7188 -1.87,-9.8008 -1.14,-2.7696 -2.93,-5.1992 -5.16,-7.1485 -2.19,-1.91012 -4.73,-3.39841 -7.5,-4.33981 -3.08,-1.01172 -6.29,-1.51953 -9.53,-1.51953 h -26.17 V 81.5195 h 22.5 c 3.2,0.0391 6.44,-0.3906 9.53,-1.332 2.73,-0.8594 5.27,-2.2187 7.5,-4.0586 6.68,-6.168 8.63,-15.9414 4.84,-24.2187 -1.13,-2.3829 -2.81,-4.4922 -4.84,-6.1719 z m -12.03,-30 c 1.64,0 3.28,0.2813 4.8,0.8555 1.49,0.5156 2.85,1.375 3.99,2.4648 1.13,1.1016 2.03,2.3907 2.69,3.8321 0.74,1.5195 1.09,3.1679 1.13,4.8789 0,3.0117 -1.25,5.9414 -3.43,8.0117 -2.31,2.3477 -5.47,3.5977 -8.72,3.5195 h -18 V 15.7383 Z m -3.13,34.2227 c 2.97,-0.082 5.86,0.9375 8.17,2.8476 2.26,1.8399 3.55,4.6094 3.51,7.5 0,2.8516 -1.17,5.5899 -3.28,7.5 -2.27,2.1094 -5.23,3.25 -8.32,3.1719 h -14.49 V 49.0586 l 14.41,0.7422"
         style="fill:#50287d;fill-opacity:1;fill-rule:nonzero;stroke:none"
         id="path24" />
      <path
         d="m 1485.99,22.418 -7.5,-18.00784 h -10.86 l 31.72,77.10934 h 11.17 l 31.8,-77.10934 h -10.86 l -7.5,18.00784 h -38.32 z m 33.75,10.6601 -15,35.5508 -15,-35.5508 z"
         style="fill:#50287d;fill-opacity:1;fill-rule:nonzero;stroke:none"
         id="path26" />
      <path
         d="M 1567.59,81.5195 V 49.4883 h 45.9 v 32.0312 h 10.16 V 4.48828 h -10.08 V 38.9805 h -45.98 V 4.48828 h -10.04 V 81.5195 h 10.04"
         style="fill:#50287d;fill-opacity:1;fill-rule:nonzero;stroke:none"
         id="path28" />
      <path
         d="M 1704.54,4.48828 V 65.6211 L 1659.11,4.48828 h -11.32 V 81.5195 h 10.11 v -61.289 l 45.75,61.289 h 10.74 V 4.48828 h -10.04 0.19"
         style="fill:#50287d;fill-opacity:1;fill-rule:nonzero;stroke:none"
         id="path30" />
      <path
         d="M 1782.32,81.5195 V 70.8594 h -33.36 V 49.4883 h 30 V 38.9805 h -30 V 15.1484 h 33.36 V 4.48828 h -43.4 V 81.5195 h 43.4"
         style="fill:#50287d;fill-opacity:1;fill-rule:nonzero;stroke:none"
         id="path32" />
      <path
         d="m 67.1602,79.5703 c 0.039,-4.6094 -0.8594,-9.1797 -2.543,-13.4805 -1.7188,-4.0195 -4.2891,-7.621 -7.5,-10.5117 C 53.918,52.6094 50.2031,50.3086 46.1484,48.75 41.6484,47.0703 36.8906,46.2109 32.0391,46.2891 H 18.5703 V 4.48828 H 1.37891 V 113.629 H 32.2773 c 19.3008,0.859 35.2735,-14.7696 34.8829,-34.0587 z m -48.5899,-15 h 15.8203 c 3.9766,-0.1211 7.8867,1.3594 10.7774,4.1406 2.8125,2.7696 4.3398,6.5977 4.2226,10.5782 0.1172,3.9882 -1.3711,7.8906 -4.1406,10.7773 C 42.4297,93 38.5273,94.6094 34.4688,94.4883 H 18.5703 v -30 0.082"
         style="fill:#50287d;fill-opacity:1;fill-rule:nonzero;stroke:none"
         id="path34" />
      <path
         d="m 182.75,53.0391 h 37.027 V 81.5977 H 236.34 V 4.57031 H 219.777 V 35.3906 H 182.75 V 4.48828 H 166.148 V 81.5195 h 16.602 v -28.5507 0.0703"
         style="fill:#50287d;fill-opacity:1;fill-rule:nonzero;stroke:none"
         id="path36" />
      <path
         d="m 296.066,18.9805 c 9.063,-0.2696 17.774,3.4375 23.832,10.1992 l 4.879,-12.6992 C 317.668,7.73047 307.039,2.56641 295.758,2.41797 290.25,2.25781 284.777,3.19922 279.617,5.10938 274.898,6.75 270.559,9.41016 266.891,12.8086 c -3.75,3.625 -6.684,8.0117 -8.563,12.8516 -2.07,5.3476 -3.121,11.0898 -3.078,16.8789 0,5.2695 0.93,10.5351 2.77,15.5 1.718,4.7304 4.257,9.1093 7.5,12.8906 3.359,3.8281 7.5,6.918 12.148,9.0312 5.039,2.1875 10.512,3.2774 15.98,3.1993 10.27,0.1992 20.11,-4.1407 26.95,-11.8399 3.32,-3.7109 5.859,-8.043 7.5,-12.7305 1.601,-4.8398 2.461,-9.9218 2.461,-15 0,-2.0312 -0.161,-4.0625 -0.469,-6.0898 h -58.051 c 2.231,-11.332 12.5,-19.2617 24.027,-18.5195 z m -3.086,46.7968 c -9.691,0.7032 -18.472,-5.6289 -20.941,-15 h 41.801 c -2.539,9.293 -11.25,15.5821 -20.86,15"
         style="fill:#50287d;fill-opacity:1;fill-rule:nonzero;stroke:none"
         id="path38" />
      <path
         d="m 113.719,18.9805 c 9.07,-0.2696 17.781,3.4804 23.871,10.1992 l 4.879,-12.6992 C 135.328,7.73047 124.699,2.56641 113.41,2.41797 107.938,2.25781 102.469,3.19922 97.3203,5.10938 92.4688,6.82813 88.0977,9.57031 84.3906,13.1211 c -3.7109,3.5977 -6.6015,7.9687 -8.4804,12.8086 -2.0704,5.3906 -3.1211,11.1406 -3.0508,16.8789 -0.0313,5.3125 0.8594,10.5898 2.6992,15.5508 1.6797,4.7187 4.2187,9.0586 7.5,12.8906 3.3594,3.8203 7.5,6.9102 12.1445,8.9805 5.0469,2.2304 10.4769,3.3203 15.9769,3.2383 10.277,0.1601 20.121,-4.1797 26.918,-11.8282 3.32,-3.7109 5.859,-8.0508 7.5,-12.7812 1.679,-4.8008 2.543,-9.8789 2.543,-15 0.039,-2.0313 -0.121,-4.0586 -0.434,-6.0508 H 89.7383 C 91.8086,26.3594 102.117,18.2383 113.719,18.9805 Z m -3.078,46.7968 c -9.653,0.7032 -18.4808,-5.6289 -20.9027,-15 h 42.1527 c -2.543,9.4102 -11.411,15.7422 -21.172,15 h -0.078"
         style="fill:#50287d;fill-opacity:1;fill-rule:nonzero;stroke:none"
         id="path40" />
      <path
         d="m 466.07,2.25781 c -53.996,0 -53.996,80.98049 0,80.98049 10.938,0.3125 21.399,-4.5274 28.278,-13.0508 l -4.571,-13.707 c -5.898,5.3476 -13.359,8.5586 -21.289,9.1406 -13.437,1.25 -25.16,-9.0234 -25.66,-22.5 -0.121,-6.3711 2.652,-12.4609 7.5,-16.5625 5.192,-4.4102 11.871,-6.7188 18.672,-6.3711 8.359,0.1211 16.355,3.2813 22.5,8.9102 l 4.879,-13.7071 C 488.609,6.87109 477.59,2.10938 466.07,2.25781"
         style="fill:#50287d;fill-opacity:1;fill-rule:nonzero;stroke:none"
         id="path42" />
      <path
         d="m 383.41,2.25781 c -53.98,0 -53.98,80.98049 0,80.98049 10.981,0.3125 21.41,-4.5274 28.278,-13.0508 l -4.571,-13.707 c -5.859,5.3476 -13.359,8.5586 -21.289,9.1406 -13.43,1.25 -25.148,-9.0234 -25.66,-22.5 -0.078,-6.3711 2.66,-12.4609 7.5,-16.5625 5.191,-4.4102 11.871,-6.7188 18.672,-6.3711 8.359,0.1211 16.367,3.2813 22.5,8.9102 l 4.879,-13.7071 C 405.988,6.87109 394.93,2.10938 383.41,2.25781"
         style="fill:#50287d;fill-opacity:1;fill-rule:nonzero;stroke:none"
         id="path44" />
      <path
         d="m 737.117,2.25781 c -53.976,0 -53.976,80.98049 0,80.98049 10.942,0.3125 21.41,-4.5274 28.281,-13.0508 l -4.57,-13.707 c -5.93,5.3476 -13.469,8.5195 -21.437,9.0586 -13.442,1.25 -25.161,-9.0196 -25.672,-22.5 -0.11,-6.3594 2.66,-12.461 7.5,-16.5586 5.199,-4.4102 11.879,-6.7227 18.679,-6.3711 8.36,0.1211 16.36,3.289 22.5,8.9101 l 4.879,-13.7109 C 759.539,6.87109 748.566,2.14844 737.117,2.25781"
         style="fill:#50287d;fill-opacity:1;fill-rule:nonzero;stroke:none"
         id="path46" />
      <path
         d="M 570.559,4.48828 V 12.5391 C 564.539,6.05078 556.148,2.33984 547.32,2.33984 524.969,2.02734 506.969,20.4688 507.789,42.7305 c -1.961,22.3086 15.93,41.3281 38.32,40.7383 9.02,-0.0704 17.649,-3.5899 24.141,-9.8008 v 7.5 h 16.051 V 4.48828 Z M 524.188,42.8086 c 0.203,-13.0508 11.292,-23.2813 24.3,-22.5 8.2,-0.3477 16.09,3.0117 21.481,9.1797 v 27.2305 c -5.5,5.9687 -13.36,9.289 -21.481,9.0585 -13.281,1.0508 -24.609,-9.6093 -24.3,-22.9687"
         style="fill:#50287d;fill-opacity:1;fill-rule:nonzero;stroke:none"
         id="path48" />
      <path
         d="m 626.891,53.0391 h 37.5 v 28.5586 h 16.558 V 4.57031 H 664.391 V 35.3906 h -37.5 V 4.48828 H 610.289 V 81.5195 h 16.602 v -28.5507 0.0703"
         style="fill:#50287d;fill-opacity:1;fill-rule:nonzero;stroke:none"
         id="path50" />
      <path
         d="m 783.41,4.48828 h 21.207 V 25.7383 H 783.41 V 4.48828"
         style="fill:#50287d;fill-opacity:1;fill-rule:nonzero;stroke:none"
         id="path52" />
      <path
         d="M 841.969,35.3906 783.41,144.449 h 117.149 z"
         style="fill:#d0df00;fill-opacity:1;fill-rule:nonzero;stroke:none"
         id="path54" />
    </g>
  </g>
</svg>
