<svg xmlns="http://www.w3.org/2000/svg" viewBox="0 0 212.73 36.59"><defs><style>.cls-1{fill:#fff;}</style></defs><g id="Layer_2" data-name="Layer 2"><g id="Layer_1-2" data-name="Layer 1"><path class="cls-1" d="M18.28,36V13.59h4.55v8.83h9V13.59h4.55V36H31.83V26.75h-9V36ZM39.54,13.59H53.29v4.33H44.08v4.39h7.43v4.33H44.09v5h9.2V36H39.54Zm22.21,4.33h-1v6.7h.45c2.15,0,4.47-.88,4.47-3.38h0c0-2.2-1.88-3.32-3.89-3.32ZM56.18,36V13.59h5.57c4.52,0,8.43,2.89,8.43,7.68h0C70.18,26.15,66,29,61.51,29h-.79v7ZM77.05,17.92V36H72.51V13.59H84.08v4.33ZM88.4,24.83h0a7.39,7.39,0,0,0,7.4,7.42h0a7.37,7.37,0,0,0,5.25-2.19,7.45,7.45,0,0,0,2.15-5.23h0a7.63,7.63,0,0,0-2-5.19,7.22,7.22,0,0,0-5.36-2.29h0a7.24,7.24,0,0,0-5.37,2.29,7.67,7.67,0,0,0-2,5.19m-4.54,0h0a11.38,11.38,0,0,1,3.83-8.64A12.4,12.4,0,0,1,95.8,13h0a12.4,12.4,0,0,1,8.11,3.13,11.38,11.38,0,0,1,3.83,8.64h0a11.51,11.51,0,0,1-3.66,8.48,12.15,12.15,0,0,1-8.28,3.3h0a12.15,12.15,0,0,1-8.28-3.3,11.49,11.49,0,0,1-3.66-8.48m30.29-6.89V36H109.6V13.59h12.51v4.33Zm17.54,7.3-1.88-3.93-1.9,3.93Zm1.91,4.14H126L122.78,36h-4.89l12-24.13L141.77,36h-5Zm14.51-11.51h-1v6.7h.45c2.15,0,4.46-.87,4.46-3.38h0c0-2.2-1.87-3.32-3.88-3.32h0ZM142.54,36V13.52h5.58c4.51,0,8.43,2.9,8.43,7.68h0c0,4.87-4.17,7.68-8.68,7.68h0c-.26,0-.52,0-.78,0V36Zm24.64-10.76-1.88-3.93-1.9,3.93Zm1.91,4.14h-7.61L158.27,36h-4.89l12-24.13L177.29,36h-5ZM178,36V13.59h4.55v8.83h9V13.59h4.55V36h-4.55V26.75h-9V36Zm25.45,0V17.91h-4.66l0-4.32h13.92v4.33H208V36ZM0,19.4V14.15A11.81,11.81,0,0,1,5.11,13h0a11.6,11.6,0,0,1,7.73,3,11.56,11.56,0,0,1,3.63,8.76h0A11.83,11.83,0,0,1,13,33.5a11.15,11.15,0,0,1-7.71,3.09h0A11.55,11.55,0,0,1,0,35.35V30.14a8.52,8.52,0,0,0,5.26,2.08,6.62,6.62,0,0,0,6.41-5.56H2.57V22.42h9.1a6.59,6.59,0,0,0-6.59-5.1h0A7.58,7.58,0,0,0,0,19.4"/><path class="cls-1" d="M5.22,6.4a4.07,4.07,0,0,1-2,.49A3.12,3.12,0,0,1,0,3.5,3.34,3.34,0,0,1,3.4,0,3.66,3.66,0,0,1,5.09.36v.85A3.36,3.36,0,0,0,3.42.78,2.48,2.48,0,0,0,1,3.46a2.39,2.39,0,0,0,2.4,2.66A3.26,3.26,0,0,0,5,5.68Z"/><polygon class="cls-1" points="8.69 0.84 6.75 0.84 6.75 0.06 11.72 0.06 11.44 0.84 9.59 0.84 9.59 6.79 8.69 6.79 8.69 0.84"/><path class="cls-1" d="M13.67.06h1.38a2.87,2.87,0,0,1,1.47.31,2,2,0,0,1,1,1.85,2,2,0,0,1-1.18,1.9A3.47,3.47,0,0,1,15,4.36h-.38V6.79h-.91ZM15,3.62a2,2,0,0,0,.91-.19,1.23,1.23,0,0,0,.64-1.21A1.32,1.32,0,0,0,16,1,1.82,1.82,0,0,0,15,.81h-.46V3.62Z"/><path class="cls-1" d="M21.74,0h.67L25,6.79H24L23.39,5H20.78l-.64,1.77h-.95ZM23.1,4.28l-.63-1.76c-.19-.57-.29-.88-.38-1.12h0l-.39,1.13-.63,1.75Z"/><polygon class="cls-1" points="28.78 3.41 26.57 0.06 27.62 0.06 29.35 2.72 31.17 0.06 32.19 0.06 29.88 3.38 32.13 6.79 31.1 6.79 29.31 4.08 27.43 6.79 26.42 6.79 28.78 3.41"/><path class="cls-1" d="M34,3.45a3.3,3.3,0,1,1,6.6,0,3.3,3.3,0,1,1-6.6,0m5.64,0a2.36,2.36,0,1,0-4.69,0,2.36,2.36,0,1,0,4.69,0"/><path class="cls-1" d="M43.05.06h1.69c1.42,0,2.06.8,2.06,1.71a1.53,1.53,0,0,1-.86,1.44v0a1.62,1.62,0,0,1,1.29,1.63c0,1.1-.79,1.93-2.3,1.93H43.05ZM44.64,3c.82,0,1.26-.42,1.26-1.09S45.53.82,44.66.82H44V3ZM44.88,6c.88,0,1.43-.34,1.43-1.17S45.79,3.74,45,3.74H44V6Z"/><path class="cls-1" d="M51.5,0h.68l2.6,6.75h-1L53.15,5h-2.6l-.64,1.77H49Zm1.37,4.24-.63-1.76c-.2-.57-.3-.88-.38-1.12h0c-.07.24-.18.56-.39,1.13l-.63,1.75Z"/><path class="cls-1" d="M57.36,4.65c.27-.5.44-.78.72-.93v0A1.64,1.64,0,0,1,56.9,2a2,2,0,0,1,2.2-2h1.83V6.79H60V4H59c-.2,0-.45.22-.74.82l-1,2h-1Zm1.83-1.39H60V.81h-.8a1.23,1.23,0,0,0-1.4,1.26c0,.83.59,1.19,1.36,1.19"/><path class="cls-1" d="M68.84,0h.67l2.6,6.75h-1L70.49,5H67.88l-.64,1.77h-.95ZM70.2,4.28l-.63-1.76c-.19-.57-.29-.88-.38-1.12h0l-.39,1.13-.63,1.75Z"/><path class="cls-1" d="M74.19.06h.9V3h.66c1,0,1.13-1.38,1.57-2.31A1.13,1.13,0,0,1,78.39,0a1.42,1.42,0,0,1,.5.08V.9a1,1,0,0,0-.35-.06.51.51,0,0,0-.49.31c-.33.61-.48,1.79-1.2,2.21v0c.33.11.57.45.86,1L79,6.79H78L76.85,4.6c-.31-.6-.56-.81-.77-.81h-1v3h-.9Z"/><polygon class="cls-1" points="81.2 0.06 82.09 0.06 82.09 6.02 85.28 6.02 85.28 0.06 86.18 0.06 86.18 6.02 87 6.02 87 8.67 86.11 8.67 86.11 6.79 81.2 6.79 81.2 0.06"/><path class="cls-1" d="M89.21.06h.89V4.13c0,.47,0,.8,0,1.16h0c.22-.33.51-.75.91-1.26l3-4h.87V6.79H94V2.57c0-.49,0-.8,0-1.12h0c-.23.33-.51.73-.88,1.22L90,6.79h-.77Z"/><path class="cls-1" d="M97.32,3.45a3.31,3.31,0,1,1,6.61,0,3.31,3.31,0,1,1-6.61,0m5.65,0a2.36,2.36,0,1,0-4.69,0,2.36,2.36,0,1,0,4.69,0"/><polygon class="cls-1" points="106.4 0.06 107.3 0.06 107.3 2.96 110.82 2.96 110.82 0.06 111.72 0.06 111.72 6.79 110.82 6.79 110.82 3.74 107.3 3.74 107.3 6.79 106.4 6.79 106.4 0.06"/><polygon class="cls-1" points="114.5 0.06 117.89 0.06 117.62 0.84 115.41 0.84 115.41 2.97 117.6 2.97 117.6 3.75 115.41 3.75 115.41 6.02 117.93 6.02 117.93 6.79 114.5 6.79 114.5 0.06"/><path class="cls-1" d="M120.45.06h1.37a2.85,2.85,0,0,1,1.47.31,2,2,0,0,1,1,1.85,2,2,0,0,1-1.18,1.9,3.39,3.39,0,0,1-1.38.24h-.39V6.79h-.9Zm1.35,3.56a1.93,1.93,0,0,0,.91-.19,1.23,1.23,0,0,0,.64-1.21,1.33,1.33,0,0,0-.59-1.2,1.86,1.86,0,0,0-1-.21h-.46V3.62Z"/><polygon class="cls-1" points="126.67 0.06 127.58 0.06 127.58 2.96 131.1 2.96 131.1 0.06 131.99 0.06 131.99 6.79 131.1 6.79 131.1 3.74 127.58 3.74 127.58 6.79 126.67 6.79 126.67 0.06"/><path class="cls-1" d="M136.62,0h.67l2.61,6.75h-1L138.27,5h-2.61L135,6.79h-1ZM138,4.28l-.63-1.76L137,1.4h0c-.07.24-.19.56-.39,1.13l-.63,1.75Z"/><path class="cls-1" d="M142.48,4.65a2.12,2.12,0,0,1,.71-.93v0A1.65,1.65,0,0,1,142,2a2,2,0,0,1,2.21-2h1.83V6.79h-.9V4h-1c-.21,0-.45.22-.74.82l-1,2h-1.05Zm1.83-1.39h.84V.81h-.81A1.22,1.22,0,0,0,143,2.07c0,.83.59,1.19,1.36,1.19"/><path class="cls-1" d="M152.11.06h.9V3h.66c1,0,1.13-1.38,1.58-2.31A1.12,1.12,0,0,1,156.31,0a1.38,1.38,0,0,1,.5.08V.9a.9.9,0,0,0-.34-.06.52.52,0,0,0-.5.31c-.33.61-.48,1.79-1.19,2.21v0c.32.11.57.45.85,1l1.3,2.42h-1L154.77,4.6c-.31-.6-.56-.81-.76-.81h-1v3h-.9Z"/><path class="cls-1" d="M158.81,3.45a3.3,3.3,0,1,1,6.6,0,3.3,3.3,0,1,1-6.6,0m5.64,0a2.36,2.36,0,1,0-4.69,0,2.36,2.36,0,1,0,4.69,0"/><path class="cls-1" d="M167.88.06h.84l1.83,2.74c.27.41.44.66.61.94h0c.15-.27.33-.57.59-1l1.71-2.7h.83V6.79h-.89V2.64c0-.32,0-.73,0-1.07h0c-.14.26-.36.61-.48.8l-1.55,2.47h-.45l-1.7-2.52a7.05,7.05,0,0,1-.45-.73h0c0,.3,0,.74,0,1V6.79h-.91Z"/><polygon class="cls-1" points="177.1 0.06 182.14 0.06 182.14 6.79 181.24 6.79 181.24 0.84 177.99 0.84 177.99 6.79 177.1 6.79 177.1 0.06"/><path class="cls-1" d="M186.76,0h.67L190,6.79h-1L188.41,5h-2.6l-.64,1.77h-1Zm1.36,4.24-.63-1.76-.37-1.12h0c-.07.24-.19.56-.39,1.13l-.63,1.75Z"/><polygon class="cls-1" points="192.11 0.06 193.02 0.06 193.02 2.96 196.54 2.96 196.54 0.06 197.43 0.06 197.43 6.79 196.54 6.79 196.54 3.74 193.02 3.74 193.02 6.79 192.11 6.79 192.11 0.06"/><path class="cls-1" d="M200.22.06h.9V4.13c0,.47,0,.8,0,1.16h0c.22-.33.5-.75.9-1.26l3-4h.88V6.79H205V2.57c0-.49,0-.8,0-1.12h0c-.22.33-.51.73-.87,1.22L201,6.79h-.77Z"/><path class="cls-1" d="M209.16,4.65a2.12,2.12,0,0,1,.71-.93v0A1.65,1.65,0,0,1,208.7,2a2,2,0,0,1,2.2-2h1.83V6.79h-.9V4h-1c-.2,0-.45.22-.74.82l-1,2h-1.05ZM211,3.26h.84V.81H211a1.22,1.22,0,0,0-1.39,1.26c0,.83.59,1.19,1.36,1.19"/></g></g></svg>