<svg width="20" height="20" viewBox="0 0 20 20" fill="none" xmlns="http://www.w3.org/2000/svg">
<g id="Frame" clip-path="url(#clip0_2758_7505)">
<path id="Vector" d="M10.0007 4.58325C9.10565 4.09492 7.84815 3.33325 6.66732 3.33325C4.91732 3.33325 3.33398 4.37242 3.33398 7.49992C3.33398 11.5824 4.21398 14.5083 5.55982 16.2808C6.03732 16.9108 7.20148 16.7149 7.69898 16.0841C8.03065 15.6633 8.38148 14.8849 8.75065 13.7499C8.99398 13.1074 9.49398 12.4966 10.0007 12.4999C10.5023 12.4999 11.009 13.1141 11.2507 13.7499C11.6198 14.8849 11.9707 15.6624 12.3023 16.0833C12.7998 16.7158 13.969 16.9108 14.4415 16.2808C15.7873 14.5083 16.6673 11.5833 16.6673 7.49992C16.6673 4.38325 15.0773 3.33325 13.334 3.33325C12.1482 3.33325 10.9007 4.09242 10.0007 4.58325Z" stroke="#232D5B" stroke-linecap="round" stroke-linejoin="round"/>
<path id="Vector_2" d="M10 4.58325L12.5 5.83325" stroke="#232D5B" stroke-linecap="round" stroke-linejoin="round"/>
</g>
<defs>
<clipPath id="clip0_2758_7505">
<rect width="20" height="20" fill="white"/>
</clipPath>
</defs>
</svg>
