<svg width="20" height="20" viewBox="0 0 20 20" fill="none" xmlns="http://www.w3.org/2000/svg">
<g id="Frame" clip-path="url(#clip0_2758_7497)">
<path id="Vector" d="M6.66602 5.83333C6.66602 6.71739 7.0172 7.56523 7.64233 8.19036C8.26745 8.81548 9.11529 9.16667 9.99935 9.16667C10.8834 9.16667 11.7313 8.81548 12.3564 8.19036C12.9815 7.56523 13.3327 6.71739 13.3327 5.83333C13.3327 4.94928 12.9815 4.10143 12.3564 3.47631C11.7313 2.85119 10.8834 2.5 9.99935 2.5C9.11529 2.5 8.26745 2.85119 7.64233 3.47631C7.0172 4.10143 6.66602 4.94928 6.66602 5.83333Z" stroke="#232D5B" stroke-linecap="round" stroke-linejoin="round"/>
<path id="Vector_2" d="M5 17.5V15.8333C5 14.9493 5.35119 14.1014 5.97631 13.4763C6.60143 12.8512 7.44928 12.5 8.33333 12.5H8.75" stroke="#232D5B" stroke-linecap="round" stroke-linejoin="round"/>
<path id="Vector_3" d="M14.9994 18.3333L17.7911 15.5966C17.9623 15.4305 18.0985 15.2317 18.1916 15.0121C18.2847 14.7925 18.3329 14.5564 18.3333 14.3179C18.3337 14.0793 18.2863 13.8431 18.1939 13.6232C18.1015 13.4033 17.9659 13.2041 17.7953 13.0374C17.4471 12.6969 16.9796 12.5058 16.4925 12.5048C16.0055 12.5039 15.5373 12.6932 15.1878 13.0324L15.0011 13.2158L14.8153 13.0324C14.4671 12.6921 13.9998 12.5012 13.513 12.5002C13.0261 12.4993 12.5581 12.6885 12.2086 13.0274C12.0374 13.1935 11.9011 13.3922 11.8079 13.6118C11.7147 13.8314 11.6665 14.0674 11.666 14.306C11.6656 14.5445 11.7129 14.7807 11.8052 15.0007C11.8976 15.2206 12.033 15.4199 12.2036 15.5866L14.9994 18.3333Z" stroke="#232D5B" stroke-linecap="round" stroke-linejoin="round"/>
</g>
<defs>
<clipPath id="clip0_2758_7497">
<rect width="20" height="20" fill="white"/>
</clipPath>
</defs>
</svg>
