<svg width="20" height="20" viewBox="0 0 20 20" fill="none" xmlns="http://www.w3.org/2000/svg">
<g id="Frame" clip-path="url(#clip0_2758_7478)">
<path id="Vector" d="M6.66602 17.5H13.3327" stroke="#232D5B" stroke-linecap="round" stroke-linejoin="round"/>
<path id="Vector_2" d="M10 14.1667V17.5001" stroke="#232D5B" stroke-linecap="round" stroke-linejoin="round"/>
<path id="Vector_3" d="M5.83398 3.33325H14.1673" stroke="#232D5B" stroke-linecap="round" stroke-linejoin="round"/>
<path id="Vector_4" d="M14.1673 3.33325V9.99992C14.1673 11.105 13.7283 12.1648 12.9469 12.9462C12.1655 13.7276 11.1057 14.1666 10.0007 14.1666C8.89558 14.1666 7.83577 13.7276 7.05437 12.9462C6.27297 12.1648 5.83398 11.105 5.83398 9.99992V3.33325" stroke="#232D5B" stroke-linecap="round" stroke-linejoin="round"/>
<path id="Vector_5" d="M2.5 7.49992C2.5 7.94195 2.67559 8.36587 2.98816 8.67843C3.30072 8.99099 3.72464 9.16659 4.16667 9.16659C4.60869 9.16659 5.03262 8.99099 5.34518 8.67843C5.65774 8.36587 5.83333 7.94195 5.83333 7.49992C5.83333 7.05789 5.65774 6.63397 5.34518 6.32141C5.03262 6.00885 4.60869 5.83325 4.16667 5.83325C3.72464 5.83325 3.30072 6.00885 2.98816 6.32141C2.67559 6.63397 2.5 7.05789 2.5 7.49992Z" stroke="#232D5B" stroke-linecap="round" stroke-linejoin="round"/>
<path id="Vector_6" d="M14.166 7.49992C14.166 7.94195 14.3416 8.36587 14.6542 8.67843C14.9667 8.99099 15.3907 9.16659 15.8327 9.16659C16.2747 9.16659 16.6986 8.99099 17.0112 8.67843C17.3238 8.36587 17.4993 7.94195 17.4993 7.49992C17.4993 7.05789 17.3238 6.63397 17.0112 6.32141C16.6986 6.00885 16.2747 5.83325 15.8327 5.83325C15.3907 5.83325 14.9667 6.00885 14.6542 6.32141C14.3416 6.63397 14.166 7.05789 14.166 7.49992Z" stroke="#232D5B" stroke-linecap="round" stroke-linejoin="round"/>
</g>
<defs>
<clipPath id="clip0_2758_7478">
<rect width="20" height="20" fill="white"/>
</clipPath>
</defs>
</svg>
