<svg width="16" height="16" viewBox="0 0 16 16" fill="none" xmlns="http://www.w3.org/2000/svg">
<g opacity="0.5" clip-path="url(#clip0_2004_848)">
<path d="M7.33333 12.0001L6 11.3334L2 13.3334V4.66675L6 2.66675L10 4.66675L14 2.66675V8.00008" stroke="#7F838C" stroke-linecap="round" stroke-linejoin="round"/>
<path d="M6 2.66675V11.3334" stroke="#7F838C" stroke-linecap="round" stroke-linejoin="round"/>
<path d="M10 4.66675V8.00008" stroke="#7F838C" stroke-linecap="round" stroke-linejoin="round"/>
<path d="M10 12C10 12.5304 10.2107 13.0391 10.5858 13.4142C10.9609 13.7893 11.4696 14 12 14C12.5304 14 13.0391 13.7893 13.4142 13.4142C13.7893 13.0391 14 12.5304 14 12C14 11.4696 13.7893 10.9609 13.4142 10.5858C13.0391 10.2107 12.5304 10 12 10C11.4696 10 10.9609 10.2107 10.5858 10.5858C10.2107 10.9609 10 11.4696 10 12Z" stroke="#7F838C" stroke-linecap="round" stroke-linejoin="round"/>
<path d="M13.4666 13.4666L14.6666 14.6666" stroke="#7F838C" stroke-linecap="round" stroke-linejoin="round"/>
</g>
<defs>
<clipPath id="clip0_2004_848">
<rect width="16" height="16" fill="white"/>
</clipPath>
</defs>
</svg>
