<svg width="64" height="64" viewBox="0 0 64 64" fill="none" xmlns="http://www.w3.org/2000/svg">
<path d="M24.5761 38.7168C24.3809 38.912 24.3809 39.2286 24.5761 39.4239C24.7714 39.6191 25.088 39.6191 25.2832 39.4239L24.5761 38.7168ZM39.5718 24.9282C39.5718 24.652 39.348 24.4282 39.0718 24.4282L34.5718 24.4282C34.2957 24.4282 34.0718 24.652 34.0718 24.9282C34.0718 25.2043 34.2957 25.4282 34.5718 25.4282L38.5718 25.4282L38.5718 29.4282C38.5718 29.7043 38.7957 29.9282 39.0718 29.9282C39.348 29.9282 39.5718 29.7043 39.5718 29.4282L39.5718 24.9282ZM25.2832 39.4239L39.4254 25.2817L38.7183 24.5746L24.5761 38.7168L25.2832 39.4239Z" fill="white"/>
<rect x="1.5948" y="32" width="43" height="43" rx="21.5" transform="rotate(-45 1.5948 32)" stroke="#7F838C"/>
</svg>
