<svg width="16" height="16" viewBox="0 0 16 16" fill="none" xmlns="http://www.w3.org/2000/svg">
<g id="icoons_contact" opacity="0.5" clip-path="url(#clip0_2004_2791)">
<path id="Vector" d="M2 9C2 9.78793 2.15519 10.5681 2.45672 11.2961C2.75825 12.0241 3.20021 12.6855 3.75736 13.2426C4.31451 13.7998 4.97595 14.2417 5.7039 14.5433C6.43185 14.8448 7.21207 15 8 15C8.78793 15 9.56815 14.8448 10.2961 14.5433C11.0241 14.2417 11.6855 13.7998 12.2426 13.2426C12.7998 12.6855 13.2417 12.0241 13.5433 11.2961C13.8448 10.5681 14 9.78793 14 9C14 8.21207 13.8448 7.43185 13.5433 6.7039C13.2417 5.97595 12.7998 5.31451 12.2426 4.75736C11.6855 4.20021 11.0241 3.75825 10.2961 3.45672C9.56815 3.15519 8.78793 3 8 3C7.21207 3 6.43185 3.15519 5.7039 3.45672C4.97595 3.75825 4.31451 4.20021 3.75736 4.75736C3.20021 5.31451 2.75825 5.97595 2.45672 6.7039C2.15519 7.43185 2 8.21207 2 9Z" stroke="#7F838C" stroke-linecap="round" stroke-linejoin="round"/>
<path id="Vector_2" d="M8 9L10 10.3333" stroke="#7F838C" stroke-linecap="round" stroke-linejoin="round"/>
<path id="Vector_3" d="M8 5.66675V9.00008" stroke="#7F838C" stroke-linecap="round" stroke-linejoin="round"/>
</g>
<defs>
<clipPath id="clip0_2004_2791">
<rect width="16" height="16" fill="white"/>
</clipPath>
</defs>
</svg>
