<svg width="24" height="24" viewBox="0 0 24 24" fill="none" xmlns="http://www.w3.org/2000/svg">
<g id="Frame" clip-path="url(#clip0_1065_10429)">
<path id="Vector" d="M9.99953 20.7771C9.12914 20.5797 8.29321 20.2531 7.51953 19.8081" stroke="#7F838C" stroke-linecap="round" stroke-linejoin="round"/>
<path id="Vector_2" d="M14 3.2229C15.9882 3.67697 17.7632 4.79259 19.0347 6.38711C20.3061 7.98162 20.9984 9.96055 20.9984 11.9999C20.9984 14.0392 20.3061 16.0182 19.0347 17.6127C17.7632 19.2072 15.9882 20.3228 14 20.7769" stroke="#7F838C" stroke-linecap="round" stroke-linejoin="round"/>
<path id="Vector_3" d="M4.57856 17.093C4.03307 16.3004 3.61876 15.4252 3.35156 14.501" stroke="#7F838C" stroke-linecap="round" stroke-linejoin="round"/>
<path id="Vector_4" d="M3.12305 10.5C3.28305 9.55002 3.59105 8.65002 4.02305 7.82502L4.19205 7.52002" stroke="#7F838C" stroke-linecap="round" stroke-linejoin="round"/>
<path id="Vector_5" d="M6.90625 4.5789C7.8419 3.9348 8.89157 3.47462 9.99925 3.2229" stroke="#7F838C" stroke-linecap="round" stroke-linejoin="round"/>
<path id="Vector_6" d="M12 8V12L15 15" stroke="#7F838C" stroke-linecap="round" stroke-linejoin="round"/>
</g>
<defs>
<clipPath id="clip0_1065_10429">
<rect width="24" height="24" fill="white"/>
</clipPath>
</defs>
</svg>
