<svg width="16" height="16" viewBox="0 0 16 16" fill="none" xmlns="http://www.w3.org/2000/svg">
<g id="icoons_contact" opacity="0.5" clip-path="url(#clip0_2004_4759)">
<path id="Vector" d="M8.66667 12.6666H3.33333C2.97971 12.6666 2.64057 12.5261 2.39052 12.2761C2.14048 12.026 2 11.6869 2 11.3333V4.66659C2 4.31296 2.14048 3.97382 2.39052 3.72378C2.64057 3.47373 2.97971 3.33325 3.33333 3.33325H12.6667C13.0203 3.33325 13.3594 3.47373 13.6095 3.72378C13.8595 3.97382 14 4.31296 14 4.66659V8.66658" stroke="#7F838C" stroke-linecap="round" stroke-linejoin="round"/>
<path id="Vector_2" d="M2 4.66675L8 8.66675L14 4.66675" stroke="#7F838C" stroke-linecap="round" stroke-linejoin="round"/>
<path id="Vector_3" d="M10.6667 14.6666L14.0001 11.3333" stroke="#7F838C" stroke-linecap="round" stroke-linejoin="round"/>
<path id="Vector_4" d="M14 14.3333V11.3333H11" stroke="#7F838C" stroke-linecap="round" stroke-linejoin="round"/>
</g>
<defs>
<clipPath id="clip0_2004_4759">
<rect width="16" height="16" fill="white"/>
</clipPath>
</defs>
</svg>
