<svg width="30" height="30" viewBox="0 0 30 30" fill="none" xmlns="http://www.w3.org/2000/svg">
<path d="M23.935 30C10.7393 30 0.00361228 19.2607 0 6.06504C0.00361228 2.72006 2.72729 0 6.06503 0C6.4082 0 6.74772 0.0288947 7.07283 0.0866912C7.78806 0.205897 8.4672 0.447923 9.09212 0.812764C9.18243 0.866948 9.24382 0.953658 9.25827 1.0548L10.6526 9.84347C10.6707 9.94461 10.6382 10.0494 10.5695 10.1252C9.80012 10.9777 8.81758 11.5918 7.72306 11.8989L7.19568 12.047L7.39433 12.5563C9.19324 17.1367 12.8561 20.7959 17.4401 22.6021L17.9494 22.8043L18.0975 22.277C18.4046 21.1824 19.0187 20.1999 19.8712 19.4305C19.9326 19.3727 20.0156 19.3438 20.0987 19.3438C20.1168 19.3438 20.1349 19.3438 20.1565 19.3474L28.9452 20.7417C29.05 20.7598 29.1367 20.8176 29.1909 20.9079C29.5521 21.5328 29.7941 22.2156 29.9169 22.9308C29.9747 23.2487 30 23.5846 30 23.935C30 27.2763 27.2799 29.9964 23.935 30Z" fill="#232D5B"/>
</svg>
