<svg width="20" height="20" viewBox="0 0 20 20" fill="none" xmlns="http://www.w3.org/2000/svg">
<g clip-path="url(#clip0_1154_13601)">
<path d="M6.6665 17.5H13.3332" stroke="#7F838C" stroke-linecap="round" stroke-linejoin="round"/>
<path d="M10 14.1665V17.4998" stroke="#7F838C" stroke-linecap="round" stroke-linejoin="round"/>
<path d="M5.8335 3.3335H14.1668" stroke="#7F838C" stroke-linecap="round" stroke-linejoin="round"/>
<path d="M14.1668 3.3335V10.0002C14.1668 11.1052 13.7278 12.165 12.9464 12.9464C12.165 13.7278 11.1052 14.1668 10.0002 14.1668C8.89509 14.1668 7.83529 13.7278 7.05388 12.9464C6.27248 12.165 5.8335 11.1052 5.8335 10.0002V3.3335" stroke="#7F838C" stroke-linecap="round" stroke-linejoin="round"/>
<path d="M2.5 7.50016C2.5 7.94219 2.67559 8.36611 2.98816 8.67867C3.30072 8.99123 3.72464 9.16683 4.16667 9.16683C4.60869 9.16683 5.03262 8.99123 5.34518 8.67867C5.65774 8.36611 5.83333 7.94219 5.83333 7.50016C5.83333 7.05814 5.65774 6.63421 5.34518 6.32165C5.03262 6.00909 4.60869 5.8335 4.16667 5.8335C3.72464 5.8335 3.30072 6.00909 2.98816 6.32165C2.67559 6.63421 2.5 7.05814 2.5 7.50016Z" stroke="#7F838C" stroke-linecap="round" stroke-linejoin="round"/>
<path d="M14.1665 7.50016C14.1665 7.94219 14.3421 8.36611 14.6547 8.67867C14.9672 8.99123 15.3911 9.16683 15.8332 9.16683C16.2752 9.16683 16.6991 8.99123 17.0117 8.67867C17.3242 8.36611 17.4998 7.94219 17.4998 7.50016C17.4998 7.05814 17.3242 6.63421 17.0117 6.32165C16.6991 6.00909 16.2752 5.8335 15.8332 5.8335C15.3911 5.8335 14.9672 6.00909 14.6547 6.32165C14.3421 6.63421 14.1665 7.05814 14.1665 7.50016Z" stroke="#7F838C" stroke-linecap="round" stroke-linejoin="round"/>
</g>
<defs>
<clipPath id="clip0_1154_13601">
<rect width="20" height="20" fill="white"/>
</clipPath>
</defs>
</svg>
