<svg width="20" height="20" viewBox="0 0 20 20" fill="none" xmlns="http://www.w3.org/2000/svg">
<g id="Frame" clip-path="url(#clip0_1163_13587)">
<path id="Vector" d="M10.0002 4.5835C9.10516 4.09516 7.84766 3.3335 6.66683 3.3335C4.91683 3.3335 3.3335 4.37266 3.3335 7.50016C3.3335 11.5827 4.2135 14.5085 5.55933 16.281C6.03683 16.911 7.201 16.7152 7.6985 16.0843C8.03016 15.6635 8.381 14.8852 8.75016 13.7502C8.9935 13.1077 9.4935 12.4968 10.0002 12.5002C10.5018 12.5002 11.0085 13.1143 11.2502 13.7502C11.6193 14.8852 11.9702 15.6627 12.3018 16.0835C12.7993 16.716 13.9685 16.911 14.441 16.281C15.7868 14.5085 16.6668 11.5835 16.6668 7.50016C16.6668 4.3835 15.0768 3.3335 13.3335 3.3335C12.1477 3.3335 10.9002 4.09266 10.0002 4.5835Z" stroke="#7F838C" stroke-linecap="round" stroke-linejoin="round"/>
<path id="Vector_2" d="M10 4.5835L12.5 5.8335" stroke="#7F838C" stroke-linecap="round" stroke-linejoin="round"/>
</g>
<defs>
<clipPath id="clip0_1163_13587">
<rect width="20" height="20" fill="white"/>
</clipPath>
</defs>
</svg>
