<svg width="20" height="20" viewBox="0 0 20 20" fill="none" xmlns="http://www.w3.org/2000/svg">
<g id="Frame" clip-path="url(#clip0_1163_13635)">
<path id="Vector" d="M6.6665 5.83333C6.6665 6.71739 7.01769 7.56523 7.64281 8.19036C8.26794 8.81548 9.11578 9.16667 9.99984 9.16667C10.8839 9.16667 11.7317 8.81548 12.3569 8.19036C12.982 7.56523 13.3332 6.71739 13.3332 5.83333C13.3332 4.94928 12.982 4.10143 12.3569 3.47631C11.7317 2.85119 10.8839 2.5 9.99984 2.5C9.11578 2.5 8.26794 2.85119 7.64281 3.47631C7.01769 4.10143 6.6665 4.94928 6.6665 5.83333Z" stroke="#7F838C" stroke-linecap="round" stroke-linejoin="round"/>
<path id="Vector_2" d="M5 17.5V15.8333C5 14.9493 5.35119 14.1014 5.97631 13.4763C6.60143 12.8512 7.44928 12.5 8.33333 12.5H8.75" stroke="#7F838C" stroke-linecap="round" stroke-linejoin="round"/>
<path id="Vector_3" d="M14.9999 18.3335L17.7916 15.5968C17.9628 15.4307 18.099 15.232 18.1921 15.0124C18.2852 14.7927 18.3334 14.5567 18.3338 14.3181C18.3342 14.0796 18.2868 13.8434 18.1944 13.6235C18.102 13.4035 17.9664 13.2044 17.7958 13.0377C17.4475 12.6971 16.9801 12.506 16.493 12.5051C16.006 12.5042 15.5378 12.6935 15.1883 13.0327L15.0016 13.216L14.8158 13.0327C14.4676 12.6924 14.0003 12.5014 13.5135 12.5005C13.0266 12.4996 12.5586 12.6887 12.2091 13.0277C12.0379 13.1937 11.9016 13.3924 11.8084 13.612C11.7152 13.8316 11.667 14.0677 11.6665 14.3062C11.666 14.5447 11.7134 14.781 11.8057 15.0009C11.898 15.2209 12.0335 15.4201 12.2041 15.5868L14.9999 18.3335Z" stroke="#7F838C" stroke-linecap="round" stroke-linejoin="round"/>
</g>
<defs>
<clipPath id="clip0_1163_13635">
<rect width="20" height="20" fill="white"/>
</clipPath>
</defs>
</svg>
