<svg width="21" height="20" viewBox="0 0 21 20" fill="none" xmlns="http://www.w3.org/2000/svg">
<path d="M4.49999 9.5C4.22385 9.5 3.99999 9.72386 3.99999 10C3.99999 10.2761 4.22385 10.5 4.49999 10.5V9.5ZM16.8535 10.3536C17.0488 10.1583 17.0488 9.84171 16.8535 9.64645L13.6716 6.46447C13.4763 6.2692 13.1597 6.2692 12.9645 6.46447C12.7692 6.65973 12.7692 6.97631 12.9645 7.17157L15.7929 10L12.9645 12.8284C12.7692 13.0237 12.7692 13.3403 12.9645 13.5355C13.1597 13.7308 13.4763 13.7308 13.6716 13.5355L16.8535 10.3536ZM4.49999 10.5H16.5V9.5H4.49999V10.5Z" fill="white"/>
</svg>
