<svg width="59" height="34" viewBox="0 0 59 34" fill="none" xmlns="http://www.w3.org/2000/svg">
<g clip-path="url(#clip0_1670_34963)">
<path d="M2.04495 31.2C2.04495 31.4111 2.13994 31.5889 2.32994 31.7333C2.51994 31.8778 2.74906 31.9722 3.0173 32.0111C3.28553 32.05 3.55377 32.0556 3.82759 32.0278C4.10142 32 4.33053 31.9222 4.52053 31.7889C4.71053 31.6556 4.80553 31.4944 4.80553 31.3C4.80553 31.0167 4.66583 30.8222 4.38642 30.7111C4.107 30.6056 3.71024 30.5333 3.19612 30.5C2.1623 30.4222 1.37436 30.1833 0.826709 29.7722C0.279062 29.3611 0.00523886 28.7111 -0.00593761 27.8056C-0.0227023 27.0889 0.200827 26.4833 0.659063 25.9889C1.12289 25.4944 1.68171 25.1944 2.34671 25.0833C3.01171 24.9722 3.67671 24.9722 4.34171 25.0833C5.00671 25.1944 5.57112 25.5 6.03495 25.9889C6.49877 26.4833 6.7223 27.0889 6.71671 27.8056H4.57642C4.57642 27.5278 4.45347 27.3222 4.20759 27.1722C3.96171 27.0278 3.68789 26.9556 3.39171 26.9611C3.09553 26.9611 2.81612 27.0389 2.55347 27.1889C2.29083 27.3333 2.15671 27.5333 2.13995 27.7833C2.11759 28.0833 2.22377 28.2944 2.45847 28.4167C2.69877 28.5389 3.05642 28.6222 3.537 28.6722C3.97289 28.7222 4.32494 28.7667 4.58759 28.8111C4.85024 28.8556 5.15759 28.9333 5.49847 29.0556C5.83936 29.1778 6.10759 29.3222 6.29759 29.4944C6.48759 29.6667 6.64965 29.9056 6.78936 30.2111C6.92906 30.5222 6.99612 30.8889 6.99612 31.3111C6.99612 31.7056 6.9123 32.0667 6.75024 32.4C6.58818 32.7333 6.36465 33.0111 6.09083 33.2278C5.81142 33.4444 5.49847 33.6278 5.14083 33.7778C4.78318 33.9278 4.40877 34.0167 4.00642 34.0444C3.60965 34.0722 3.21289 34.0722 2.81612 34.0389C2.41936 34.0056 2.04494 33.9111 1.6873 33.7556C1.32965 33.6 1.01671 33.4111 0.742886 33.1944C0.469062 32.9722 0.251121 32.6889 0.0946508 32.3444C-0.067408 32 -0.140055 31.6167 -0.134467 31.2H2.04495Z" fill="#232D5B"/>
<path d="M11.5728 27.1162H9.41016V25.1162H15.954V27.1162H13.8025V33.8773H11.5728V27.1162Z" fill="#232D5B"/>
<path d="M24.5935 33.8778L24.0793 32.7778H20.6035L20.0893 33.8778H17.8876V33.55L21.8552 25H22.822L26.8008 33.55V33.8778H24.599H24.5935ZM23.3473 30.8611L22.3302 28.5556L21.3355 30.8611H23.3473Z" fill="#232D5B"/>
<path d="M33.8587 28.8944L37.3737 25.0889H38.1784V33.8778H35.8761V29.9722L33.9984 31.9222H33.747L31.8861 29.9722V33.8778H29.5837V25.0889H30.4164L33.8643 28.8944H33.8587Z" fill="#232D5B"/>
<path d="M44.5211 31.7051C44.7893 31.894 45.1023 31.9884 45.4655 31.9884C45.8288 31.9884 46.1417 31.894 46.4043 31.7051C46.667 31.5162 46.8011 31.2551 46.8011 30.9218V25.1162H48.9526V30.9607C48.9526 31.8884 48.6117 32.6273 47.9243 33.1773C47.2426 33.7273 46.4211 34.0051 45.4655 34.0051C44.5099 34.0051 43.6941 33.7273 43.0067 33.1773C42.3138 32.6273 41.9673 31.8884 41.9673 30.9607V25.1162H44.1188V30.9218C44.1188 31.2551 44.2529 31.5162 44.5211 31.7051Z" fill="#232D5B"/>
<path d="M54.3396 31.2C54.3396 31.4111 54.4346 31.5889 54.6246 31.7333C54.8146 31.8778 55.0437 31.9722 55.312 32.0111C55.5802 32.05 55.8484 32.0556 56.1223 32.0278C56.3961 32 56.6252 31.9222 56.8152 31.7889C57.0052 31.6556 57.1002 31.4944 57.1002 31.3C57.1002 31.0167 56.9605 30.8222 56.6811 30.7111C56.4017 30.6056 56.0049 30.5333 55.4908 30.5C54.457 30.4222 53.669 30.1833 53.1214 29.7722C52.5737 29.3611 52.2999 28.7111 52.2887 27.8056C52.272 27.0889 52.4955 26.4833 52.9537 25.9889C53.4176 25.4944 53.9764 25.1944 54.6414 25.0833C55.3064 24.9722 55.9714 24.9722 56.6364 25.0833C57.3014 25.1944 57.8658 25.5 58.3296 25.9889C58.7934 26.4833 59.017 27.0889 59.0114 27.8056H56.8711C56.8711 27.5278 56.7482 27.3222 56.5023 27.1722C56.2564 27.0278 55.9826 26.9556 55.6864 26.9611C55.3902 26.9611 55.1108 27.0389 54.8482 27.1889C54.5855 27.3333 54.4514 27.5333 54.4346 27.7833C54.4123 28.0833 54.5184 28.2944 54.7532 28.4167C54.9934 28.5389 55.3511 28.6222 55.8317 28.6722C56.2676 28.7222 56.6196 28.7667 56.8823 28.8111C57.1449 28.8556 57.4523 28.9333 57.7931 29.0556C58.134 29.1778 58.4023 29.3222 58.5923 29.4944C58.7823 29.6667 58.9443 29.9056 59.084 30.2111C59.2237 30.5222 59.2908 30.8889 59.2908 31.3111C59.2908 31.7056 59.207 32.0667 59.0449 32.4C58.8829 32.7333 58.6593 33.0111 58.3855 33.2278C58.1061 33.4444 57.7931 33.6278 57.4355 33.7778C57.0779 33.9278 56.7034 34.0167 56.3011 34.0444C55.9043 34.0722 55.5076 34.0722 55.1108 34.0389C54.714 34.0056 54.3396 33.9111 53.982 33.7556C53.6243 33.6 53.3114 33.4111 53.0376 33.1944C52.7637 32.9722 52.5458 32.6889 52.3893 32.3444C52.2273 32 52.1546 31.6167 52.1602 31.2H54.3396Z" fill="#232D5B"/>
<path d="M27.9857 12.3663L23.9119 8.2719C23.7778 8.08301 23.7052 7.94967 23.6269 7.79967L23.5655 7.68301C22.716 6.1219 22.934 4.62745 23.3196 3.58301L20.7378 6.14967C20.3802 6.50523 20.1846 6.97745 20.1846 7.47745V10.5886C20.1846 12.0719 20.7657 13.4719 21.8219 14.5219L22.1405 14.833C22.1405 14.833 24.5881 16.7497 27.2257 15.333C27.2257 15.333 27.6057 15.133 27.751 15.033L29.936 12.883H29.2375C28.891 12.883 28.5502 12.783 28.2652 12.5886C28.1702 12.5275 28.0807 12.4497 27.9969 12.3719L27.9857 12.3663Z" fill="#232D5B"/>
<path d="M35.3732 12.6169C35.3062 12.4558 35.2335 12.2946 35.1497 12.1391L35.0826 12.0169C35.01 11.878 34.9485 11.7669 34.8479 11.6224L32.6797 9.4502V10.1391C32.6797 10.6002 32.4953 11.0446 32.1656 11.3724L28.047 15.4224C26.0967 16.7391 24.2359 16.3502 23.3306 16.0169L25.9123 18.5835C26.27 18.9391 26.745 19.1335 27.2479 19.1335H30.3773C31.8694 19.1335 33.2776 18.5558 34.3338 17.5058L34.6579 17.1835C34.8256 16.9669 36.2953 14.9335 35.3732 12.628V12.6169Z" fill="#232D5B"/>
<path d="M24.0014 7.44434C24.0014 7.44434 24.2025 7.82211 24.3031 7.96656L26.4769 10.1443V9.43878C26.4769 9.02767 26.6111 8.64989 26.8737 8.33323C26.9128 8.28878 26.9519 8.24434 26.9911 8.20545L31.1096 4.15545C33.0319 2.88878 34.8314 3.19989 35.8316 3.561L33.2499 0.994336C32.8922 0.63878 32.4172 0.444336 31.9143 0.444336H28.7849C26.2646 0.444336 24.7111 2.15545 24.5322 2.36656L24.5155 2.38878C24.5155 2.38878 22.5931 4.83878 24.0069 7.44434H24.0014Z" fill="#232D5B"/>
<path d="M36.9772 4.7108C36.9772 4.7108 34.2501 2.61635 31.4113 4.54413L29.2151 6.70524H29.9193C30.3887 6.70524 30.8302 6.88858 31.1599 7.21635L35.2337 11.3108C36.6307 13.3164 36.1166 15.283 35.8596 15.9719L38.4134 13.433C38.771 13.0775 38.9666 12.6052 38.9666 12.1052V8.99413C38.9666 7.5108 38.3854 6.1108 37.3293 5.0608L36.9716 4.70524L36.9772 4.7108Z" fill="#232D5B"/>
</g>
<defs>
<clipPath id="clip0_1670_34963">
<rect width="59" height="34" fill="white"/>
</clipPath>
</defs>
</svg>
