<svg width="150" height="116" viewBox="0 0 150 116" fill="none" xmlns="http://www.w3.org/2000/svg">
<g id="logo" filter="url(#filter0_d_1188_16128)">
<g id="Group">
<path id="Vector" d="M33.702 71.2938C33.702 71.5732 33.8276 71.8085 34.0787 71.9997C34.3299 72.1908 34.6328 72.3158 34.9874 72.3673C35.3421 72.4188 35.6967 72.4261 36.0587 72.3894C36.4207 72.3526 36.7236 72.2497 36.9748 72.0732C37.226 71.8967 37.3516 71.6835 37.3516 71.4261C37.3516 71.0511 37.1669 70.7938 36.7975 70.6467C36.4281 70.507 35.9035 70.4114 35.2239 70.3673C33.8571 70.2644 32.8154 69.9482 32.0914 69.4041C31.3674 68.8599 31.0054 67.9997 30.9906 66.8011C30.9685 65.8526 31.264 65.0511 31.8698 64.3967C32.483 63.7423 33.2218 63.3452 34.1009 63.1982C34.9801 63.0511 35.8592 63.0511 36.7384 63.1982C37.6175 63.3452 38.3637 63.7497 38.9769 64.3967C39.5901 65.0511 39.8856 65.8526 39.8782 66.8011H37.0487C37.0487 66.4335 36.8861 66.1614 36.5611 65.9629C36.236 65.7717 35.874 65.6761 35.4824 65.6835C35.0909 65.6835 34.7215 65.7864 34.3743 65.985C34.027 66.1761 33.8497 66.4408 33.8276 66.7717C33.798 67.1688 33.9384 67.4482 34.2487 67.6099C34.5663 67.7717 35.0392 67.882 35.6745 67.9482C36.2508 68.0144 36.7162 68.0732 37.0634 68.132C37.4107 68.1908 37.817 68.2938 38.2676 68.4555C38.7183 68.6173 39.0729 68.8085 39.3241 69.0364C39.5753 69.2644 39.7895 69.5805 39.9742 69.9849C40.1589 70.3967 40.2476 70.882 40.2476 71.4408C40.2476 71.9629 40.1368 72.4408 39.9225 72.882C39.7083 73.3232 39.4128 73.6908 39.0508 73.9776C38.6814 74.2644 38.2676 74.507 37.7948 74.7055C37.322 74.9041 36.827 75.0217 36.2951 75.0585C35.7706 75.0952 35.246 75.0952 34.7215 75.0511C34.1969 75.007 33.702 74.882 33.2291 74.6761C32.7563 74.4702 32.3426 74.2202 31.9806 73.9335C31.6186 73.6394 31.3305 73.2644 31.1236 72.8085C30.9094 72.3526 30.8133 71.8452 30.8207 71.2938H33.702Z" fill="#232D5B"/>
<path id="Vector_2" d="M46.2966 65.8892H43.4375V63.2422H52.0887V65.8892H49.2443V74.8378H46.2966V65.8892Z" fill="#232D5B"/>
<path id="Vector_3" d="M63.5099 74.8379L62.8303 73.382H58.235L57.5553 74.8379H54.6445V74.4041L59.8899 63.0879H61.168L66.4281 74.4041V74.8379H63.5173H63.5099ZM61.8624 70.8452L60.5179 67.7938L59.2028 70.8452H61.8624Z" fill="#232D5B"/>
<path id="Vector_4" d="M75.7609 68.2418L80.4079 63.2051H81.4717V74.8374H78.428V69.6683L75.9456 72.2492H75.6132L73.153 69.6683V74.8374H70.1093V63.2051H71.21L75.7683 68.2418H75.7609Z" fill="#232D5B"/>
<path id="Vector_5" d="M89.8569 71.9628C90.2115 72.2128 90.6252 72.3378 91.1054 72.3378C91.5856 72.3378 91.9994 72.2128 92.3466 71.9628C92.6938 71.7128 92.8711 71.3672 92.8711 70.926V63.2422H95.7154V70.9775C95.7154 72.2054 95.2648 73.1834 94.3561 73.9113C93.4548 74.6392 92.3688 75.0069 91.1054 75.0069C89.8421 75.0069 88.7635 74.6392 87.8548 73.9113C86.9387 73.1834 86.4807 72.2054 86.4807 70.9775V63.2422H89.325V70.926C89.325 71.3672 89.5023 71.7128 89.8569 71.9628Z" fill="#232D5B"/>
<path id="Vector_6" d="M102.839 71.2938C102.839 71.5732 102.964 71.8085 103.215 71.9997C103.467 72.1908 103.77 72.3158 104.124 72.3673C104.479 72.4188 104.833 72.4261 105.195 72.3894C105.557 72.3526 105.86 72.2497 106.111 72.0732C106.363 71.8967 106.488 71.6835 106.488 71.4261C106.488 71.0511 106.304 70.7938 105.934 70.6467C105.565 70.507 105.04 70.4114 104.361 70.3673C102.994 70.2644 101.952 69.9482 101.228 69.4041C100.504 68.8599 100.142 67.9997 100.127 66.8011C100.105 65.8526 100.401 65.0511 101.006 64.3967C101.62 63.7423 102.358 63.3452 103.238 63.1982C104.117 63.0511 104.996 63.0511 105.875 63.1982C106.754 63.3452 107.5 63.7497 108.114 64.3967C108.727 65.0511 109.022 65.8526 109.015 66.8011H106.185C106.185 66.4335 106.023 66.1614 105.698 65.9629C105.373 65.7717 105.011 65.6761 104.619 65.6835C104.228 65.6835 103.858 65.7864 103.511 65.985C103.164 66.1761 102.986 66.4408 102.964 66.7717C102.935 67.1688 103.075 67.4482 103.385 67.6099C103.703 67.7717 104.176 67.882 104.811 67.9482C105.387 68.0144 105.853 68.0732 106.2 68.132C106.547 68.1908 106.954 68.2938 107.404 68.4555C107.855 68.6173 108.21 68.8085 108.461 69.0364C108.712 69.2644 108.926 69.5805 109.111 69.9849C109.296 70.3967 109.384 70.882 109.384 71.4408C109.384 71.9629 109.273 72.4408 109.059 72.882C108.845 73.3232 108.549 73.6908 108.187 73.9776C107.818 74.2644 107.404 74.507 106.932 74.7055C106.459 74.9041 105.964 75.0217 105.432 75.0585C104.907 75.0952 104.383 75.0952 103.858 75.0511C103.334 75.007 102.839 74.882 102.366 74.6761C101.893 74.4702 101.479 74.2202 101.117 73.9335C100.755 73.6394 100.467 73.2644 100.26 72.8085C100.046 72.3526 99.95 71.8452 99.9574 71.2938H102.839Z" fill="#232D5B"/>
</g>
<g id="Group_2">
<path id="Vector_7" d="M67.997 46.3672L62.6113 40.9481C62.434 40.6981 62.3379 40.5216 62.2345 40.3231L62.1532 40.1687C61.0303 38.1025 61.3184 36.1245 61.8282 34.7422L58.415 38.1392C57.9422 38.6098 57.6836 39.2348 57.6836 39.8966V44.0142C57.6836 45.9775 58.4519 47.8304 59.8482 49.2201L60.2693 49.6319C60.2693 49.6319 63.5052 52.1687 66.9923 50.2937C66.9923 50.2937 67.4946 50.029 67.6867 49.8966L70.5754 47.051H69.6519C69.1938 47.051 68.7432 46.9187 68.3664 46.6613C68.2408 46.5804 68.1226 46.4775 68.0118 46.3745L67.997 46.3672Z" fill="#232D5B"/>
<path id="Vector_8" d="M77.7645 46.698C77.6759 46.4848 77.5798 46.2715 77.469 46.0657L77.3804 45.9039C77.2843 45.7201 77.2031 45.573 77.0701 45.3818L74.2036 42.5068V43.4186C74.2036 44.0289 73.9598 44.6171 73.5239 45.051L68.0791 50.4112C65.5007 52.1539 63.0406 51.6392 61.8438 51.198L65.2569 54.5951C65.7298 55.0657 66.3577 55.323 67.0226 55.323H71.1598C73.1324 55.323 74.9941 54.5583 76.3904 53.1686L76.8189 52.7421C77.0405 52.4554 78.9835 49.7642 77.7645 46.7127V46.698Z" fill="#232D5B"/>
<path id="Vector_9" d="M62.7295 39.8526C62.7295 39.8526 62.9954 40.3526 63.1284 40.5438L66.0023 43.4261V42.4923C66.0023 41.9482 66.1796 41.4482 66.5268 41.0291C66.5785 40.9702 66.6302 40.9114 66.682 40.86L72.1268 35.4997C74.6682 33.8232 77.0471 34.2349 78.3695 34.7129L74.9563 31.3158C74.4835 30.8452 73.8555 30.5879 73.1906 30.5879H69.0534C65.7215 30.5879 63.6677 32.8526 63.4313 33.132L63.4091 33.1614C63.4091 33.1614 60.8677 36.4041 62.7368 39.8526H62.7295Z" fill="#232D5B"/>
<path id="Vector_10" d="M79.8828 36.2356C79.8828 36.2356 76.2775 33.4636 72.5245 36.015L69.6211 38.8753H70.552C71.1725 38.8753 71.7562 39.118 72.1921 39.5518L77.5778 44.9709C79.4248 47.6253 78.7451 50.2283 78.4052 51.14L81.7815 47.7797C82.2543 47.3092 82.5129 46.6842 82.5129 46.0224V41.9047C82.5129 39.9415 81.7445 38.0886 80.3482 36.6989L79.8754 36.2283L79.8828 36.2356Z" fill="#232D5B"/>
</g>
</g>
<defs>
<filter id="filter0_d_1188_16128" x="0.820312" y="0" width="148.564" height="115.085" filterUnits="userSpaceOnUse" color-interpolation-filters="sRGB">
<feFlood flood-opacity="0" result="BackgroundImageFix"/>
<feColorMatrix in="SourceAlpha" type="matrix" values="0 0 0 0 0 0 0 0 0 0 0 0 0 0 0 0 0 0 127 0" result="hardAlpha"/>
<feMorphology radius="10" operator="erode" in="SourceAlpha" result="effect1_dropShadow_1188_16128"/>
<feOffset dx="5" dy="5"/>
<feGaussianBlur stdDeviation="22.5"/>
<feComposite in2="hardAlpha" operator="out"/>
<feColorMatrix type="matrix" values="0 0 0 0 0.139601 0 0 0 0 0.151331 0 0 0 0 0.179167 0 0 0 0.15 0"/>
<feBlend mode="normal" in2="BackgroundImageFix" result="effect1_dropShadow_1188_16128"/>
<feBlend mode="normal" in="SourceGraphic" in2="effect1_dropShadow_1188_16128" result="shape"/>
</filter>
</defs>
</svg>
