<svg width="197" height="45" viewBox="0 0 197 45" fill="none" xmlns="http://www.w3.org/2000/svg">
<g clip-path="url(#clip0_5171_53165)">
<path d="M64.579 18.206C64.579 18.6946 64.799 19.106 65.239 19.4403C65.679 19.7746 66.2096 19.9931 66.8308 20.0831C67.4519 20.1731 68.0731 20.186 68.7072 20.1217C69.3414 20.0574 69.8719 19.8774 70.3119 19.5688C70.7519 19.2603 70.9719 18.8874 70.9719 18.4374C70.9719 17.7817 70.6484 17.3317 70.0014 17.0746C69.3543 16.8303 68.4355 16.6631 67.2449 16.586C64.8508 16.406 63.0261 15.8531 61.7578 14.9017C60.4896 13.9503 59.8555 12.446 59.8296 10.3503C59.7908 8.6917 60.3084 7.29028 61.3696 6.14599C62.4437 5.0017 63.7378 4.30742 65.2778 4.05028C66.8178 3.79314 68.3578 3.79314 69.8978 4.05028C71.4378 4.30742 72.7449 5.01456 73.819 6.14599C74.8931 7.29028 75.4108 8.6917 75.3978 10.3503H70.4414C70.4414 9.70742 70.1566 9.23171 69.5872 8.88456C69.0178 8.55028 68.3837 8.38313 67.6978 8.39599C67.0119 8.39599 66.3649 8.57599 65.7566 8.92314C65.1484 9.25742 64.8378 9.72028 64.799 10.2989C64.7472 10.9931 64.9931 11.4817 65.5366 11.7646C66.0931 12.0474 66.9214 12.2403 68.0343 12.356C69.0437 12.4717 69.859 12.5746 70.4672 12.6774C71.0755 12.7803 71.7872 12.9603 72.5766 13.2431C73.3661 13.526 73.9872 13.8603 74.4272 14.2588C74.8672 14.6574 75.2425 15.2103 75.5661 15.9174C75.8896 16.6374 76.0449 17.486 76.0449 18.4631C76.0449 19.376 75.8508 20.2117 75.4755 20.9831C75.1002 21.7546 74.5825 22.3974 73.9484 22.8988C73.3014 23.4003 72.5766 23.8246 71.7484 24.1717C70.9202 24.5188 70.0531 24.7246 69.1214 24.7888C68.2025 24.8531 67.2837 24.8531 66.3649 24.776C65.4461 24.6988 64.579 24.4803 63.7508 24.1203C62.9225 23.7603 62.1978 23.3231 61.5637 22.8217C60.9296 22.3074 60.4249 21.6517 60.0625 20.8546C59.6872 20.0574 59.519 19.1703 59.5319 18.206H64.579Z" fill="#232D5B"/>
<path d="M86.641 8.75553H81.6328V4.12695H96.7869V8.75553H91.8046V24.4027H86.641V8.75553Z" fill="#232D5B"/>
<path d="M116.795 24.4031L115.604 21.8574H107.555L106.364 24.4031H101.266V23.6446L110.454 3.85742H112.693L121.907 23.6446V24.4031H116.808H116.795ZM113.909 17.4217L111.554 12.086L109.25 17.4217H113.909Z" fill="#232D5B"/>
<path d="M138.252 12.8696L146.392 4.0625H148.255V24.4025H142.923V15.3639L138.575 19.8768H137.993L133.683 15.3639V24.4025H128.352V4.0625H130.28L138.264 12.8696H138.252Z" fill="#232D5B"/>
<path d="M162.945 19.3755C163.567 19.8127 164.291 20.0312 165.132 20.0312C165.974 20.0312 166.698 19.8127 167.307 19.3755C167.915 18.9384 168.225 18.3341 168.225 17.5627V4.12695H173.208V17.6527C173.208 19.7998 172.418 21.5098 170.827 22.7827C169.248 24.0555 167.345 24.6984 165.132 24.6984C162.919 24.6984 161.03 24.0555 159.438 22.7827C157.834 21.5098 157.031 19.7998 157.031 17.6527V4.12695H162.014V17.5627C162.014 18.3341 162.324 18.9384 162.945 19.3755Z" fill="#232D5B"/>
<path d="M185.688 18.206C185.688 18.6946 185.908 19.106 186.348 19.4403C186.788 19.7746 187.319 19.9931 187.94 20.0831C188.561 20.1731 189.182 20.186 189.817 20.1217C190.451 20.0574 190.981 19.8774 191.421 19.5688C191.861 19.2603 192.081 18.8874 192.081 18.4374C192.081 17.7817 191.758 17.3317 191.111 17.0746C190.464 16.8303 189.545 16.6631 188.354 16.586C185.96 16.406 184.135 15.8531 182.867 14.9017C181.599 13.9503 180.965 12.446 180.939 10.3503C180.9 8.6917 181.418 7.29028 182.479 6.14599C183.553 5.0017 184.847 4.30742 186.387 4.05028C187.927 3.79314 189.467 3.79314 191.007 4.05028C192.547 4.30742 193.854 5.01456 194.928 6.14599C196.002 7.29028 196.52 8.6917 196.507 10.3503H191.551C191.551 9.70742 191.266 9.23171 190.697 8.88456C190.127 8.55028 189.493 8.38313 188.807 8.39599C188.121 8.39599 187.474 8.57599 186.866 8.92314C186.258 9.25742 185.947 9.72028 185.908 10.2989C185.857 10.9931 186.102 11.4817 186.646 11.7646C187.202 12.0474 188.031 12.2403 189.144 12.356C190.153 12.4717 190.968 12.5746 191.577 12.6774C192.185 12.7803 192.897 12.9603 193.686 13.2431C194.475 13.526 195.097 13.8603 195.537 14.2588C195.977 14.6574 196.352 15.2103 196.675 15.9174C196.999 16.6374 197.154 17.486 197.154 18.4631C197.154 19.376 196.96 20.2117 196.585 20.9831C196.21 21.7546 195.692 22.3974 195.058 22.8988C194.411 23.4003 193.686 23.8246 192.858 24.1717C192.03 24.5188 191.162 24.7246 190.231 24.7888C189.312 24.8531 188.393 24.8531 187.474 24.776C186.555 24.6988 185.688 24.4803 184.86 24.1203C184.032 23.7603 183.307 23.3231 182.673 22.8217C182.039 22.3074 181.534 21.6517 181.172 20.8546C180.797 20.0574 180.628 19.1703 180.641 18.206H185.688Z" fill="#232D5B"/>
<path d="M69.3281 39.0215H70.6999C71.0493 39.0215 71.3728 39.0986 71.6446 39.2401C71.9164 39.3815 72.1234 39.5743 72.2787 39.8315C72.434 40.0886 72.4987 40.3715 72.4987 40.6929C72.4987 41.0143 72.4211 41.3101 72.2787 41.5543C72.1234 41.8115 71.9164 42.0043 71.6446 42.1458C71.3728 42.2872 71.0622 42.3643 70.6999 42.3643H69.3281V39.0215ZM70.674 42.0558C70.9717 42.0558 71.2305 41.9915 71.4505 41.8758C71.6705 41.7601 71.8387 41.5929 71.9681 41.4001C72.0846 41.1943 72.1493 40.9629 72.1493 40.6929C72.1493 40.4229 72.0846 40.1915 71.9681 39.9858C71.8517 39.7801 71.6705 39.6258 71.4505 39.5101C71.2305 39.3943 70.9717 39.3301 70.674 39.3301H69.6775V42.0558H70.674Z" fill="#232D5B"/>
<path d="M79.5062 42.0558V42.3643H77.125V39.0215H79.4285V39.3301H77.4744V40.5129H79.2085V40.8086H77.4744V42.0429H79.4932L79.5062 42.0558Z" fill="#232D5B"/>
<path d="M86.9957 39.0215V42.3643H86.6981L84.5369 39.6515V42.3643H84.1875V39.0215H84.4851L86.6463 41.7343V39.0215H86.9957Z" fill="#232D5B"/>
<path d="M92.5839 39.3301H91.4062V39.0215H94.1239V39.3301H92.9462V42.3643H92.5968V39.3301H92.5839Z" fill="#232D5B"/>
<path d="M100.465 41.4655H98.589L98.1878 42.3526H97.8125L99.3525 39.0098H99.7019L101.242 42.3526H100.867L100.465 41.4655ZM100.336 41.1826L99.5337 39.3955L98.7313 41.1826H100.349H100.336Z" fill="#232D5B"/>
<path d="M105.638 39.0215H105.987V42.0558H107.864V42.3643H105.625V39.0215H105.638Z" fill="#232D5B"/>
<path d="M115.336 42.1718C115.064 42.0304 114.857 41.8247 114.702 41.5675C114.546 41.3104 114.469 41.0147 114.469 40.6932C114.469 40.3718 114.546 40.0761 114.702 39.819C114.857 39.5618 115.064 39.3561 115.336 39.2147C115.608 39.0732 115.905 38.9961 116.242 38.9961C116.488 38.9961 116.721 39.0347 116.928 39.1247C117.135 39.2147 117.316 39.3304 117.471 39.4847L117.251 39.7032C116.992 39.4332 116.656 39.3047 116.255 39.3047C115.983 39.3047 115.75 39.3689 115.53 39.4847C115.31 39.6004 115.142 39.7675 115.012 39.9861C114.883 40.2047 114.831 40.4361 114.831 40.6932C114.831 40.9504 114.896 41.1947 115.012 41.4004C115.142 41.6061 115.31 41.7732 115.53 41.9018C115.75 42.0175 115.983 42.0818 116.255 42.0818C116.656 42.0818 116.992 41.9532 117.251 41.6832L117.471 41.9018C117.329 42.0561 117.148 42.1847 116.928 42.2618C116.721 42.3518 116.488 42.3904 116.229 42.3904C115.892 42.3904 115.595 42.3132 115.323 42.1718H115.336Z" fill="#232D5B"/>
<path d="M147.836 42.1718C147.564 42.0304 147.357 41.8247 147.202 41.5675C147.046 41.3104 146.969 41.0147 146.969 40.6932C146.969 40.3718 147.046 40.0761 147.202 39.819C147.357 39.5618 147.564 39.3561 147.836 39.2147C148.108 39.0732 148.405 38.9961 148.742 38.9961C148.988 38.9961 149.221 39.0347 149.428 39.1247C149.635 39.2147 149.816 39.3304 149.971 39.4847L149.751 39.7032C149.492 39.4332 149.156 39.3047 148.755 39.3047C148.483 39.3047 148.25 39.3689 148.03 39.4847C147.81 39.6004 147.642 39.7675 147.512 39.9861C147.383 40.2047 147.331 40.4361 147.331 40.6932C147.331 40.9504 147.396 41.1947 147.512 41.4004C147.642 41.6061 147.81 41.7732 148.03 41.9018C148.25 42.0175 148.483 42.0818 148.755 42.0818C149.156 42.0818 149.492 41.9532 149.751 41.6832L149.971 41.9018C149.829 42.0561 149.648 42.1847 149.428 42.2618C149.221 42.3518 148.988 42.3904 148.729 42.3904C148.392 42.3904 148.095 42.3132 147.823 42.1718H147.836Z" fill="#232D5B"/>
<path d="M122.06 39.0215H122.409V42.0558H124.286V42.3643H122.047V39.0215H122.06Z" fill="#232D5B"/>
<path d="M128.734 39.0215H129.084V42.3643H128.734V39.0215Z" fill="#232D5B"/>
<path d="M136.824 39.0215V42.3643H136.526L134.365 39.6515V42.3643H134.016V39.0215H134.313L136.474 41.7343V39.0215H136.824Z" fill="#232D5B"/>
<path d="M141.766 39.0215H142.115V42.3643H141.766V39.0215Z" fill="#232D5B"/>
<path d="M66.5469 40.8608V40.5137H59.5328V40.8608H66.5469Z" fill="#232D5B"/>
<path d="M159.68 40.8608V40.5137H152.666V40.8608H159.68Z" fill="#232D5B"/>
<path d="M18.0659 28.876L8.63176 19.4003C8.32117 18.9631 8.15294 18.6545 7.97176 18.3074L7.82941 18.0374C5.86235 14.4245 6.36705 10.966 7.26 8.54883L1.28117 14.4888C0.452938 15.3117 0 16.4045 0 17.5617V24.7617C0 28.1945 1.34588 31.4345 3.79176 33.8645L4.52941 34.5845C4.52941 34.5845 10.1976 39.0203 16.3059 35.7417C16.3059 35.7417 17.1859 35.2788 17.5224 35.0474L22.5823 30.0717H20.9647C20.1623 30.0717 19.3729 29.8403 18.7129 29.3903C18.4929 29.2488 18.2859 29.0688 18.0918 28.8888L18.0659 28.876Z" fill="#232D5B"/>
<path d="M35.1695 29.4555C35.0142 29.0827 34.846 28.7098 34.6518 28.3498L34.4965 28.067C34.3283 27.7455 34.186 27.4884 33.953 27.1541L28.9318 22.127V23.7212C28.9318 24.7884 28.5048 25.817 27.7412 26.5755L18.2036 35.9484C13.6871 38.9955 9.37772 38.0955 7.28125 37.3241L13.2601 43.2641C14.0883 44.087 15.1883 44.537 16.353 44.537H23.6001C27.0554 44.537 30.3165 43.1998 32.7624 40.7698L33.513 40.0241C33.9013 39.5227 37.3048 34.817 35.1695 29.4812V29.4555Z" fill="#232D5B"/>
<path d="M8.83759 17.4852C8.83759 17.4852 9.30348 18.3594 9.53642 18.6937L14.5705 23.7337V22.1009C14.5705 21.1494 14.8811 20.2752 15.4894 19.5423C15.5799 19.4394 15.6705 19.3366 15.7611 19.2466L25.2988 9.87373C29.7505 6.9423 33.9176 7.6623 36.2341 8.49801L30.2552 2.55801C29.427 1.73516 28.327 1.28516 27.1623 1.28516H19.9152C14.0788 1.28516 10.4811 5.24516 10.067 5.73373L10.0282 5.78516C10.0282 5.78516 5.57641 11.4552 8.85053 17.4852H8.83759Z" fill="#232D5B"/>
<path d="M38.8894 11.16C38.8894 11.16 32.5741 6.31286 25.9999 10.7743L20.9141 15.7757H22.5447C23.6317 15.7757 24.6541 16.2 25.4176 16.9586L34.8517 26.4343C38.087 31.0757 36.8964 35.6271 36.3011 37.2214L42.2152 31.3457C43.0435 30.5229 43.4964 29.43 43.4964 28.2729V21.0729C43.4964 17.64 42.1505 14.4 39.7047 11.97L38.8764 11.1471L38.8894 11.16Z" fill="#232D5B"/>
</g>
<defs>
<clipPath id="clip0_5171_53165">
<rect width="197" height="45" fill="white"/>
</clipPath>
</defs>
</svg>
