<svg width="30" height="34" viewBox="0 0 30 34" fill="none" xmlns="http://www.w3.org/2000/svg">
<rect width="30" height="30" rx="5" fill="#7F838C"/>
<path d="M13.4766 17.4829L9.57227 13.5395C9.44373 13.3575 9.37411 13.2291 9.29913 13.0846L9.24021 12.9723C8.42614 11.4687 8.63502 10.0294 9.00456 9.02344L6.53022 11.4955C6.18745 11.8379 6 12.2927 6 12.7743V15.7707C6 17.1993 6.55699 18.5477 7.56923 19.559L7.8745 19.8587C7.8745 19.8587 10.2203 21.7047 12.7482 20.3402C12.7482 20.3402 13.1124 20.1476 13.2517 20.0513L15.3457 17.9806H14.6763C14.3442 17.9806 14.0175 17.8842 13.7444 17.697C13.6533 17.6381 13.5676 17.5632 13.4873 17.4883L13.4766 17.4829Z" fill="white"/>
<path d="M20.5572 17.7237C20.4929 17.5686 20.4233 17.4134 20.343 17.2636L20.2787 17.1459C20.2091 17.0121 20.1502 16.9051 20.0538 16.766L17.9758 14.6738V15.3373C17.9758 15.7814 17.799 16.2095 17.483 16.5252L13.5359 20.4259C11.6667 21.694 9.88325 21.3194 9.01562 20.9984L11.49 23.4704C11.8327 23.8129 12.288 24.0001 12.77 24.0001H15.7692C17.1992 24.0001 18.5488 23.4437 19.5611 22.4324L19.8717 22.122C20.0324 21.9134 21.4409 19.955 20.5572 17.7344V17.7237Z" fill="white"/>
<path d="M9.6601 12.7419C9.6601 12.7419 9.85291 13.1058 9.94931 13.2449L12.0327 15.3424V14.6628C12.0327 14.2669 12.1612 13.903 12.4129 13.598C12.4504 13.5552 12.4879 13.5124 12.5254 13.475L16.4726 9.57429C18.315 8.35432 20.0395 8.65396 20.9982 9.00176L18.5238 6.52972C18.1811 6.18728 17.7258 6 17.2438 6H14.2446C11.8292 6 10.3403 7.64802 10.1689 7.85135L10.1528 7.87275C10.1528 7.87275 8.31046 10.2324 9.66546 12.7419H9.6601Z" fill="white"/>
<path d="M22.0954 10.1101C22.0954 10.1101 19.4818 8.09291 16.7611 9.94961L14.6562 12.031H15.3311C15.781 12.031 16.2041 12.2076 16.52 12.5233L20.4244 16.4668C21.7633 18.3984 21.2706 20.2926 21.0242 20.9561L23.4718 18.5108C23.8145 18.1683 24.002 17.7135 24.002 17.2319V14.2355C24.002 12.8069 23.445 11.4585 22.4328 10.4472L22.09 10.1048L22.0954 10.1101Z" fill="white"/>
<path d="M14.2 32.9333L12 30H18L15.8 32.9333C15.4333 33.4222 15.25 33.6667 15 33.6667C14.75 33.6667 14.5667 33.4222 14.2 32.9333Z" fill="#7F838C"/>
</svg>
