<svg width="48" height="48" viewBox="0 0 48 48" fill="none" xmlns="http://www.w3.org/2000/svg">
<path d="M29.4399 31.3735C22.9564 31.3735 17.6815 26.0953 17.6797 19.6098C17.6815 17.9658 19.0197 16.6289 20.6597 16.6289C20.8283 16.6289 20.9951 16.6431 21.1549 16.6715C21.5063 16.7301 21.84 16.8491 22.147 17.0284C22.1914 17.055 22.2216 17.0976 22.2287 17.1473L22.9138 21.4668C22.9226 21.5165 22.9067 21.568 22.8729 21.6053C22.4949 22.0243 22.0121 22.3261 21.4743 22.477L21.2152 22.5498L21.3128 22.8001C22.1967 25.0513 23.9964 26.8498 26.2487 27.7375L26.499 27.8369L26.5717 27.5777C26.7226 27.0398 27.0243 26.5569 27.4432 26.1787C27.4734 26.1503 27.5142 26.1361 27.555 26.1361C27.5639 26.1361 27.5728 26.1361 27.5834 26.1379L31.9017 26.8232C31.9531 26.832 31.9957 26.8604 32.0224 26.9048C32.1998 27.212 32.3188 27.5475 32.3791 27.899C32.4075 28.0553 32.4199 28.2204 32.4199 28.3926C32.4199 30.0348 31.0834 31.3717 29.4399 31.3735Z" fill="#232D5B"/>
<path d="M40.9379 22.5404C40.5882 18.5884 38.7779 14.9222 35.8405 12.2183C32.8853 9.49843 29.0516 8 25.0422 8C16.2425 8 9.08268 15.1619 9.08268 23.9642C9.08268 26.9185 9.89733 29.7964 11.4397 32.3032L8 39.9196L19.013 38.7461C20.9281 39.5308 22.955 39.9285 25.0404 39.9285C25.5889 39.9285 26.1515 39.9001 26.7159 39.8415C27.2129 39.7882 27.7152 39.7101 28.2086 39.6107C35.5778 38.1212 40.9574 31.5789 41 24.0495V23.9642C41 23.4849 40.9787 23.0055 40.9361 22.5422L40.9379 22.5404ZM19.4372 35.403L13.3441 36.0528L15.1634 32.0209L14.7995 31.5327C14.7729 31.4972 14.7463 31.4617 14.7161 31.4209C13.1365 29.2389 12.3023 26.6611 12.3023 23.966C12.3023 16.9391 18.0173 11.2223 25.0422 11.2223C31.6234 11.2223 37.2018 16.3585 37.7396 22.915C37.768 23.2665 37.784 23.6198 37.784 23.9678C37.784 24.0672 37.7822 24.1649 37.7804 24.2696C37.6455 30.1479 33.5403 35.1403 27.7968 36.4115C27.3584 36.5091 26.9094 36.5837 26.4621 36.6316C25.9971 36.6849 25.5197 36.7115 25.0458 36.7115C23.3579 36.7115 21.7179 36.3848 20.1685 35.7386C19.9963 35.6693 19.8277 35.5948 19.6697 35.5184L19.439 35.4066L19.4372 35.403Z" fill="#232D5B"/>
</svg>
