<svg width="24" height="23" viewBox="0 0 24 23" fill="none" xmlns="http://www.w3.org/2000/svg">
<path d="M11.1359 1.48359C11.5216 0.821321 12.4784 0.821321 12.8641 1.48359L15.9809 6.83474C16.1222 7.07734 16.359 7.24937 16.6333 7.30879L22.6857 8.61941C23.4348 8.78162 23.7304 9.69154 23.2198 10.2631L19.0937 14.8809C18.9066 15.0902 18.8162 15.3686 18.8444 15.6479L19.4683 21.8091C19.5455 22.5716 18.7714 23.1339 18.0701 22.8249L12.4032 20.3277C12.1463 20.2145 11.8537 20.2145 11.5968 20.3277L5.9299 22.8249C5.22857 23.1339 4.45454 22.5716 4.53174 21.8091L5.15556 15.6479C5.18384 15.3686 5.0934 15.0902 4.90633 14.8809L0.780217 10.2631C0.269563 9.69154 0.565215 8.78162 1.31427 8.61941L7.36665 7.30879C7.64104 7.24937 7.87782 7.07734 8.01912 6.83474L11.1359 1.48359Z" fill="#D2D3D6"/>
</svg>
