<svg width="24" height="24" viewBox="0 0 24 24" fill="none" xmlns="http://www.w3.org/2000/svg">
<g id="Telegram-fill" clip-path="url(#clip0_1188_16163)">
<path id="Subtract" fill-rule="evenodd" clip-rule="evenodd" d="M24 12C24 18.6274 18.6274 24 12 24C5.37258 24 0 18.6274 0 12C0 5.37258 5.37258 0 12 0C18.6274 0 24 5.37258 24 12ZM12.4292 8.85954C11.262 9.34501 8.92928 10.3498 5.43104 11.8739C4.86298 12.0998 4.5654 12.3208 4.53831 12.5369C4.49253 12.9021 4.94986 13.0459 5.57262 13.2417C5.65733 13.2684 5.7451 13.296 5.83508 13.3252C6.44778 13.5244 7.27197 13.7574 7.70043 13.7666C8.08909 13.775 8.52287 13.6148 9.00179 13.286C12.2703 11.0796 13.9575 9.96442 14.0635 9.94038C14.1382 9.92342 14.2417 9.90209 14.3119 9.96446C14.3821 10.0268 14.3752 10.1449 14.3677 10.1766C14.3224 10.3698 12.5273 12.0387 11.5983 12.9024C11.3087 13.1716 11.1032 13.3626 11.0612 13.4062C10.9671 13.504 10.8713 13.5964 10.7791 13.6852C10.2099 14.2339 9.78306 14.6454 10.8028 15.3174C11.2928 15.6403 11.6849 15.9074 12.0761 16.1738C12.5033 16.4647 12.9294 16.7549 13.4808 17.1163C13.6212 17.2084 13.7554 17.304 13.886 17.3971C14.3832 17.7516 14.8299 18.07 15.3817 18.0192C15.7024 17.9897 16.0336 17.6882 16.2018 16.789C16.5994 14.6638 17.3808 10.0591 17.5614 8.16158C17.5772 7.99534 17.5573 7.78258 17.5413 7.68918C17.5253 7.59579 17.4919 7.46272 17.3705 7.36421C17.2267 7.24755 17.0048 7.22295 16.9055 7.22469C16.4542 7.23265 15.7617 7.47343 12.4292 8.85954Z" fill="#525660"/>
</g>
<defs>
<clipPath id="clip0_1188_16163">
<rect width="24" height="24" fill="white"/>
</clipPath>
</defs>
</svg>
