<svg width="30" height="30" viewBox="0 0 30 30" fill="none" xmlns="http://www.w3.org/2000/svg">
<path d="M12.6962 19.0831L6.74491 13.0688C6.54899 12.7914 6.44286 12.5955 6.32857 12.3752L6.23877 12.2038C4.99791 9.91074 5.31629 7.71557 5.87957 6.1814L2.108 9.95154C1.58553 10.4738 1.2998 11.1675 1.2998 11.9019V16.4718C1.2998 18.6506 2.14881 20.7071 3.69173 22.2494L4.15706 22.7064C4.15706 22.7064 7.73271 25.5217 11.5859 23.4408C11.5859 23.4408 12.141 23.147 12.3533 23.0001L15.5453 19.842H14.5248C14.0187 19.842 13.5207 19.6952 13.1043 19.4095C12.9656 19.3198 12.8349 19.2055 12.7125 19.0913L12.6962 19.0831Z" fill="#CFD5E1"/>
<path d="M23.4885 19.4503C23.3906 19.2136 23.2844 18.977 23.162 18.7485L23.064 18.569C22.9579 18.365 22.8681 18.2017 22.7211 17.9896L19.5537 14.7988V15.8107C19.5537 16.488 19.2843 17.1409 18.8026 17.6224L12.7861 23.5713C9.93697 25.5054 7.2185 24.9341 5.896 24.4445L9.66757 28.2147C10.19 28.7369 10.8839 29.0225 11.6187 29.0225H16.1903C18.37 29.0225 20.4272 28.1739 21.9701 26.6315L22.4436 26.1582C22.6885 25.84 24.8355 22.8532 23.4885 19.4666V19.4503Z" fill="#CFD5E1"/>
<path d="M6.87563 11.8529C6.87563 11.8529 7.16952 12.4078 7.31647 12.62L10.4921 15.8189V14.7825C10.4921 14.1786 10.688 13.6237 11.0717 13.1586C11.1289 13.0933 11.186 13.028 11.2431 12.9709L17.2597 7.02188C20.068 5.16129 22.6967 5.61828 24.1579 6.14871L20.3864 2.37857C19.8639 1.8563 19.17 1.57068 18.4353 1.57068H13.8637C10.1819 1.57068 7.91241 4.08411 7.65117 4.39421L7.62669 4.42685C7.62669 4.42685 4.81841 8.02562 6.8838 11.8529H6.87563Z" fill="#CFD5E1"/>
<path d="M25.8314 7.83788C25.8314 7.83788 21.8476 4.76138 17.7005 7.59307L14.4922 10.7675H15.5208C16.2065 10.7675 16.8515 11.0368 17.3331 11.5183L23.2844 17.5325C25.3253 20.4785 24.5742 23.3673 24.1987 24.3792L27.9294 20.6498C28.4519 20.1276 28.7376 19.4339 28.7376 18.6995V14.1296C28.7376 11.9508 27.8886 9.89432 26.3457 8.35199L25.8232 7.82972L25.8314 7.83788Z" fill="#CFD5E1"/>
</svg>
