<svg width="24" height="24" viewBox="0 0 24 24" fill="none" xmlns="http://www.w3.org/2000/svg">
<g id="vk-fill" clip-path="url(#clip0_1188_16159)">
<path id="Subtract" fill-rule="evenodd" clip-rule="evenodd" d="M1.684 1.684C0 3.368 0 6.0792 0 11.5V12.5C0 17.92 0 20.632 1.684 22.316C3.368 24 6.0792 24 11.5 24H12.5C17.92 24 20.632 24 22.316 22.316C24 20.632 24 17.9208 24 12.5V11.5C24 6.08 24 3.368 22.316 1.684C20.632 0 17.9208 0 12.5 0H11.5C6.08 0 3.368 0 1.684 1.684ZM4.74844 7.5H6.49804C6.94524 7.5 7.11324 7.696 7.28124 8.1808C8.13724 10.6736 9.58044 12.8528 10.1732 12.8528C10.3964 12.8528 10.498 12.7504 10.498 12.1848V9.608C10.458 8.87446 10.2017 8.55715 10.0119 8.32214C9.89469 8.17705 9.80284 8.06333 9.80284 7.9024C9.80284 7.7064 9.97004 7.5 10.2476 7.5H12.998C13.3692 7.5 13.498 7.6984 13.498 8.1432V11.6104C13.498 11.9808 13.6588 12.1112 13.77 12.1112C13.9924 12.1112 14.178 11.9808 14.586 11.5728C15.8468 10.164 16.7364 7.9952 16.7364 7.9952C16.8476 7.7352 17.0532 7.5 17.498 7.5H19.2476C19.7772 7.5 19.8892 7.7728 19.7772 8.1432C19.5548 9.1632 17.4228 12.1664 17.4228 12.1664C17.2372 12.4632 17.1628 12.6112 17.4228 12.9448C17.5146 13.0733 17.7103 13.2652 17.9341 13.4846C18.1631 13.7089 18.4213 13.9621 18.6276 14.2056C19.3796 15.0512 19.946 15.7648 20.1036 16.256C20.2484 16.7496 19.998 17 19.498 17H17.7476C17.279 17 17.0433 16.7376 16.5334 16.17C16.3173 15.9295 16.052 15.6342 15.6988 15.2808C14.6596 14.28 14.2156 14.1504 13.9556 14.1504C13.6036 14.1504 13.498 14.2504 13.498 14.7504V16.32C13.498 16.7496 13.3604 17 12.2476 17C10.394 17 8.35644 15.8744 6.91084 13.7976C4.74124 10.7576 4.14844 8.4584 4.14844 7.9952C4.14844 7.7352 4.24844 7.5 4.74844 7.5Z" fill="#525660"/>
</g>
<defs>
<clipPath id="clip0_1188_16159">
<rect width="24" height="24" fill="white"/>
</clipPath>
</defs>
</svg>
