<svg width="204" height="18" viewBox="0 0 204 18" fill="none" xmlns="http://www.w3.org/2000/svg">
<g clip-path="url(#clip0_855_9733)">
<mask id="mask0_855_9733" style="mask-type:luminance" maskUnits="userSpaceOnUse" x="0" y="0" width="204" height="18">
<path d="M204 0H0V18H204V0Z" fill="white"/>
</mask>
<g mask="url(#mask0_855_9733)">
<path fill-rule="evenodd" clip-rule="evenodd" d="M8.72454 0.130863C8.76047 0.130865 8.79657 0.130866 8.83282 0.130866C8.86899 0.130866 8.90516 0.130865 8.94101 0.130863C10.4417 0.130786 11.7292 0.130719 12.7591 0.265795C13.8606 0.410271 14.9086 0.735053 15.7578 1.56338C16.6068 2.39171 16.9398 3.41408 17.0878 4.48869C17.2262 5.49336 17.2262 6.74936 17.2262 8.21334V16.1384C17.2262 17.0186 16.4947 17.7321 15.5925 17.7321C14.6903 17.7321 13.9589 17.0186 13.9589 16.1384V8.31899C13.9589 6.71963 13.9554 5.6804 13.8498 4.91339C13.7503 4.19223 13.5883 3.95457 13.4475 3.81716C13.3066 3.67975 13.063 3.52166 12.3237 3.4247C11.5375 3.32158 10.4723 3.3182 8.83282 3.3182C7.19335 3.3182 6.12809 3.32158 5.34183 3.4247C4.6026 3.52166 4.35899 3.67975 4.21814 3.81716C4.07728 3.95457 3.91523 4.19223 3.81584 4.91339C3.71013 5.6804 3.70666 6.71963 3.70666 8.31899V16.1384C3.70666 17.0186 2.97528 17.7321 2.07306 17.7321C1.17085 17.7321 0.439461 17.0186 0.439461 16.1384V8.31899C0.439461 8.28369 0.439458 8.24847 0.439457 8.21334C0.439378 6.74936 0.43931 5.49336 0.577773 4.48869C0.725868 3.41408 1.05879 2.39171 1.90787 1.56338C2.75696 0.735053 3.80495 0.410271 4.90649 0.265795C5.93635 0.130719 7.22384 0.130786 8.72454 0.130863Z" fill="#EC2327"/>
<path fill-rule="evenodd" clip-rule="evenodd" d="M19.9199 2.95056C19.9199 1.4634 21.1558 0.257812 22.6801 0.257812H30.5665C33.3354 0.257812 35.58 2.44754 35.58 5.14872V6.94521C35.58 9.64639 33.3354 11.8361 30.5665 11.8361H23.1871V16.1395C23.1871 17.0197 22.4557 17.7332 21.5536 17.7332C20.6513 17.7332 19.9199 17.0197 19.9199 16.1395V2.95056ZM23.1871 8.6488H30.5665C31.5309 8.6488 32.3128 7.88607 32.3128 6.94521V5.14872C32.3128 4.20786 31.5309 3.44514 30.5665 3.44514H23.1871V8.6488Z" fill="#EC2327"/>
<path fill-rule="evenodd" clip-rule="evenodd" d="M150.359 2.9115C150.359 1.42434 151.595 0.21875 153.12 0.21875H161.006C163.775 0.21875 166.02 2.40848 166.02 5.10965V6.90615C166.02 9.60729 163.775 11.797 161.006 11.797H153.627V16.1004C153.627 16.9806 152.895 17.6941 151.993 17.6941C151.091 17.6941 150.359 16.9806 150.359 16.1004V2.9115ZM153.627 8.60978H161.006C161.97 8.60978 162.752 7.84705 162.752 6.90615V5.10965C162.752 4.1688 161.97 3.40607 161.006 3.40607H153.627V8.60978Z" fill="#0070C0"/>
<path fill-rule="evenodd" clip-rule="evenodd" d="M190.731 0.289099L190.654 0.289081C190.191 0.288913 189.695 0.288733 189.277 0.343549C188.789 0.407548 188.171 0.571372 187.652 1.07779C187.133 1.5842 186.965 2.18657 186.899 2.66258C186.844 3.0703 186.844 3.55433 186.844 4.00653V4.08092V8.39605C186.844 8.39965 186.844 8.40333 186.844 8.40701C186.844 8.41006 186.844 8.41319 186.844 8.41624V16.1005C186.844 16.9807 187.575 17.6942 188.477 17.6942C188.561 17.6942 188.644 17.688 188.725 17.676C188.806 17.688 188.888 17.6942 188.973 17.6942H198.054H198.147C198.578 17.6945 198.943 17.6947 199.271 17.6524C201.522 17.3635 203.292 15.6364 203.587 13.4418C203.631 13.1207 203.631 12.7646 203.631 12.3447V12.2538V12.163C203.631 11.743 203.631 11.3869 203.587 11.0659C203.428 9.88567 202.843 8.84073 201.986 8.08191C202.662 7.28154 203.067 6.25623 203.067 5.10976C203.067 2.40859 200.822 0.289099 198.054 0.289099H190.731ZM190.111 9.85749V14.5069H198.054C198.629 14.5069 198.758 14.5034 198.845 14.4923C199.628 14.3917 200.245 13.7902 200.349 13.0256C200.36 12.941 200.363 12.8149 200.363 12.2538C200.363 11.6927 200.36 11.5666 200.349 11.482C200.245 10.7174 199.628 9.97269 198.845 9.87205C198.758 9.86086 198.629 9.85749 198.054 9.85749H190.111ZM198.054 6.81331H190.111V4.08092C190.111 3.83775 190.111 3.64529 190.114 3.47994C190.284 3.47652 190.482 3.47643 190.731 3.47643H198.054C199.018 3.47643 199.8 4.16891 199.8 5.10976C199.8 6.05063 199.018 6.81331 198.054 6.81331Z" fill="#0070C0"/>
<path fill-rule="evenodd" clip-rule="evenodd" d="M85.2645 0.201174C85.2967 0.201175 85.3281 0.201177 85.3595 0.201177C85.3916 0.201177 85.4238 0.201175 85.4552 0.201174C86.7836 0.20112 87.9236 0.201073 88.8479 0.297475C89.8294 0.399835 90.7804 0.627687 91.6199 1.22351C91.9911 1.48671 92.3229 1.79373 92.6078 2.13674C93.2511 2.91324 93.4975 3.79334 93.6081 4.70129C93.7125 5.55641 93.7125 6.61112 93.7125 7.8398V10.2394C93.7125 11.468 93.7125 12.5227 93.6081 13.3778C93.4975 14.2858 93.2511 15.1659 92.6078 15.9424C92.3229 16.2854 91.9911 16.5924 91.6199 16.8555C90.7804 17.4514 89.8294 17.6792 88.8479 17.7816C87.9236 17.878 86.7836 17.8779 85.4552 17.8779H85.2645C83.937 17.8779 82.7969 17.878 81.8726 17.7816C80.8911 17.6792 79.9394 17.4514 79.0998 16.8555C78.7295 16.5924 78.3975 16.2854 78.1127 15.9424C77.4686 15.1659 77.2222 14.2858 77.1116 13.3778C77.0079 12.5227 77.0079 11.4679 77.0079 10.2393V7.92776C77.0079 7.89834 77.0079 7.86899 77.0079 7.8398C77.0079 6.61112 77.0079 5.55642 77.1116 4.70129C77.2222 3.79334 77.4686 2.91324 78.1127 2.13674C78.3975 1.79373 78.7295 1.48671 79.0998 1.22351C79.9394 0.627687 80.8911 0.399835 81.8726 0.297475C82.7969 0.201073 83.937 0.20112 85.2645 0.201174ZM82.0343 3.50124C81.3634 3.57118 81.1249 3.68794 80.9931 3.78133C80.8644 3.873 80.7483 3.97995 80.6494 4.09942C80.549 4.22112 80.4227 4.44205 80.3466 5.06248C80.2673 5.71539 80.2642 6.5865 80.2642 7.92776V10.1513C80.2642 11.4926 80.2673 12.3637 80.3466 13.0166C80.4227 13.637 80.549 13.858 80.6494 13.9797C80.7483 14.0992 80.8644 14.2061 80.9931 14.2977C81.1249 14.3911 81.3634 14.5079 82.0343 14.5778C82.7396 14.6515 83.9103 14.6539 85.3595 14.6539C86.8102 14.6539 88.0711 14.6515 88.7765 14.5778C89.4473 14.5079 89.6866 14.3911 89.8177 14.2977C89.9471 14.2061 90.0625 14.0992 90.1621 13.9797C90.2625 13.858 90.3889 13.637 90.4642 13.0166C90.5442 12.3637 90.5466 11.4926 90.5466 10.1513V7.92776C90.5466 6.5865 90.5442 5.71539 90.4642 5.06248C90.3889 4.44205 90.2625 4.22112 90.1621 4.09942C90.0625 3.97995 89.9471 3.873 89.8177 3.78133C89.6866 3.68794 89.4473 3.57118 88.7765 3.50124C88.0711 3.42763 86.8102 3.42523 85.3595 3.42523C83.9103 3.42523 82.7396 3.42763 82.0343 3.50124Z" fill="#0070C0"/>
<path fill-rule="evenodd" clip-rule="evenodd" d="M45.9271 0.201174C45.9587 0.201175 45.9904 0.201177 46.0223 0.201177C46.054 0.201177 46.0857 0.201175 46.1173 0.201174C47.4455 0.20112 48.5857 0.201073 49.51 0.297475C50.4915 0.399835 51.4428 0.627687 52.2822 1.22351C52.653 1.48671 52.9849 1.79373 53.2694 2.13674C53.9135 2.91324 54.1598 3.79334 54.2705 4.70129C54.3746 5.55641 54.3746 6.61112 54.3746 7.8398V10.2394C54.3746 11.468 54.3746 12.5227 54.2705 13.3778C54.1598 14.2858 53.9135 15.1659 53.2694 15.9424C52.9849 16.2854 52.653 16.5924 52.2822 16.8555C51.4428 17.4514 50.4915 17.6792 49.51 17.7816C48.5857 17.878 47.4455 17.8779 46.1173 17.8779H45.9272C44.599 17.8779 43.4588 17.878 42.5344 17.7816C41.5529 17.6792 40.6016 17.4514 39.7622 16.8555C39.3914 16.5924 39.0595 16.2854 38.775 15.9424C38.1309 15.1659 37.8846 14.2858 37.774 13.3778C37.6698 12.5227 37.6698 11.4679 37.6699 10.2393V7.92776C37.6699 7.89834 37.6699 7.86899 37.6699 7.8398C37.6698 6.61112 37.6698 5.55642 37.774 4.70129C37.8846 3.79334 38.1309 2.91324 38.775 2.13674C39.0595 1.79373 39.3914 1.48671 39.7622 1.22351C40.6016 0.627687 41.5529 0.399835 42.5344 0.297475C43.4588 0.201073 44.599 0.20112 45.9271 0.201174ZM42.6966 3.50124C42.0259 3.57118 41.7871 3.68794 41.6555 3.78133C41.5264 3.873 41.4108 3.97995 41.3117 4.09942C41.2107 4.22112 41.0845 4.44205 41.0089 5.06248C40.9293 5.71539 40.9267 6.5865 40.9267 7.92776V10.1513C40.9267 11.4926 40.9293 12.3637 41.0089 13.0166C41.0845 13.637 41.2107 13.858 41.3117 13.9797C41.4108 14.0992 41.5264 14.2061 41.6555 14.2977C41.7871 14.3911 42.0259 14.5079 42.6966 14.5778C43.4023 14.6515 44.5722 14.6539 46.0223 14.6539C47.4722 14.6539 48.733 14.6515 49.4389 14.5778C50.1095 14.5079 50.3483 14.3911 50.4799 14.2977C50.609 14.2061 50.7246 14.0992 50.8238 13.9797C50.9247 13.858 51.0509 13.637 51.1265 13.0166C51.206 12.3637 51.2086 11.4926 51.2086 10.1513V7.92776C51.2086 6.5865 51.206 5.71539 51.1265 5.06248C51.0509 4.44205 50.9247 4.22112 50.8238 4.09942C50.7246 3.97995 50.609 3.873 50.4799 3.78133C50.3483 3.68794 50.1095 3.57118 49.4389 3.50124C48.733 3.42763 47.4722 3.42523 46.0223 3.42523C44.5722 3.42523 43.4023 3.42763 42.6966 3.50124Z" fill="#EC2327"/>
<path fill-rule="evenodd" clip-rule="evenodd" d="M139.608 0.207034C139.64 0.207036 139.672 0.207037 139.703 0.207037C139.735 0.207037 139.767 0.207036 139.798 0.207034C141.126 0.20698 142.267 0.206934 143.191 0.303336C144.173 0.405695 145.124 0.633541 145.963 1.22937C146.335 1.49257 146.666 1.79959 146.95 2.1426C147.595 2.9191 147.841 3.7992 147.952 4.70716C148.056 5.56227 148.056 6.61696 148.056 7.84558V10.2452C148.056 11.4738 148.056 12.5285 147.952 13.3836C147.841 14.2916 147.595 15.1717 146.95 15.9482C146.666 16.2912 146.335 16.5983 145.963 16.8615C145.124 17.4573 144.173 17.6851 143.191 17.7875C142.267 17.8839 141.126 17.8838 139.798 17.8838H139.608C138.281 17.8838 137.14 17.8839 136.215 17.7875C135.234 17.6851 134.283 17.4573 133.443 16.8615C133.073 16.5983 132.741 16.2912 132.456 15.9482C131.812 15.1717 131.566 14.2916 131.455 13.3836C131.352 12.5285 131.352 11.4738 131.352 10.2452V7.93362C131.352 7.90428 131.352 7.87485 131.352 7.84566C131.352 6.61702 131.352 5.56228 131.455 4.70716C131.566 3.7992 131.812 2.9191 132.456 2.1426C132.741 1.79959 133.073 1.49257 133.443 1.22937C134.283 0.633541 135.234 0.405695 136.215 0.303336C137.14 0.206934 138.281 0.20698 139.608 0.207034ZM136.378 3.5071C135.707 3.57704 135.468 3.6938 135.337 3.78719C135.208 3.87887 135.092 3.9858 134.993 4.10527C134.892 4.22699 134.766 4.4479 134.69 5.06834C134.611 5.72125 134.608 6.59234 134.608 7.93362V10.1572C134.608 11.4985 134.611 12.3695 134.69 13.0225C134.766 13.6429 134.892 13.8638 134.993 13.9855C135.092 14.105 135.208 14.2119 135.337 14.3036C135.468 14.397 135.707 14.5137 136.378 14.5837C137.083 14.6573 138.253 14.6597 139.703 14.6597C141.154 14.6597 142.414 14.6573 143.12 14.5837C143.791 14.5137 144.029 14.397 144.161 14.3036C144.291 14.2119 144.406 14.105 144.505 13.9855C144.606 13.8638 144.732 13.6429 144.808 13.0225C144.888 12.3695 144.89 11.4985 144.89 10.1572V7.93362C144.89 6.59234 144.888 5.72125 144.808 5.06834C144.732 4.4479 144.606 4.22699 144.505 4.10527C144.406 3.9858 144.291 3.87887 144.161 3.78719C144.029 3.6938 143.791 3.57704 143.12 3.5071C142.414 3.43349 141.154 3.4311 139.703 3.4311C138.253 3.4311 137.083 3.43349 136.378 3.5071Z" fill="#0070C0"/>
<path fill-rule="evenodd" clip-rule="evenodd" d="M176.208 0.21094C176.24 0.210941 176.271 0.210942 176.303 0.210942C176.335 0.210942 176.366 0.210941 176.398 0.21094C177.726 0.210886 178.867 0.210838 179.791 0.307241C180.773 0.409601 181.724 0.637449 182.563 1.23328C182.934 1.49647 183.265 1.8035 183.55 2.1465C184.194 2.923 184.441 3.8031 184.551 4.71106C184.656 5.56617 184.656 6.62086 184.656 7.84949V10.2491C184.656 11.4777 184.656 12.5325 184.551 13.3876C184.441 14.2955 184.194 15.1756 183.55 15.9521C183.265 16.2951 182.934 16.6022 182.563 16.8654C181.724 17.4612 180.773 17.689 179.791 17.7914C178.867 17.8878 177.726 17.8878 176.398 17.8877H176.208C174.88 17.8878 173.739 17.8878 172.815 17.7914C171.833 17.689 170.882 17.4612 170.043 16.8654C169.672 16.6022 169.341 16.2951 169.056 15.9521C168.412 15.1756 168.165 14.2955 168.055 13.3876C167.951 12.5324 167.951 11.4777 167.951 10.2491V7.93761C167.951 7.90818 167.951 7.87876 167.951 7.84956C167.951 6.62092 167.951 5.56619 168.055 4.71106C168.165 3.8031 168.412 2.923 169.056 2.1465C169.341 1.8035 169.672 1.49647 170.043 1.23328C170.882 0.637449 171.833 0.409601 172.815 0.307241C173.739 0.210838 174.88 0.210886 176.208 0.21094ZM172.977 3.511C172.307 3.58095 172.068 3.69771 171.936 3.7911C171.808 3.88276 171.691 3.98971 171.593 4.10919C171.491 4.23088 171.366 4.45181 171.29 5.07224C171.21 5.72516 171.207 6.59625 171.207 7.93761V10.1611C171.207 11.5024 171.21 12.3735 171.29 13.0264C171.366 13.6468 171.491 13.8677 171.593 13.9894C171.691 14.1089 171.808 14.2159 171.936 14.3075C172.068 14.4009 172.307 14.5177 172.977 14.5876C173.684 14.6612 174.853 14.6636 176.303 14.6636C177.753 14.6636 179.013 14.6612 179.72 14.5876C180.39 14.5177 180.629 14.4009 180.761 14.3075C180.89 14.2159 181.006 14.1089 181.104 13.9894C181.206 13.8677 181.332 13.6468 181.407 13.0264C181.487 12.3735 181.489 11.5024 181.489 10.1611V7.93761C181.489 6.59625 181.487 5.72516 181.407 5.07224C181.332 4.45181 181.206 4.23088 181.104 4.10919C181.006 3.98971 180.89 3.88276 180.761 3.7911C180.629 3.69771 180.39 3.58095 179.72 3.511C179.013 3.4374 177.753 3.435 176.303 3.435C174.853 3.435 173.684 3.4374 172.977 3.511Z" fill="#0070C0"/>
<path fill-rule="evenodd" clip-rule="evenodd" d="M70.9005 14.6227L65.8533 3.67959L60.8254 14.6227H70.9005ZM74.2917 14.6227L68.0921 1.26273C67.4629 -0.0137845 64.2293 -0.0247653 63.6075 1.26117L57.4147 14.6227H57.0866C56.1843 14.6227 55.4529 15.3094 55.4529 16.1566C55.4529 17.0037 56.1843 17.6905 57.0866 17.6905H74.6206C75.5226 17.6905 76.2544 17.0037 76.2544 16.1566C76.2544 15.3094 75.5226 14.6227 74.6206 14.6227H74.2917Z" fill="#0070C0"/>
<path fill-rule="evenodd" clip-rule="evenodd" d="M111.148 3.13638L102.85 8.97261L111.61 14.7522C112.357 15.2453 112.553 16.236 112.048 16.9651C111.543 17.6942 110.527 17.8855 109.78 17.3925L100.391 11.1983C99.9806 10.9273 99.6739 10.5755 99.4714 10.1838V16.101C99.4714 16.9812 98.7402 17.6947 97.8379 17.6947C96.9356 17.6947 96.2051 16.9812 96.2051 16.101V1.81301C96.2051 0.932859 96.9356 0.219347 97.8379 0.219347C98.7402 0.219347 99.4714 0.932859 99.4714 1.81301V7.752C99.6778 7.35204 99.9932 6.99384 100.416 6.72117L109.346 0.477076C110.099 -0.00811322 111.113 0.193869 111.61 0.928218C112.107 1.66256 111.9 2.65119 111.148 3.13638Z" fill="#0070C0"/>
<path fill-rule="evenodd" clip-rule="evenodd" d="M113.598 1.81437C113.598 0.93421 114.329 0.220703 115.231 0.220703H128.751C129.652 0.220703 130.384 0.93421 130.384 1.81437C130.384 2.69452 129.652 3.40803 128.751 3.40803H115.231C114.329 3.40803 113.598 2.69452 113.598 1.81437Z" fill="#0070C0"/>
<path fill-rule="evenodd" clip-rule="evenodd" d="M121.992 0.302734C122.893 0.302734 123.625 1.01624 123.625 1.89639V16.1844C123.625 17.0645 122.893 17.7781 121.992 17.7781C121.089 17.7781 120.357 17.0645 120.357 16.1844V1.89639C120.357 1.01624 121.089 0.302734 121.992 0.302734Z" fill="#0070C0"/>
</g>
</g>
<defs>
<clipPath id="clip0_855_9733">
<rect width="204" height="18" fill="white"/>
</clipPath>
</defs>
</svg>
