<?xml version="1.0" standalone="no"?>
<!DOCTYPE svg PUBLIC "-//W3C//DTD SVG 20010904//EN"
 "http://www.w3.org/TR/2001/REC-SVG-20010904/DTD/svg10.dtd">
<svg version="1.0" xmlns="http://www.w3.org/2000/svg"
 width="360.000000pt" height="360.000000pt" viewBox="0 0 360.000000 360.000000"
 preserveAspectRatio="xMidYMid meet">
<metadata>
Created by potrace 1.14, written by Peter Selinger 2001-2017
</metadata>
<g transform="translate(0.000000,360.000000) scale(0.100000,-0.100000)"
fill="#000000" stroke="none">
<path d="M1500 3345 c-197 -40 -387 -145 -523 -290 -46 -49 -140 -236 -163
-325 -23 -85 -28 -276 -9 -350 22 -88 30 -111 70 -190 32 -65 62 -100 218
-257 100 -101 184 -183 187 -183 3 0 5 39 6 88 1 147 -7 137 410 549 244 242
383 372 417 391 78 43 177 80 264 98 102 21 288 14 387 -14 l69 -20 -229 229
c-176 177 -242 236 -284 257 l-55 27 -350 2 c-256 1 -368 -2 -415 -12z"/>
<path d="M518 2593 c-205 -208 -238 -245 -256 -293 -20 -53 -21 -69 -18 -415
1 -198 6 -373 10 -390 33 -142 72 -237 141 -340 121 -180 257 -280 461 -336
102 -28 108 -29 209 -29 135 -1 215 19 340 83 69 36 105 66 262 221 101 99
181 181 179 183 -2 2 -43 6 -90 7 -143 6 -144 6 -556 423 -355 360 -359 365
-404 456 -25 51 -55 128 -67 172 -36 134 -27 344 21 469 5 14 8 26 7 26 -2 0
-109 -107 -239 -237z"/>
<path d="M2355 2789 c-44 -11 -116 -38 -160 -60 -71 -36 -101 -61 -262 -222
-101 -100 -183 -184 -183 -187 0 -3 38 -6 84 -6 146 -3 143 -1 547 -408 194
-196 363 -373 377 -392 79 -116 128 -284 131 -444 2 -97 -18 -233 -40 -272 -5
-10 -6 -18 -1 -18 4 0 107 100 229 223 186 186 226 232 250 282 l27 60 0 325
c0 404 -4 448 -58 591 -47 124 -112 224 -220 337 -48 50 -81 73 -170 117 -62
31 -146 63 -191 74 -106 25 -254 25 -360 0z"/>
<path d="M2313 1765 c-3 -144 -11 -156 -312 -453 -470 -466 -478 -474 -561
-514 -200 -97 -420 -118 -611 -59 -52 17 -58 17 -47 3 7 -8 109 -112 227 -229
145 -145 231 -223 265 -241 l51 -27 350 -2 c383 -3 456 4 593 60 152 61 329
194 399 300 38 57 90 172 114 254 28 91 34 264 14 353 -42 179 -83 243 -295
458 -99 100 -181 182 -183 182 -1 0 -3 -38 -4 -85z"/>
</g>
</svg>
